<svg width="20" height="22" viewBox="0 0 20 22" fill="none" xmlns="http://www.w3.org/2000/svg">
  <path d="M19.5414 21.2769L17.8693 5.3538C17.8342 5.02045 17.5533 4.76734 17.2181 4.76734H14.0753V4.0508C14.0753 1.81727 12.258 0 10.0245 0C7.79082 0 5.97355 1.81727 5.97355 4.0508V4.76734H2.83079C2.4956 4.76734 2.21463 5.02045 2.17955 5.3538L0.507461 21.2769C0.488159 21.4613 0.54808 21.6455 0.672118 21.7834C0.796325 21.9212 0.973235 22 1.15871 22H18.89C19.0756 22 19.2525 21.9212 19.3766 21.7834C19.501 21.6455 19.5607 21.4613 19.5414 21.2769ZM7.28308 4.0508C7.28308 2.53935 8.51289 1.30954 10.0245 1.30954C11.536 1.30954 12.7658 2.53935 12.7658 4.0508V4.76734H7.28308V4.0508ZM1.88582 20.6904L3.42043 6.07688H5.97355V7.51985C5.97355 7.88139 6.26677 8.17462 6.62831 8.17462C6.98986 8.17462 7.28308 7.88139 7.28308 7.51985V6.07688H12.7658V7.51985C12.7658 7.88139 13.059 8.17462 13.4206 8.17462C13.7821 8.17462 14.0753 7.88139 14.0753 7.51985V6.07688H16.6284L18.1631 20.6904H1.88582Z" fill="#E84437"/>
</svg>

