<svg width="11" height="14" viewBox="0 0 11 14" fill="none" xmlns="http://www.w3.org/2000/svg">
<path d="M5.09091 0C2.28377 0 0 2.27451 0 5.07025C0 8.53985 4.55586 13.6334 4.74984 13.8486C4.93203 14.0507 5.25012 14.0503 5.43198 13.8486C5.62595 13.6334 10.1818 8.53985 10.1818 5.07025C10.1818 2.27451 7.89802 0 5.09091 0ZM5.09091 12.8442C3.55763 11.0302 0.916779 7.45151 0.916779 5.0703C0.916779 2.77796 2.78927 0.913064 5.09091 0.913064C7.39255 0.913064 9.26504 2.77796 9.26504 5.07028C9.26501 7.45159 6.62458 11.0297 5.09091 12.8442Z" fill="#E84437"/>
<path d="M5.09137 2.54541C3.68777 2.54541 2.5459 3.68729 2.5459 5.09086C2.5459 6.49443 3.6878 7.63632 5.09137 7.63632C6.49493 7.63632 7.63681 6.49443 7.63681 5.09086C7.63681 3.68729 6.49493 2.54541 5.09137 2.54541ZM5.09137 6.72523C4.19014 6.72523 3.457 5.99207 3.457 5.09086C3.457 4.18966 4.19017 3.45649 5.09137 3.45649C5.99256 3.45649 6.72574 4.18966 6.72574 5.09086C6.72574 5.99207 5.99256 6.72523 5.09137 6.72523Z" fill="#E84437"/>
</svg>
