<svg width="21" height="21" viewBox="0 0 21 21" fill="none" xmlns="http://www.w3.org/2000/svg">
  <path d="M8.53183 16.4067C7.44634 16.4067 6.56299 17.2901 6.56299 18.3756C6.56299 19.4611 7.44634 20.3444 8.53183 20.3444C9.61732 20.3444 10.5007 19.4611 10.5007 18.3756C10.5007 17.2901 9.61732 16.4067 8.53183 16.4067ZM8.53183 19.0319C8.16956 19.0319 7.87555 18.7378 7.87555 18.3756C7.87555 18.0133 8.16956 17.7193 8.53183 17.7193C8.8941 17.7193 9.18811 18.0133 9.18811 18.3756C9.18811 18.7378 8.8941 19.0319 8.53183 19.0319Z" fill="white"/>
  <path d="M16.4068 16.4067C15.3213 16.4067 14.438 17.2901 14.438 18.3756C14.438 19.4611 15.3213 20.3444 16.4068 20.3444C17.4923 20.3444 18.3757 19.4611 18.3757 18.3756C18.3757 17.2901 17.4923 16.4067 16.4068 16.4067ZM16.4068 19.0319C16.0446 19.0319 15.7506 18.7378 15.7506 18.3756C15.7506 18.0133 16.0446 17.7193 16.4068 17.7193C16.7691 17.7193 17.0631 18.0133 17.0631 18.3756C17.0631 18.7378 16.7691 19.0319 16.4068 19.0319Z" fill="white"/>
  <path d="M20.8474 3.51715C20.724 3.36751 20.539 3.28088 20.3447 3.28088H4.91948L4.34852 1.14272C4.27239 0.855271 4.0125 0.655762 3.71455 0.655762H0.656281C0.294014 0.655762 0 0.949776 0 1.31204C0 1.67431 0.294014 1.96832 0.656281 1.96832H3.21053L6.58512 14.607C6.66125 14.8944 6.92114 15.0939 7.21909 15.0939H17.7196C18.0818 15.0939 18.3759 14.7999 18.3759 14.4377C18.3759 14.0754 18.0818 13.7814 17.7196 13.7814H7.72311L7.33853 12.3402L19.061 11.8125C19.3668 11.7981 19.6228 11.575 19.6766 11.2744L20.9892 4.0553C21.0246 3.86366 20.9721 3.66678 20.8474 3.51715ZM18.4809 10.5249L6.9907 11.0421L5.26993 4.59345H19.5585L18.4809 10.5249Z" fill="white"/>
</svg>
