<svg width="14" height="14" viewBox="0 0 14 14" fill="none" xmlns="http://www.w3.org/2000/svg">
    <g clip-path="url(#clip0)">
        <path d="M8.28262 7.01339L13.7339 1.5619C14.0887 1.20731 14.0887 0.633972 13.7339 0.279375C13.3793 -0.0752214 12.806 -0.0752214 12.4514 0.279375L6.99993 5.73086L1.5486 0.279375C1.19384 -0.0752214 0.620669 -0.0752214 0.266072 0.279375C-0.0886908 0.633972 -0.0886908 1.20731 0.266072 1.5619L5.7174 7.01339L0.266072 12.4649C-0.0886908 12.8195 -0.0886908 13.3928 0.266072 13.7474C0.442789 13.9243 0.675146 14.0131 0.907336 14.0131C1.13953 14.0131 1.37172 13.9243 1.5486 13.7474L6.99993 8.29592L12.4514 13.7474C12.6283 13.9243 12.8605 14.0131 13.0927 14.0131C13.3249 14.0131 13.5571 13.9243 13.7339 13.7474C14.0887 13.3928 14.0887 12.8195 13.7339 12.4649L8.28262 7.01339Z" fill="#BDBDBD"/>
    </g>
    <defs>
        <clipPath id="clip0">
            <rect width="14" height="14" fill="white"/>
        </clipPath>
    </defs>
</svg>
