<svg width="278" height="44" viewBox="0 0 278 44" fill="none" xmlns="http://www.w3.org/2000/svg">
  <rect width="278" height="44" rx="10" fill="white"/>
  <path d="M101.737 20.2375V23.3125H109.207C108.978 25.0375 108.394 26.3 107.504 27.1875C106.412 28.2625 104.71 29.4375 101.737 29.4375C97.1391 29.4375 93.5442 25.7875 93.5442 21.2625C93.5442 16.7375 97.1391 13.0875 101.737 13.0875C104.214 13.0875 106.031 14.05 107.365 15.2875L109.562 13.125C107.708 11.35 105.218 10 101.737 10C95.4369 10 90.1399 15.05 90.1399 21.25C90.1399 27.45 95.4369 32.5 101.737 32.5C105.142 32.5 107.708 31.4 109.715 29.35C111.773 27.325 112.42 24.4625 112.42 22.1625C112.42 21.45 112.37 20.7875 112.255 20.2375H101.737Z" fill="#4285F4"/>
  <path d="M121.757 17.7373C117.679 17.7373 114.351 20.7873 114.351 24.9998C114.351 29.1748 117.679 32.2623 121.757 32.2623C125.834 32.2623 129.162 29.1873 129.162 24.9998C129.162 20.7873 125.834 17.7373 121.757 17.7373ZM121.757 29.3998C119.521 29.3998 117.59 27.5873 117.59 24.9998C117.59 22.3873 119.521 20.5998 121.757 20.5998C123.992 20.5998 125.923 22.3873 125.923 24.9998C125.923 27.5873 123.992 29.3998 121.757 29.3998Z" fill="#EA4335"/>
  <path d="M158.061 19.3623H157.947C157.223 18.5123 155.825 17.7373 154.06 17.7373C150.376 17.7373 147.162 20.8998 147.162 24.9998C147.162 29.0748 150.376 32.2623 154.06 32.2623C155.825 32.2623 157.223 31.4873 157.947 30.6123H158.061V31.6248C158.061 34.3998 156.549 35.8873 154.123 35.8873C152.141 35.8873 150.909 34.4873 150.401 33.2998L147.581 34.4498C148.394 36.3748 150.541 38.7373 154.123 38.7373C157.921 38.7373 161.135 36.5373 161.135 31.1748V18.1123H158.061V19.3623ZM154.339 29.3998C152.103 29.3998 150.401 27.5248 150.401 24.9998C150.401 22.4373 152.103 20.5998 154.339 20.5998C156.549 20.5998 158.277 22.4748 158.277 25.0248C158.29 27.5623 156.549 29.3998 154.339 29.3998Z" fill="#4285F4"/>
  <path d="M138.27 17.7373C134.193 17.7373 130.865 20.7873 130.865 24.9998C130.865 29.1748 134.193 32.2623 138.27 32.2623C142.348 32.2623 145.676 29.1873 145.676 24.9998C145.676 20.7873 142.348 17.7373 138.27 17.7373ZM138.27 29.3998C136.035 29.3998 134.104 27.5873 134.104 24.9998C134.104 22.3873 136.035 20.5998 138.27 20.5998C140.506 20.5998 142.437 22.3873 142.437 24.9998C142.437 27.5873 140.506 29.3998 138.27 29.3998Z" fill="#FBBC05"/>
  <path d="M163.676 10.2998H166.864V32.2623H163.676V10.2998Z" fill="#34A853"/>
  <path d="M176.709 29.3998C175.057 29.3998 173.889 28.6623 173.127 27.1998L182.997 23.1873L182.666 22.3623C182.057 20.7373 180.177 17.7373 176.353 17.7373C172.555 17.7373 169.392 20.6748 169.392 24.9998C169.392 29.0748 172.517 32.2623 176.709 32.2623C180.088 32.2623 182.044 30.2248 182.857 29.0498L180.342 27.3998C179.503 28.5998 178.36 29.3998 176.709 29.3998ZM176.48 20.4623C177.788 20.4623 178.906 21.1248 179.275 22.0623L172.606 24.7748C172.606 21.7248 174.803 20.4623 176.48 20.4623Z" fill="#EA4335"/>
</svg>
