<svg width="278" height="44" viewBox="0 0 278 44" fill="none" xmlns="http://www.w3.org/2000/svg">
  <path d="M0 10C0 4.47715 4.47715 0 10 0H268C273.523 0 278 4.47715 278 10V34C278 39.5228 273.523 44 268 44H10C4.47715 44 0 39.5228 0 34V10Z" fill="#2E6AE4"/>
  <path fill-rule="evenodd" clip-rule="evenodd" d="M95.827 20.0602C95.293 19.3697 93.9961 18.4235 94.8353 17.0938C95.4964 16.0453 97.073 16.2499 98.4715 16.2243V33L104.193 32.8721L104.218 25.6862H112.559L112.533 20.4438H104.193L104.167 16.301C105.998 16.2499 112.508 16.3266 114.975 16.3521L115 11.0842C97.6324 11.1097 95.4964 10.6494 93.157 11.6468C87.0033 14.2552 87.8933 23.4102 94.4284 24.7911L95.827 20.0602Z" fill="white"/>
  <path fill-rule="evenodd" clip-rule="evenodd" d="M147.461 32.9022C147.461 30.652 147.461 28.4017 147.461 26.176C147.461 24.0725 147.411 21.6267 149.816 21.6267C152.096 21.6511 151.771 24.3905 151.771 26.3961C151.771 28.573 151.72 30.7987 151.796 32.9755H157.182C157.257 30.7253 157.207 28.4262 157.207 26.176C157.207 24.1704 157.107 21.7979 159.286 21.6511C161.792 21.5044 161.341 24.2927 161.341 26.3961C161.341 28.573 161.291 30.7987 161.366 32.9755L166.827 32.9022C166.777 25.6379 168.656 17.0773 161.115 17.0284C158.51 17.0039 157.833 17.9089 156.631 19.1319L156.205 19.5232C155.503 17.8845 154.176 16.9306 151.695 17.0039C149.19 17.1018 148.413 18.0312 147.361 19.4009L147.311 17.4197L142 17.3953V33L147.461 32.9022Z" fill="white"/>
  <path fill-rule="evenodd" clip-rule="evenodd" d="M176.066 20.8713C180.693 18.4678 182.025 26.8545 178.555 28.4143C174.356 30.3064 172.42 22.7634 176.066 20.8713ZM174.457 31.2013C175.739 31.8406 175.739 32.7099 178.153 33.0423C188.79 34.4998 188.563 14.121 177.776 16.141C175.362 16.5757 174.783 17.7263 174.457 18.0843C174.431 18.0331 174.331 18.161 174.281 18.2121C174.255 15.962 175.01 16.4478 169 16.4734L169.101 39H174.431L174.457 31.2013Z" fill="white"/>
  <path fill-rule="evenodd" clip-rule="evenodd" d="M129.589 29.0807C129.405 25.9708 131.713 26.4259 134.493 26.4259C134.572 29.814 131.32 31.2046 129.589 29.0807ZM129.799 22.3299C130.559 21.3438 130.271 20.383 132.447 20.4842C134.231 20.56 134.388 21.622 134.467 23.1643C131.792 23.0884 128.75 22.962 126.704 24.1251C125.079 25.0606 123.636 26.881 124.082 29.5611C124.869 34.3145 131.949 35.4523 134.677 31.9884C134.808 32.3171 134.808 32.671 134.886 32.848C135.175 33.4801 134.703 33.1009 135.332 33.4043H139.974C140.026 30.3702 139.974 27.3108 140 24.2768C140 21.1163 139.24 19.1947 137.01 18.0316C132.71 15.7561 124.528 17.2731 124.869 22.3046L129.799 22.3299Z" fill="white"/>
  <path fill-rule="evenodd" clip-rule="evenodd" d="M117.026 33H123V11H117L117.026 33Z" fill="white"/>
</svg>
