<svg width="278" height="43" viewBox="0 0 278 43" fill="none" xmlns="http://www.w3.org/2000/svg">
  <rect width="278" height="43" rx="10" fill="#00AF87"/>
  <g clip-path="url(#clip0)">
    <path d="M69.741 15.3485C72.8604 14.9309 81.7104 14.6433 79.2858 27.9121L82.0359 27.6799C80.8313 19.501 83.3511 15.3308 91.2305 14.9309C78.1621 7.42235 70.7216 15.2171 69.741 15.3485Z" fill="#FAC415"/>
    <path d="M81.907 25.8102C82.4203 27.2512 83.3339 28.5019 84.5322 29.4042C85.7306 30.3064 87.1599 30.8198 88.6394 30.8792C90.1189 30.9387 91.5822 30.5417 92.8442 29.7383C94.1062 28.935 95.1103 27.7614 95.7295 26.3659C96.3487 24.9705 96.5553 23.4159 96.323 21.8986C96.0907 20.3814 95.43 18.9698 94.4245 17.8421C93.419 16.7145 92.1138 15.9215 90.6739 15.5635C89.2341 15.2055 87.7242 15.2985 86.3353 15.8307C84.473 16.5452 82.9603 17.9978 82.1299 19.8692C81.2995 21.7406 81.2193 23.8776 81.907 25.8102Z" fill="white"/>
    <path d="M72.3333 30.8569C76.4688 30.8569 79.8212 27.3785 79.8212 23.0876C79.8212 18.7968 76.4688 15.3184 72.3333 15.3184C68.1978 15.3184 64.8453 18.7968 64.8453 23.0876C64.8453 27.3785 68.1978 30.8569 72.3333 30.8569Z" fill="white"/>
    <path d="M72.2258 24.4474C72.9902 24.4474 73.6099 23.8044 73.6099 23.0113C73.6099 22.2182 72.9902 21.5752 72.2258 21.5752C71.4614 21.5752 70.8418 22.2182 70.8418 23.0113C70.8418 23.8044 71.4614 24.4474 72.2258 24.4474Z" fill="#EE6946"/>
    <path d="M88.9116 24.4471C89.6757 24.4471 90.2951 23.8044 90.2951 23.0116C90.2951 22.2188 89.6757 21.5762 88.9116 21.5762C88.1476 21.5762 87.5282 22.2188 87.5282 23.0116C87.5282 23.8044 88.1476 24.4471 88.9116 24.4471Z" fill="#00AF87"/>
    <path d="M95.6128 17.971C95.9611 16.7296 96.5152 15.5607 97.2502 14.5166L91.6935 14.5122C88.3705 12.3535 84.5147 11.243 80.5948 11.3155C76.5789 11.2262 72.6246 12.3511 69.2141 14.553L64 14.556C64.7284 15.5921 65.2797 16.7504 65.6298 17.9803C64.339 19.7996 63.7872 22.0716 64.0929 24.3083C64.3985 26.5451 65.5374 28.5683 67.2648 29.9436C68.9922 31.3188 71.1705 31.9365 73.3319 31.6639C75.4933 31.3913 77.4656 30.2502 78.8252 28.4856L80.5972 31.2383L82.3862 28.4624C83.7374 30.2516 85.7139 31.4161 87.887 31.7033C90.0602 31.9906 92.2549 31.3775 93.9953 29.997C95.7357 28.6165 96.8815 26.5799 97.1843 24.3287C97.4871 22.0775 96.9225 19.7932 95.6128 17.971ZM88.6642 14.4881C86.6119 14.55 84.6545 15.3991 83.1706 16.8714C81.6866 18.3436 80.7813 20.3344 80.6299 22.4589C80.4773 20.3145 79.5598 18.3061 78.0565 16.826C76.5532 15.3459 74.5721 14.5004 72.5002 14.4547C75.0646 13.3492 77.8181 12.7937 80.5948 12.8216C83.368 12.778 86.1185 13.3461 88.6642 14.4881ZM72.3334 29.9818C71.0188 29.982 69.7337 29.5776 68.6407 28.8199C67.5476 28.0622 66.6957 26.9852 66.1926 25.7251C65.6895 24.465 65.5579 23.0784 65.8144 21.7407C66.0709 20.4029 66.704 19.1742 67.6336 18.2098C68.5632 17.2454 69.7475 16.5887 71.0369 16.3228C72.3262 16.0568 73.6626 16.1936 74.877 16.7157C76.0914 17.2379 77.1293 18.122 77.8594 19.2562C78.5895 20.3905 78.979 21.7239 78.9787 23.0878C78.9764 24.9156 78.2755 26.6679 77.0297 27.9603C75.7839 29.2527 74.095 29.9797 72.3334 29.9818ZM91.2319 29.5905C89.5781 30.2229 87.75 30.1483 86.1492 29.383C84.5484 28.6178 83.3059 27.2244 82.6947 25.5091V25.5072C82.2399 24.2276 82.161 22.8369 82.4679 21.5108C82.7749 20.1847 83.4539 18.9828 84.4192 18.0571C85.3844 17.1314 86.5926 16.5234 87.8908 16.3101C89.189 16.0968 90.5191 16.2877 91.7128 16.8586C92.9065 17.4295 93.9102 18.3549 94.5971 19.5177C95.2839 20.6805 95.6231 22.0285 95.5716 23.3912C95.5201 24.754 95.0803 26.0703 94.3079 27.1738C93.5354 28.2772 92.465 29.1182 91.2319 29.5905Z" fill="black"/>
    <path d="M72.2307 18.7451C71.417 18.7439 70.6213 18.9931 69.9442 19.4613C69.2671 19.9294 68.7391 20.5954 68.4269 21.375C68.1148 22.1546 68.0325 23.0128 68.1906 23.841C68.3486 24.6691 68.7399 25.43 69.3148 26.0273C69.8898 26.6247 70.6226 27.0316 71.4206 27.1967C72.2185 27.3618 73.0457 27.2775 73.7975 26.9546C74.5493 26.6318 75.1919 26.0848 75.644 25.3828C76.096 24.6809 76.3373 23.8556 76.3371 23.0114C76.3353 21.8814 75.9023 20.7982 75.1327 19.9987C74.3632 19.1992 73.3197 18.7484 72.2307 18.7451ZM72.2307 25.8093C71.6972 25.8104 71.1754 25.6473 70.7314 25.3406C70.2873 25.0339 69.9409 24.5974 69.736 24.0863C69.5311 23.5753 69.4769 23.0126 69.5803 22.4696C69.6837 21.9266 69.9401 21.4277 70.3169 21.0359C70.6937 20.6441 71.174 20.3771 71.6972 20.2686C72.2203 20.1602 72.7627 20.2152 73.2556 20.4267C73.7486 20.6382 74.17 20.9967 74.4666 21.4568C74.7631 21.9169 74.9214 22.4579 74.9215 23.0114C74.9199 23.7519 74.6361 24.4617 74.1319 24.9859C73.6278 25.51 72.9444 25.806 72.2307 25.8093Z" fill="black"/>
    <path d="M88.9116 18.7451C88.0981 18.7447 87.3028 18.9946 86.6262 19.4632C85.9496 19.9318 85.4222 20.5981 85.1106 21.3778C84.799 22.1575 84.7173 23.0156 84.8758 23.8434C85.0343 24.6713 85.4259 25.4318 86.001 26.0287C86.5761 26.6257 87.309 27.0322 88.1068 27.197C88.9046 27.3617 89.7317 27.2773 90.4832 26.9543C91.2348 26.6313 91.8771 26.0842 92.329 25.3824C92.7809 24.6806 93.0221 23.8554 93.0219 23.0114C93.0205 21.8806 92.587 20.7966 91.8166 19.9969C91.0461 19.1971 90.0014 18.747 88.9116 18.7451ZM88.9116 25.8093C88.3783 25.8095 87.857 25.6456 87.4135 25.3384C86.97 25.0311 86.6243 24.5943 86.4201 24.0832C86.2158 23.572 86.1623 23.0096 86.2662 22.4669C86.3701 21.9242 86.6267 21.4256 87.0037 21.0343C87.3807 20.6429 87.8611 20.3764 88.3841 20.2683C88.9071 20.1602 89.4492 20.2155 89.9419 20.4271C90.4346 20.6388 90.8558 20.9973 91.1522 21.4572C91.4485 21.9172 91.6067 22.4581 91.6068 23.0114C91.6059 23.7529 91.3217 24.4638 90.8165 24.9883C90.3113 25.5127 89.6263 25.808 88.9116 25.8093Z" fill="black"/>
    <path d="M182.093 13.5424C182.093 13.8713 182.187 14.1927 182.364 14.4661C182.54 14.7394 182.79 14.9524 183.083 15.0781C183.376 15.2038 183.698 15.2366 184.009 15.1723C184.32 15.108 184.606 14.9496 184.83 14.7169C185.054 14.4843 185.206 14.1879 185.268 13.8653C185.33 13.5428 185.298 13.2084 185.177 12.9045C185.056 12.6007 184.85 12.341 184.587 12.1583C184.323 11.9755 184.013 11.878 183.696 11.8779C183.271 11.8785 182.863 12.0541 182.563 12.3661C182.262 12.6782 182.093 13.1012 182.093 13.5424Z" fill="white"/>
    <path d="M105.954 13.4263L103.526 14.2947V17.5857H100.832V19.7922H103.448V26.8755C103.448 30.2472 104.557 31.6206 107.27 31.6206C107.948 31.6228 108.623 31.5308 109.278 31.3472L109.384 31.3172L109.354 29.0326L109.167 29.1005C108.76 29.2686 108.33 29.3662 107.893 29.3896C106.618 29.3896 106.144 28.6422 106.144 26.6335V19.7922H109.253V17.5857H106.144V13.3584L105.954 13.4263Z" fill="black"/>
    <path d="M114.359 19.8211V17.5866H111.896V31.381H114.591V24.4565C114.591 21.5524 115.765 19.9538 117.896 19.9538C118.225 19.957 118.552 20.0095 118.867 20.1097L119.044 20.1613L119.131 17.4367L117.973 17.3447C117.204 17.3494 116.453 17.5859 115.811 18.0256C115.169 18.4653 114.665 19.0891 114.359 19.8211Z" fill="black"/>
    <path d="M133.597 17.2628C132.706 17.256 131.829 17.4884 131.05 17.9377C130.272 18.3869 129.619 19.0375 129.155 19.8263V17.5859H126.692V36.9998H129.388V29.4725C129.853 30.1472 130.471 30.6933 131.187 31.063C131.903 31.4327 132.695 31.6147 133.495 31.5932C136.903 31.5932 139.105 28.697 139.105 24.2139C139.105 20.0559 136.892 17.2628 133.597 17.2628ZM132.847 29.3352C130.714 29.3352 129.388 27.4451 129.388 24.4012C129.388 21.4701 130.787 19.5759 132.951 19.5759C135.035 19.5759 136.279 21.3698 136.279 24.3757C136.279 27.4352 134.964 29.3352 132.847 29.3352H132.847Z" fill="black"/>
    <path d="M146.98 17.2632C145.455 17.2362 143.945 17.5726 142.565 18.2467L142.482 18.287L142.512 20.6744L142.722 20.5525C143.798 19.8734 145.023 19.4913 146.281 19.4426C148.232 19.4426 149.351 20.6035 149.351 22.6285V22.747H147.81C143.373 22.747 140.93 24.4144 140.93 27.4415C140.93 29.8706 142.692 31.568 145.218 31.568C146.054 31.6004 146.885 31.4182 147.638 31.0375C148.39 30.6568 149.041 30.0895 149.531 29.3857V31.3807H151.97V23.0302C151.97 19.2036 150.292 17.2632 146.98 17.2632ZM149.351 25.5583C149.351 27.9362 147.973 29.4694 145.839 29.4694C145.553 29.4918 145.267 29.4523 144.997 29.3532C144.727 29.2542 144.48 29.0978 144.271 28.8942C144.063 28.6906 143.898 28.4441 143.786 28.1705C143.675 27.8969 143.62 27.6023 143.624 27.3053C143.624 25.6325 145.165 24.7119 147.964 24.7119H149.351V25.5583H149.351Z" fill="white"/>
    <path d="M163.421 11V19.4586C162.961 18.7602 162.339 18.1931 161.612 17.8094C160.885 17.4257 160.077 17.2378 159.262 17.263C155.969 17.263 153.757 20.0782 153.757 24.2672C153.757 28.5816 155.999 31.5934 159.211 31.5934C160.103 31.6165 160.984 31.3895 161.761 30.9362C162.539 30.483 163.184 29.8204 163.629 29.0183V31.3805H166.118V11H163.421H163.421ZM159.912 29.2808C157.858 29.2808 156.581 27.4221 156.581 24.4291C156.581 21.4325 157.868 19.496 159.859 19.496C162.09 19.496 163.421 21.3405 163.421 24.4291C163.421 27.3769 162.043 29.2808 159.912 29.2808Z" fill="white"/>
    <path d="M178.163 17.5859L174.338 25.547L170.807 17.5859H167.768L174.284 31.3804L180.978 17.5859H178.163Z" fill="white"/>
    <path d="M184.906 17.5859H182.352V31.3804H185.049V17.5859H184.906Z" fill="white"/>
    <path d="M188.209 21.1231C188.209 23.0649 189.495 24.0862 191.865 25.2875C193.362 26.0512 194.144 26.4996 194.144 27.5755C194.144 28.676 193.182 29.3904 191.695 29.3904C190.516 29.3586 189.359 29.0507 188.311 28.4896L188.114 28.3903L188.024 30.8205L188.118 30.8602C189.224 31.3122 190.403 31.5432 191.591 31.5413C194.888 31.5413 197.02 29.9112 197.02 27.3872C197.02 25.2817 195.669 24.2161 193.335 23.0841C191.622 22.2526 190.906 21.7628 190.906 20.8806C190.906 20.0388 191.703 19.4964 192.938 19.4964C194.056 19.4976 195.16 19.7593 196.168 20.2621L196.36 20.3575L196.483 17.9751L196.374 17.9406C195.31 17.607 194.205 17.4333 193.094 17.4248C190.172 17.4248 188.209 18.9103 188.209 21.1231Z" fill="white"/>
    <path d="M205.427 17.2627C201.376 17.2627 198.859 20.0292 198.859 24.4828C198.859 28.9364 201.376 31.7033 205.427 31.7033C209.496 31.7033 212.024 28.9363 212.024 24.4828C212.024 20.0293 209.496 17.2627 205.427 17.2627ZM205.453 29.4167C203.216 29.4167 201.71 27.4217 201.71 24.4557C201.71 21.4739 203.216 19.4692 205.453 19.4692C207.729 19.4692 209.199 21.4251 209.199 24.4557C209.199 27.469 207.729 29.4167 205.453 29.4167Z" fill="white"/>
    <path d="M216.998 19.8211V17.5866H214.536V31.381H217.231V24.4565C217.231 21.5524 218.406 19.9538 220.535 19.9538C220.864 19.9567 221.191 20.0092 221.506 20.1097L221.683 20.1613L221.771 17.4367L220.613 17.3447C219.843 17.3495 219.092 17.5861 218.451 18.0258C217.809 18.4654 217.304 19.0892 216.998 19.8211Z" fill="white"/>
    <path d="M123.936 17.5859H121.381V31.3804H124.078V17.5859H123.936H123.936Z" fill="black"/>
    <path d="M121.121 13.5424C121.121 13.8714 121.215 14.193 121.392 14.4665C121.568 14.74 121.818 14.9531 122.111 15.079C122.404 15.2048 122.727 15.2377 123.038 15.1734C123.349 15.1091 123.634 14.9506 123.859 14.718C124.083 14.4853 124.236 14.1888 124.297 13.8661C124.359 13.5434 124.327 13.2089 124.206 12.905C124.085 12.601 123.879 12.3412 123.616 12.1584C123.352 11.9756 123.042 11.878 122.725 11.8779C122.3 11.8786 121.892 12.0542 121.591 12.3662C121.291 12.6783 121.122 13.1012 121.121 13.5424Z" fill="black"/>
  </g>
  <defs>
    <clipPath id="clip0">
      <rect width="165" height="26" fill="white" transform="translate(64 11)"/>
    </clipPath>
  </defs>
</svg>
