<svg width="125" height="61" viewBox="0 0 125 61" fill="none" xmlns="http://www.w3.org/2000/svg">
<path d="M115.808 21.7975C114.166 20.8215 114.002 22.2855 107.19 17.2428C100.378 12.2002 93.7294 12.9322 83.7163 13.9082C73.7032 14.8842 64.1825 11.6308 57.3703 7.80815C50.5581 3.98549 35.128 3.33482 22.8168 7.80815C10.5876 12.2815 5.17067 24.3188 4.34992 30.9068C0.738624 59.6175 37.2619 57.9095 45.3053 56.5268C53.2665 55.2255 85.5219 54.4121 95.2068 54.2495C104.974 54.0868 110.965 54.0055 117.613 45.4655C124.261 36.9255 117.531 22.8548 115.808 21.7975Z" fill="#E84437"/>
<path d="M101.28 34.0788C101.691 32.9401 97.2586 25.3761 102.101 24.4814C104.071 24.1561 110.144 25.6201 112.114 27.0028C119.008 31.6388 116.464 45.2214 106.697 46.7667C97.0944 48.3934 98.5718 41.4801 101.28 34.0788Z" fill="#CD3D2E"/>
<path d="M28.1514 9.02756C26.0174 9.5969 16.0864 13.1756 10.5053 20.6582C4.92418 28.0596 7.87888 36.9249 9.4383 37.7382C10.9977 38.5516 6.23738 52.3782 25.6891 52.5409C35.0456 52.6222 39.1494 41.6422 39.3135 30.6622C39.4777 18.8689 35.2098 7.07556 28.1514 9.02756Z" fill="#CD3D2E"/>
<path d="M40.5452 11.0614C41.9404 14.2334 42.9253 17.5681 43.5819 20.9841C45.0593 28.5481 47.6036 30.0121 50.0658 30.1747C53.5951 30.5001 64.511 19.5201 60.9818 13.8267C58.4375 9.67873 48.6706 7.23873 42.8433 6.75073C40.8735 6.58806 39.4782 8.54006 40.2989 10.3294L40.5452 11.0614Z" fill="#CD3D2E"/>
<path d="M71.8152 19.2755C75.0161 15.6968 84.7831 16.6728 91.1028 18.7875C97.4226 20.9021 95.0424 47.9861 79.6123 50.9141C64.1823 53.9235 59.9144 32.5328 71.8152 19.2755Z" fill="#CD3D2E"/>
<path d="M39.8884 24.4004C39.8884 24.4004 39.8064 25.9457 39.3139 27.6537C39.3139 27.8977 39.3139 28.2231 39.3139 28.4671C40.463 24.7257 39.8884 24.4004 39.8884 24.4004ZM21.9961 52.3791C20.9291 53.0297 19.9443 53.4364 19.1235 53.6804C18.549 53.8431 18.0565 53.9244 17.5641 54.0057C18.0565 54.1684 20.1905 54.5751 22.8169 54.7377C24.9508 54.0871 27.0027 52.7857 27.0027 52.7857C26.0999 53.0297 25.3612 53.1924 24.8687 53.1924C24.2942 53.1924 23.9659 53.0297 24.048 52.7044V52.6231C23.2272 52.4604 22.5706 52.4604 21.9961 52.3791Z" fill="#EC6653"/>
<path d="M39.2316 27.7344C38.9854 28.5477 38.7392 29.4424 38.3288 30.2557C38.1646 30.4997 38.0826 30.825 37.9184 31.1504C38.0826 31.1504 38.2467 31.1504 38.4109 31.1504C38.4929 30.9064 38.575 30.6624 38.6571 30.4184C38.9033 29.7677 39.0675 29.117 39.2316 28.629C39.3137 28.2224 39.2316 27.9784 39.2316 27.7344ZM37.426 33.753C37.0977 33.753 36.7694 33.753 36.4411 33.8344C35.6203 35.3797 35.0458 36.7624 35.0458 37.4944C35.0458 38.2264 34.6354 38.633 33.9788 39.2024C33.9788 40.829 33.4864 41.7237 32.4194 41.7237H32.3373C32.009 41.7237 31.7628 41.6424 31.5166 41.4797C30.2034 43.1064 29.793 44.8144 27.9873 47.2544C26.5921 49.0437 24.1298 51.077 21.9138 52.3784C22.5704 52.4597 23.227 52.541 23.8836 52.541C24.0477 52.053 25.1147 51.9717 25.6892 51.565C26.1817 51.1584 28.5619 47.2544 30.6137 46.441C32.0911 45.8717 31.3524 44.4077 33.076 44.001C34.7996 43.5944 34.7996 41.317 35.0458 40.6664C35.292 40.0157 37.0156 39.609 36.7694 38.4704C36.6052 37.657 36.6052 36.5184 37.426 33.6717C37.508 33.753 37.508 33.753 37.426 33.753Z" fill="#E55C44"/>
<path d="M9.8487 39.9346C9.76663 40.1786 9.76663 40.4226 9.76663 40.6666C9.68455 42.6186 9.5204 44.0012 10.4232 45.1399C10.6694 45.4652 10.9157 45.8719 11.1619 46.1972C10.0949 43.9199 9.93078 41.6426 9.8487 39.9346ZM11.5723 46.8479C11.7364 47.1732 11.8185 47.3359 11.9826 47.4172C11.8185 47.2546 11.6543 47.0106 11.5723 46.8479Z" fill="#EC6653"/>
<path d="M16.5791 28.792C16.497 28.792 16.415 28.792 16.3329 28.792L15.4301 29.6053C15.4301 29.6053 15.5121 29.6053 15.5942 29.6053C15.7584 29.6053 16.0867 29.6053 16.0046 29.9307C15.9225 30.3373 15.0197 31.6387 15.0197 32.1267C15.0197 32.452 14.8555 33.0213 14.3631 33.7533C14.0348 34.16 13.7065 34.648 13.132 35.0547C11.8188 36.112 10.2594 38.1453 9.93106 39.9347C10.0131 41.5613 10.1773 43.92 11.2443 46.116C11.4084 46.36 11.4905 46.604 11.5726 46.7667C11.6546 46.9293 11.8188 47.1733 11.9829 47.336L12.065 47.4173C12.065 47.4173 12.065 47.4173 12.1471 47.4173C12.4754 47.2547 12.1471 46.5227 13.0499 46.1973C13.0499 46.1973 12.1471 46.0347 12.2292 45.0587C12.3112 44.0827 12.1471 43.2693 11.6546 42.8627C11.0801 42.456 10.4235 40.992 11.4905 38.552C12.5575 36.112 13.7065 35.38 14.1169 34.648C14.5273 33.916 15.1018 33.1027 15.2659 32.2893C15.4301 31.5573 16.0046 30.5 16.1687 30.5C16.1687 30.5 16.1687 30.5 16.2508 30.5C16.3329 30.744 16.0867 31.6387 16.3329 32.0453C16.3329 32.0453 16.415 30.8253 16.8253 30.012C17.1536 29.28 17.3999 28.792 16.5791 28.792Z" fill="#E55C44"/>
<path d="M99.803 46.522C99.5567 46.522 99.3105 46.6034 99.0643 46.6847C98.9822 46.6847 98.9001 46.6847 98.8181 46.6847C98.5718 46.6847 98.4898 46.522 98.4898 46.522C98.4077 47.0914 98.736 46.9287 99.2284 47.0914C99.3926 47.1727 99.5567 47.1727 99.6388 47.1727C99.803 47.1727 99.885 47.0914 99.885 47.0914C99.885 47.0914 100.542 47.5794 100.87 48.1487C101.198 48.718 101.527 48.3114 101.691 48.5554C101.855 48.7994 101.444 49.1247 100.87 49.6127C100.46 50.0194 99.9671 50.3447 99.9671 50.3447C99.9671 50.3447 100.049 50.3447 100.213 50.2634C100.377 50.182 100.542 50.182 100.624 50.182C100.952 50.182 101.116 50.5074 101.691 50.7514C101.855 50.8327 102.019 50.914 102.183 50.914C102.676 50.914 103.004 50.5887 103.66 50.2634C104.481 49.938 104.481 49.7754 104.727 49.3687C104.974 49.0434 105.056 48.8807 104.727 48.8807C104.399 48.8807 104.399 48.5554 104.071 48.5554C103.989 48.5554 103.989 48.5554 103.907 48.5554C103.825 48.5554 103.743 48.5554 103.66 48.5554C103.578 48.5554 103.414 48.5554 103.332 48.474C103.25 48.474 103.086 48.3927 103.004 48.3927C102.922 48.3927 102.84 48.3927 102.676 48.3927C102.593 48.3927 102.429 48.3927 102.347 48.3927C102.019 48.3927 101.855 48.23 101.855 48.0674C101.855 47.986 101.773 47.6607 101.527 47.6607C101.444 47.6607 101.444 47.6607 101.362 47.6607H101.28C100.87 47.6607 100.377 46.766 100.131 46.3594C100.131 46.522 99.9671 46.522 99.803 46.522Z" fill="#EC6653"/>
<path d="M69.7638 54.9814C63.6082 55.2254 57.5347 55.4695 52.7743 55.7948C57.5347 55.4695 63.6082 55.2254 69.7638 54.9814Z" fill="white"/>
<path d="M62.9516 38.4707C62.9516 38.4707 62.8695 39.772 63.1978 40.8294C63.362 41.3174 63.7723 41.724 64.0186 42.0494C64.2648 42.3747 64.7572 42.7814 65.0855 44.3267C65.1676 44.652 65.0035 45.0587 65.0035 45.4654H65.8242C65.9063 43.92 65.578 42.8627 64.7572 41.724C64.4289 41.1547 64.1006 40.992 63.8544 40.5854C63.1157 39.4467 62.9516 38.4707 62.9516 38.4707ZM64.7572 49.2067C64.0186 50.5894 62.3771 49.8574 61.5563 51.484C60.4073 53.7614 51.8715 55.876 51.8715 55.876H52.8564C57.6167 55.5507 63.6903 55.2254 69.8459 55.0627C66.8912 54.656 64.2648 53.5174 64.9214 50.996C65.0035 50.5894 65.0855 50.264 65.1676 49.9387H64.8393V49.2067H64.7572Z" fill="#EC6653"/>
<path d="M61.8843 40.5848C59.5862 38.7955 50.9684 34.1595 44.1561 41.7235C37.3439 49.3688 32.8298 53.7608 39.9703 54.7368C47.1108 55.7941 71.0767 47.6608 61.8843 40.5848Z" fill="#CD3D2E"/>
<path d="M81.5822 15.4531C81.5822 15.4531 81.5822 15.5345 81.6642 15.6158C81.5822 15.5345 81.5822 15.5345 81.5822 15.4531ZM81.6642 15.6158C81.7463 15.7785 81.5822 15.9411 81.5001 16.0225L81.418 16.1038C81.1718 16.1851 80.0228 16.6731 79.1199 16.6731C78.9558 16.6731 78.7916 16.6731 78.6275 16.5918C77.9709 16.4291 77.3143 16.1851 76.8218 16.1851C76.5756 16.1851 76.3294 16.2665 76.1652 16.4291C75.8369 16.8358 75.1803 17.0798 74.6058 17.0798C74.4417 17.0798 74.2775 17.0798 74.1134 16.9985C73.8671 16.9171 73.5388 16.8358 73.2105 16.8358C72.636 16.8358 71.8153 16.9985 70.5841 17.3238C69.7634 17.5678 69.0247 17.6491 68.4502 17.6491C67.4653 17.6491 66.7266 17.4865 66.2342 17.2425C65.9059 17.1611 65.6597 17.0798 65.4955 17.0798C65.3314 17.3238 65.1672 17.5678 65.0031 17.8118C65.3314 17.7305 65.5776 17.7305 65.8238 17.7305C66.5625 17.7305 67.137 17.9745 67.7115 18.1371C67.9577 18.2185 68.204 18.2185 68.286 18.2185C68.3681 18.2185 68.3681 18.2185 68.4502 18.2185H68.5323C68.6964 18.2185 68.8606 18.2185 69.1889 18.5438C69.353 18.7065 69.5992 18.7878 69.7634 18.8691H69.8455C70.0096 18.8691 70.1738 18.7065 70.0917 18.5438C70.0917 18.4625 70.0917 18.3811 70.0917 18.2998C70.0917 18.1371 70.2558 18.1371 70.3379 18.0558C70.5021 17.9745 70.5021 17.8931 70.5021 17.7305V17.6491C70.5841 17.4051 71.4049 17.3238 72.1436 17.3238C72.3898 17.3238 72.636 17.3238 72.8002 17.4051C73.2926 17.4865 73.703 17.6491 74.0313 17.8118C74.2775 17.7305 74.6058 17.6491 74.9341 17.5678L75.0162 17.4865C75.3445 17.3238 75.7549 17.1611 76.0011 16.9985C76.3294 16.8358 76.5756 16.7545 76.9039 16.7545C77.4784 16.7545 77.8888 16.9985 78.053 17.0798C78.053 17.0798 78.135 17.0798 78.2171 17.1611C78.7096 17.1611 79.1199 17.1611 79.6124 17.1611C79.7765 17.1611 79.8586 17.1611 80.0228 17.1611C80.0228 17.0798 80.1048 16.9985 80.1869 16.9171C80.5973 16.7545 81.0077 16.5918 81.5001 16.5105C81.7463 16.4291 81.7463 16.1038 81.5822 16.0225C81.7463 15.6971 81.6642 15.6158 81.6642 15.6158Z" fill="#EC6653"/>
<path d="M79.8588 16.9173C79.3664 16.9173 78.956 16.9173 78.4635 16.9173C78.7918 17.0799 79.5305 17.4866 80.2692 17.4866C80.4333 17.4866 80.5154 17.4866 80.6796 17.4053C81.0079 17.3239 81.2541 17.3239 81.5003 17.3239C82.0748 17.3239 82.4852 17.4866 82.4852 17.4866C82.4031 17.3239 81.7465 17.1613 81.0899 17.1613C80.9258 17.1613 80.7616 17.1613 80.5975 17.1613C80.5975 17.1613 80.5975 17.1613 80.5154 17.1613C80.3513 17.1613 80.2692 16.9986 80.2692 16.8359C80.105 16.9173 79.9409 16.9173 79.8588 16.9173ZM75.1805 17.4866C74.8522 17.5679 74.606 17.6493 74.2777 17.7306C75.0164 18.0559 75.1805 18.5439 75.2626 18.7879C75.2626 18.9506 75.4268 19.0319 75.5088 19.0319C75.5909 19.0319 75.673 19.0319 75.7551 19.0319C76.6579 19.0319 76.822 19.2759 76.822 19.2759C76.822 19.2759 76.822 19.2759 76.9041 19.2759C76.9862 19.2759 77.1503 19.2759 77.4786 19.1133C77.5607 19.0319 77.7249 19.0319 77.8069 19.0319C78.0532 19.0319 78.1352 19.1946 78.2173 19.3573C78.2173 19.4386 78.3815 19.6013 78.4635 19.6013C78.4635 19.6013 78.4635 19.6013 78.5456 19.6013C78.6277 19.6013 78.6277 19.6013 78.7098 19.6013C78.956 19.6013 79.2843 19.6826 79.4484 19.7639H79.5305H79.6126C80.3513 19.4386 81.2541 19.3573 81.2541 19.3573C81.172 19.3573 81.0899 19.3573 80.9258 19.3573C80.4333 19.3573 79.7767 19.5199 79.4484 19.6013C79.3664 19.6013 79.3664 19.6013 79.2843 19.6013C79.0381 19.6013 78.8739 19.5199 78.7098 19.4386C78.6277 19.4386 78.6277 19.3573 78.6277 19.2759C78.6277 19.1946 78.4635 19.0319 78.3815 18.8693C78.2994 18.7879 78.2173 18.7879 78.1352 18.7879C78.1352 18.7879 78.1352 18.7879 78.0532 18.7879C77.9711 18.7066 77.8069 18.7066 77.6428 18.7066C77.2324 18.7066 76.9862 18.6253 76.6579 18.5439C76.4937 18.4626 76.3296 18.4626 76.1654 18.4626C76.0834 18.4626 75.9192 18.4626 75.9192 18.4626C75.9192 18.4626 75.9192 18.4626 75.8371 18.4626C75.7551 18.4626 75.673 18.3813 75.5909 18.2999V18.2186C75.5088 18.0559 75.4268 17.8933 75.2626 17.7306C75.0985 17.7306 75.0985 17.5679 75.1805 17.4866Z" fill="#E55C44"/>
<path d="M68.2045 24.4814C66.3988 24.8881 64.9215 26.6774 64.9215 28.2228C64.9215 28.3854 64.9215 28.6294 64.9215 28.7921C64.9215 29.1174 64.9215 29.4428 64.9215 29.7681C65.0036 31.5574 65.0036 32.6148 65.0856 34.2414C65.4139 30.9881 66.3988 27.6534 68.2045 24.4814Z" fill="#7A1713"/>
<path d="M68.8609 24.4004C68.6147 24.4004 68.3684 24.4004 68.2043 24.4817C66.4807 27.6537 65.4958 31.0697 65.0855 34.2417C65.0855 34.9737 65.1675 35.7871 65.1675 36.7631C65.2496 38.5524 65.9062 40.5044 68.1222 40.6671C69.7637 40.7484 71.4052 40.9111 72.9646 40.9924C73.2109 40.9924 73.375 40.9924 73.5392 40.9924C75.0165 40.9924 75.7552 40.5857 75.8372 39.6911C75.7552 38.6337 74.7703 38.7151 72.8826 38.6337C71.7335 38.5524 70.1741 38.3897 69.3533 37.5764C68.8609 37.1697 68.6967 36.4377 68.6967 35.7871C68.6147 35.1364 68.8609 34.4857 69.1892 34.1604C69.6816 33.6724 70.5024 33.5911 71.3231 33.5911C71.5694 33.5911 71.8156 33.5911 72.0618 33.5911C72.8005 33.6724 73.4571 33.7537 73.9495 33.7537C74.6061 33.7537 74.9344 33.5911 75.0165 33.1031C74.9344 31.9644 73.9495 31.3951 71.9797 31.2324C69.9279 31.0697 68.6967 30.6631 68.1222 30.1751C67.7939 29.9311 67.7118 29.6871 67.7118 29.4431C67.7118 29.3617 67.7118 29.2804 67.7118 29.2804V29.1991V29.1177C67.7118 28.0604 68.4505 27.7351 69.8458 27.7351C70.5024 27.7351 71.3231 27.8164 72.308 27.8977C72.5543 27.8977 72.7184 27.8977 72.9646 27.8977C74.3599 27.8977 75.1806 27.4911 75.2627 26.5964C75.1806 25.4577 74.1958 24.8071 72.226 24.7257C70.6665 24.6444 70.5845 24.6444 69.025 24.4817C69.025 24.4004 68.943 24.4004 68.8609 24.4004Z" fill="#6D150F"/>
<path d="M94.386 27.2461C94.386 27.9781 94.386 28.7101 94.304 29.5234H94.386C96.52 29.5234 98.8181 31.8821 99.1464 34.4848C99.4747 37.1688 98.6539 39.6088 95.5351 40.0968C95.2889 40.1781 94.9606 40.1781 94.7143 40.1781C93.6474 40.1781 92.7445 39.7714 92.0879 39.2021C91.7596 40.0154 91.4313 40.7474 91.021 41.4794C92.2521 42.2928 93.6474 42.7808 95.2889 42.7808H95.3709C97.0124 42.7808 98.4077 42.1301 99.3105 41.1541C99.5568 39.1208 100.295 36.7621 101.198 34.3221C101.116 33.9968 101.116 33.5901 101.034 33.2648C100.952 32.8581 100.87 32.4514 100.706 32.1261C99.7209 29.1981 97.5049 27.3274 94.386 27.2461Z" fill="#7A1713"/>
<path d="M101.198 34.3223C100.295 36.7623 99.5567 39.1209 99.3105 41.1543C100.624 39.8529 101.28 37.8196 101.28 35.5423C101.28 35.2983 101.28 34.9729 101.198 34.7289C101.28 34.5663 101.198 34.4849 101.198 34.3223Z" fill="#6D150F"/>
<path d="M94.058 27.2461H93.9759C91.2675 27.2461 89.2977 28.7914 88.3128 30.9874C88.1486 31.3128 88.0665 31.6381 87.9024 32.0448C87.6562 32.7768 87.5741 33.5901 87.5741 34.4848C87.5741 34.7288 87.5741 34.8914 87.5741 35.1354C87.8203 37.9008 89.1335 40.1781 91.0212 41.4794C91.4316 40.7474 91.7599 39.9341 92.0882 39.2021C91.0212 38.3074 90.4467 36.9248 90.2826 35.4608C89.9543 32.7768 92.1703 29.5234 94.3042 29.5234C94.3863 28.7101 94.3863 27.9781 94.3863 27.2461C94.2221 27.2461 94.1401 27.2461 94.058 27.2461Z" fill="#6D150F"/>
<path d="M100.87 24.8877C99.4748 24.8877 98.7362 25.2944 98.6541 26.189C98.7362 26.921 99.1465 27.409 99.8852 27.7344C99.8031 26.5144 100.049 25.457 100.952 24.8877H100.87ZM107.518 25.1317C108.421 25.3757 109.324 25.6197 110.145 25.945C109.734 25.457 108.913 25.213 107.764 25.1317C107.682 25.213 107.6 25.1317 107.518 25.1317Z" fill="#7A1713"/>
<path d="M100.952 24.888C100.049 25.4573 99.8032 26.5146 99.8853 27.7346C100.296 27.8973 100.788 27.9786 101.445 27.9786C101.937 27.9786 102.101 28.1413 102.594 28.2226C103.25 28.3853 103.415 29.6053 103.415 31.232C103.415 31.5573 103.415 31.964 103.415 32.3706C103.415 32.696 103.415 33.1026 103.332 33.5093C103.25 35.136 103.168 37.088 103.168 39.04C103.168 39.1213 103.168 39.284 103.168 39.3653C103.168 40.26 103.743 40.6666 104.399 40.6666C105.22 40.6666 106.041 40.0973 106.123 39.04C106.205 38.1453 106.205 36.9253 106.205 35.624C106.205 35.4613 106.205 35.38 106.205 35.2173C106.205 35.136 106.205 34.9733 106.205 34.892V33.7533V32.6146V32.2893C106.205 31.6386 106.205 31.0693 106.205 30.5813C106.205 29.8493 106.205 29.1986 106.205 28.7106C106.205 28.2226 106.615 28.06 107.026 28.06C107.436 28.06 107.847 28.1413 108.093 28.1413C108.175 28.1413 108.339 28.1413 108.421 28.1413C109.816 28.1413 110.555 27.7346 110.637 26.84C110.637 26.4333 110.473 26.108 110.227 25.864C109.406 25.5386 108.503 25.2946 107.6 25.0506C105.466 24.9693 103.332 24.888 101.281 24.8066C101.116 24.888 101.034 24.888 100.952 24.888Z" fill="#6D150F"/>
<path d="M23.5556 23.4238C22.6528 23.4238 21.832 23.8305 21.1754 24.7252C21.0113 24.9692 20.8471 25.2132 20.683 25.4572C20.683 25.5385 20.6009 25.5385 20.6009 25.6198L20.0264 26.6772L19.2877 27.9785C19.1235 28.4665 18.7132 28.9545 18.549 29.4425L14.2811 37.2505C14.117 37.5758 14.0349 37.6572 13.8708 38.3892C13.9528 39.1212 14.6094 40.0972 15.4302 40.1785C15.5122 40.1785 15.5943 40.1785 15.6764 40.1785C16.4971 40.1785 17.0717 39.6092 17.5641 38.6332C17.8103 38.0638 17.8103 37.0878 18.3849 37.0065C18.8773 36.9252 19.3698 36.9252 19.7801 36.9252C21.4216 36.9252 23.1452 37.2505 24.7046 37.8198C24.9509 37.9012 25.0329 38.2265 24.9509 38.6332C24.9509 38.8772 24.9509 39.2025 24.9509 39.4465C25.115 40.8292 25.6895 41.4798 26.6744 41.6425C26.7565 41.6425 26.8386 41.6425 26.8386 41.6425C27.8235 41.6425 28.7263 40.7478 28.8905 40.0158C28.8905 39.8532 28.8905 39.7718 28.9725 39.6905C28.9725 39.5278 28.8905 39.3652 28.8905 39.1212C28.0697 34.8105 27.249 30.4998 26.4282 26.1892V26.1078C26.3461 25.7825 26.2641 25.5385 26.182 25.2945C25.7716 24.3185 25.0329 23.6678 23.8839 23.5052C23.8018 23.4238 23.7197 23.4238 23.5556 23.4238ZM22.6528 34.3225C21.4216 34.3225 19.9443 33.8345 20.1905 33.1025C20.1084 32.9398 20.1084 32.8585 20.1905 32.6958C21.3396 30.2558 21.9962 27.3278 22.9811 27.3278C23.0631 27.3278 23.0631 27.3278 23.1452 27.3278C23.8839 27.5718 24.2943 28.8732 24.2943 30.9878C24.2943 31.7198 24.2943 32.5332 24.2122 33.5092C24.2122 34.0785 23.4735 34.3225 22.6528 34.3225Z" fill="#6D150F"/>
<path d="M42.1042 21.5527C40.791 21.5527 40.1344 22.0407 40.0524 22.9354C40.1344 24.0741 40.9552 24.2367 42.6788 24.6434C44.1561 24.9687 45.2231 24.9687 45.3052 26.8394V26.9207C45.3052 27.2461 45.3872 27.4901 45.3872 27.8154C45.5514 30.6621 45.7155 33.7527 45.7155 34.9727C45.7155 36.9247 46.6184 38.3074 48.0136 38.4701C48.0957 38.4701 48.0957 38.4701 48.1778 38.4701C48.3419 38.3887 48.5881 38.3074 48.7523 38.2261C48.9164 38.0634 48.9164 37.8194 48.9164 37.4941C48.9164 36.8434 48.7523 36.0301 48.7523 35.2167C48.6702 32.7767 48.6702 31.3941 48.5881 29.7674C46.7004 29.1167 44.8948 27.1647 43.6637 21.6341C43.3354 21.6341 43.0891 21.5527 42.7608 21.5527C42.5967 21.6341 42.3505 21.5527 42.1042 21.5527Z" fill="#7A1713"/>
<path d="M43.8281 21.7158C45.0592 27.2465 46.8648 29.1985 48.7526 29.8491C48.7526 29.2798 48.6705 28.7918 48.5884 28.1411C48.5884 27.8158 48.5063 27.5718 48.5063 27.2465C48.5063 27.0025 48.4243 26.7585 48.4243 26.4332C48.4243 26.3518 48.4243 26.2705 48.4243 26.1892C48.4243 26.1078 48.4243 26.1078 48.4243 26.0265C48.3422 25.4572 48.9167 25.2945 49.4912 25.2945C49.9837 25.2945 50.4761 25.3758 50.7224 25.3758C51.2969 25.4572 51.7893 25.4572 52.1176 25.4572C52.9384 25.4572 53.1846 25.2132 53.2667 24.5625C53.1846 23.3425 52.1997 22.5292 50.2299 22.3665C48.096 22.2852 45.962 22.0412 43.8281 21.7158Z" fill="#6D150F"/>
<path d="M48.8343 38.3076C48.6701 38.389 48.4239 38.4703 48.2598 38.5516C48.506 38.633 48.7522 38.4703 48.8343 38.3076Z" fill="#6D150F"/>
<path d="M54.4976 27.9785C53.3485 28.9545 52.1995 29.6052 51.2967 29.9305C51.4608 33.0212 51.8712 34.8918 52.1174 37.4945C52.4457 37.4945 52.774 37.4945 53.1023 37.4945C55.0721 37.4945 56.8778 37.9825 58.3551 38.5518C58.9296 38.5518 59.5041 38.5518 59.9966 38.4705C62.623 38.1452 63.9362 36.5998 64.0183 34.7292C63.9362 32.7772 62.5409 30.5812 59.9966 29.1985C59.34 28.8732 58.6834 28.5478 57.9447 28.3852C56.6315 28.1412 55.5646 28.1412 54.4976 27.9785ZM56.8778 36.3558C55.8108 36.3558 54.99 36.1932 54.908 36.0305C54.6617 35.0545 54.4976 34.0785 54.4976 33.3465C54.4155 31.8012 54.99 30.8252 56.6315 30.8252C56.7957 30.8252 57.0419 30.8252 57.2061 30.8252C59.1758 31.0692 60.0787 32.5332 60.1608 34.0785C60.1608 34.1598 60.1608 34.2412 60.1608 34.3225V34.4038C60.3249 35.9492 58.4372 36.3558 56.8778 36.3558Z" fill="#7A1713"/>
<path d="M53.1023 27.8975C52.2816 27.8975 51.7892 28.0601 51.5429 28.4668C51.2967 28.7921 51.2146 29.1988 51.2146 29.6868C51.2146 29.7681 51.2146 29.7681 51.2146 29.8495V29.9308C52.1175 29.6055 53.2665 28.8735 54.4155 27.9788C54.2514 27.9788 54.0872 27.9788 53.9231 27.8975C53.6769 27.8975 53.3486 27.8975 53.1023 27.8975Z" fill="#6D150F"/>
<path d="M53.0204 37.5762C52.6921 37.5762 52.3638 37.5762 52.0355 37.5762C52.1175 38.2268 52.1175 38.8775 52.1996 39.5282C52.2817 41.3175 52.61 42.7002 54.0053 42.9442C54.0873 42.9442 54.2515 42.9442 54.3336 42.9442C55.1543 42.9442 55.4005 42.3748 55.4005 41.3988C55.4005 41.2362 55.4005 40.9922 55.4005 40.7482C55.4005 40.6668 55.4005 40.5855 55.4005 40.5042C55.4005 40.4228 55.4005 40.4228 55.4005 40.3415C55.3184 38.6335 56.7137 38.5522 58.2731 38.5522C56.7137 37.9828 54.9081 37.5762 53.0204 37.5762Z" fill="#6D150F"/>
<path d="M77.9715 23.749C76.9046 23.749 76.4942 24.3997 76.4942 25.7824C76.4942 25.8637 76.4942 25.8637 76.4942 25.945C76.5763 27.409 76.5763 28.7104 76.6583 29.9304C76.6583 30.2557 76.6583 30.581 76.6583 30.9064C76.7404 32.6144 76.7404 34.3224 76.8225 36.2744C76.9046 37.9824 77.397 39.609 78.6281 39.6904C78.7102 39.6904 78.7102 39.6904 78.7923 39.6904C79.4489 39.6904 79.613 39.4464 79.6951 38.9584C79.6951 38.633 79.613 38.2264 79.613 37.7384C79.613 36.925 79.3668 35.949 79.3668 35.3797C79.3668 34.8104 79.4489 34.3224 79.9413 34.3224C80.0234 34.3224 80.1876 34.3224 80.3517 34.4037C83.0602 35.1357 82.2394 39.0397 84.2092 41.1544C84.9479 41.9677 85.4403 42.4557 86.2611 42.537C86.2611 42.537 86.2611 42.537 86.3432 42.537C87.0818 42.537 87.8205 41.9677 87.9026 41.1544C87.8205 40.6664 87.4922 40.097 86.9177 39.4464C85.1941 37.5757 84.0451 35.8677 83.7168 33.509C83.7168 33.3464 83.7168 33.265 83.7168 33.1024C83.6347 32.533 83.8809 32.1264 84.2092 31.7197C84.4554 31.3944 84.8658 31.069 85.2762 30.7437C86.0969 30.1744 87.0818 29.6864 87.6564 29.0357C88.1488 28.5477 88.4771 28.0597 88.4771 27.4904C88.395 26.5957 87.5743 25.8637 86.7535 25.8637C86.7535 25.8637 86.7535 25.8637 86.6715 25.8637C86.0149 25.8637 85.5224 26.2704 84.8658 27.0837C83.963 28.0597 83.3885 29.4424 82.5677 30.4997C82.3215 30.825 82.0753 31.1504 81.747 31.4757C81.3366 31.8824 80.8442 32.1264 80.2696 32.289C80.1876 32.289 80.1875 32.289 80.1055 32.289C79.6951 32.289 79.4489 31.8824 79.3668 31.2317C79.2847 30.9064 79.2847 30.581 79.2847 30.1744C79.2847 29.7677 79.2847 29.2797 79.2847 28.873C79.2847 28.4664 79.2847 28.0597 79.2847 27.7344C79.2847 27.653 79.2847 27.5717 79.2847 27.4904C79.2027 25.7824 79.3668 23.9117 78.1357 23.8304C77.9715 23.749 77.9715 23.749 77.9715 23.749Z" fill="#6D150F"/>
<path d="M41.53 26.3516C41.2017 26.3516 40.9555 26.4329 40.7092 26.5956C40.463 26.7582 40.2989 27.0022 40.2168 27.4089C40.1347 27.8156 40.0526 28.2222 40.0526 28.7916C40.0526 29.1982 40.0526 29.5236 40.0526 29.7676C40.0526 30.5809 40.0526 30.9876 39.396 31.0689C39.396 32.1262 39.314 33.1022 39.2319 34.1596C39.314 34.1596 39.314 34.2409 39.396 34.2409C40.2168 34.6476 40.2989 36.1116 40.2989 37.4942C40.2989 37.9822 40.2989 38.5516 40.2989 38.9582V39.0396C40.3809 40.9916 40.9555 41.9676 42.0224 41.9676H42.1045C43.1715 41.9676 43.6639 41.1542 43.6639 39.5276C43.5818 35.2982 43.4998 33.4276 43.4177 29.2796C43.4177 28.6289 43.3356 28.1409 43.1715 27.6529C43.0894 27.2462 42.9252 26.9209 42.679 26.7582C42.3507 26.4329 42.0224 26.3516 41.53 26.3516Z" fill="#7A1713"/>
<path d="M31.845 23.668C30.9422 23.668 30.4498 24.3186 30.2856 25.62C30.2856 25.7826 30.2856 25.9453 30.2856 26.108C30.2856 26.1893 30.2856 26.2706 30.2856 26.352C30.3677 30.5 30.5318 34.5666 30.6139 38.7146C30.6139 40.0973 30.9422 40.992 31.5988 41.3987C31.763 41.236 31.9271 40.992 32.0913 40.8293C32.8299 40.016 33.4865 39.528 33.979 39.2026C33.979 38.3893 33.8148 37.2506 33.8148 36.356C33.8148 35.38 33.8969 34.4853 34.5535 34.3226C35.2922 34.0786 35.9488 33.916 36.4412 33.8346C36.9337 32.94 37.4261 31.964 37.9186 31.0693C37.1799 31.0693 36.2771 30.988 34.5535 30.9066C33.7328 30.9066 33.6507 29.6053 33.6507 28.304C33.6507 27.7346 33.6507 27.1653 33.6507 26.6773C33.6507 26.596 33.6507 26.596 33.6507 26.5146C33.6507 26.2706 33.6507 26.0266 33.5686 25.7826C33.4865 24.4 32.912 23.668 31.845 23.668ZM39.3139 31.0693C39.2318 31.0693 39.0676 31.0693 38.9035 31.0693C38.8214 31.0693 38.7393 31.0693 38.6572 31.0693C38.5752 31.0693 38.4931 31.0693 38.411 31.0693C38.0827 32.1266 37.7544 32.94 37.5903 33.7533C38.0827 33.7533 38.5752 33.916 39.1497 34.16C39.2318 33.1026 39.2318 32.1266 39.3139 31.0693Z" fill="#6D150F"/>
<path d="M37.9183 31.0693C37.4258 31.964 36.9334 32.94 36.4409 33.8347C36.8513 33.7533 37.1796 33.7533 37.4258 33.7533H37.5079C37.7541 33.0213 38.0003 32.1267 38.3286 31.0693C38.2466 31.0693 38.0824 31.0693 37.9183 31.0693ZM33.9787 39.2027C33.4862 39.6093 32.8296 40.0973 32.091 40.8293C31.9268 40.992 31.7627 41.236 31.5985 41.3987C31.8447 41.5613 32.091 41.6427 32.4193 41.6427H32.5013C33.4862 41.724 33.9787 40.9107 33.9787 39.2027Z" fill="#7A1916"/>
<path d="M94.3863 29.5234H94.3042C94.2222 30.1741 94.2222 30.8248 94.1401 31.3941C94.2222 31.3941 94.3042 31.3941 94.3042 31.3941C94.3042 31.3941 94.3042 31.3941 94.3863 31.3941C95.6995 31.3941 97.1769 33.0208 97.341 34.7288C97.5052 36.5181 96.4382 38.4701 95.125 38.5514C95.125 38.5514 95.125 38.5514 95.0429 38.5514C94.3042 38.5514 93.4014 38.1448 92.7448 37.4128C92.5807 37.9821 92.3344 38.6328 92.0882 39.2021C92.8269 39.7714 93.6476 40.1781 94.7146 40.1781C94.9608 40.1781 95.2071 40.1781 95.5354 40.0968C98.5722 39.6088 99.475 37.0874 99.1467 34.4848C98.8184 31.8008 96.5203 29.5234 94.3863 29.5234Z" fill="#7A1713"/>
<path d="M94.3038 29.5234C92.0878 29.6048 89.9539 32.8581 90.2822 35.4608C90.4463 36.9248 91.1029 38.3074 92.0878 39.2021C92.334 38.6328 92.5803 37.9821 92.7444 37.4128C92.252 36.8434 91.9237 36.1928 91.8416 35.4608C91.6774 33.7528 92.8265 31.7194 94.1397 31.4754C94.2218 30.7434 94.2218 30.0928 94.3038 29.5234Z" fill="#6D150F"/>
<path d="M94.3866 31.3945C94.3045 31.3945 94.3045 31.3945 94.3866 31.3945C94.3045 31.3945 94.2224 31.3945 94.1404 31.3945C93.8941 33.3465 93.4017 35.3799 92.7451 37.4132C93.4017 38.1452 94.3045 38.5519 95.0432 38.5519C95.0432 38.5519 95.0432 38.5519 95.1253 38.5519C96.4385 38.5519 97.5875 36.5999 97.3413 34.7292C97.0951 32.9399 95.6998 31.3945 94.3866 31.3945Z" fill="#7A1713"/>
<path d="M94.0575 31.3945C92.7443 31.6385 91.5953 33.6719 91.7594 35.3799C91.8415 36.1119 92.1698 36.8439 92.6623 37.3319C93.4009 35.3799 93.8113 33.3465 94.0575 31.3945Z" fill="#6D150F"/>
<path d="M72.9649 38.1452C71.8158 38.0639 70.2564 37.9012 69.4357 37.0879C68.9432 36.6812 68.7791 35.9492 68.7791 35.2985C68.697 34.6479 68.9432 33.9972 69.2715 33.6719C69.846 33.0212 71.1592 33.0212 72.1441 33.1025C73.9498 33.2652 74.9347 33.5092 75.0168 32.5332C74.9347 31.3945 73.9498 30.8252 71.98 30.6625C69.9281 30.4999 68.697 30.0932 68.1225 29.6052C67.7942 29.3612 67.7121 29.1172 67.7121 28.8732C67.7121 28.7919 67.7121 28.7105 67.7121 28.7105V28.6292V28.5479C67.7121 26.9212 69.4356 27.0839 72.3903 27.3279C74.196 27.4905 75.1809 27.0839 75.263 26.0265C75.1809 24.8879 74.196 24.2372 72.2262 24.1559C70.6668 24.0745 70.5847 24.0745 69.0253 23.9119C66.8093 23.7492 64.8395 25.9452 64.8395 27.7345C64.8395 27.9785 64.8395 28.1412 64.8395 28.3039C64.8395 28.6292 64.8395 28.9545 64.8395 29.2799C64.9215 31.8012 65.0036 33.0212 65.0857 36.2745C65.1678 38.0639 65.8244 40.0159 68.0404 40.1785C69.6819 40.2599 71.3234 40.4225 72.8828 40.5039C74.6885 40.6665 75.6734 40.1785 75.7554 39.2025C75.8375 38.1452 74.8526 38.3079 72.9649 38.1452Z" fill="white"/>
<path d="M101.281 34.2408C101.199 33.7528 101.199 33.2648 101.034 32.8581C100.952 32.4515 100.87 32.0448 100.706 31.7195C99.6392 28.6288 97.259 26.7581 93.8939 26.8395C91.1854 26.8395 89.2156 28.3848 88.2307 30.5808C88.0666 30.9061 87.9845 31.2315 87.8204 31.6381C87.5741 32.3701 87.4921 33.1835 87.4921 34.0781C87.4921 34.3221 87.4921 34.4848 87.4921 34.7288C87.9024 39.2835 91.0213 42.4555 95.2892 42.3741C99.1467 42.3741 101.199 39.1208 101.281 35.1355C101.281 34.8101 101.281 34.4848 101.281 34.2408Z" fill="white"/>
<path d="M107.764 24.7245C105.548 24.6431 103.414 24.5618 101.198 24.4805C99.5569 24.3991 98.7362 24.8871 98.6541 25.7818C98.7362 26.9205 99.639 27.4898 101.445 27.5711C101.937 27.5711 102.101 27.7338 102.594 27.8151C103.25 27.9778 103.414 29.1978 103.414 30.8245C103.414 31.1498 103.414 31.5565 103.414 31.9631C103.414 32.2885 103.414 32.6951 103.332 33.1018C103.25 34.7285 103.168 36.6805 103.168 38.6325C103.168 38.7138 103.168 38.8765 103.168 38.9578C103.168 40.9911 105.959 40.5031 106.205 38.6325C106.287 37.7378 106.287 36.5178 106.287 35.2165C106.287 35.0538 106.287 34.9725 106.287 34.8098C106.287 34.7285 106.287 34.5658 106.287 34.4845V33.3458V32.2071V31.8818C106.287 31.2311 106.287 30.6618 106.287 30.1738C106.287 29.4418 106.287 28.7911 106.287 28.3031C106.287 27.3271 107.682 27.8151 108.093 27.8151C109.734 27.8965 110.555 27.4898 110.637 26.5138C110.473 25.3751 109.488 24.8058 107.764 24.7245Z" fill="white"/>
<path d="M24.3763 30.581C24.3763 31.313 24.3763 32.1264 24.2943 33.1024C24.1301 34.485 19.7801 33.8344 20.2726 32.6144C20.1905 32.4517 20.1905 32.3704 20.2726 32.2077C21.4216 29.605 22.1603 26.5957 23.2273 26.921C23.966 27.165 24.3763 28.385 24.3763 30.581ZM28.9725 38.633C28.1518 34.3224 27.331 30.0117 26.5103 25.701V25.6197C26.4282 25.2944 26.3461 25.0504 26.2641 24.8064C25.8537 23.8304 25.115 23.1797 23.966 23.017C22.8169 22.8544 21.9141 23.261 21.1754 24.3184C21.0113 24.5624 20.8471 24.8064 20.683 25.0504C20.683 25.1317 20.6009 25.1317 20.6009 25.213L20.0264 26.2704L19.2877 27.5717C19.1235 28.0597 18.7132 28.5477 18.549 29.0357L14.2811 36.8437C14.117 37.169 14.0349 37.2504 13.8708 37.9824C13.9528 38.7144 14.6094 39.6904 15.4302 39.7717C16.4151 39.9344 17.0717 39.2837 17.5641 38.2264C17.8103 37.657 17.8103 36.681 18.3849 36.5997C20.5188 36.3557 22.7348 36.681 24.7046 37.413C24.9509 37.4944 25.0329 37.8197 24.9509 38.2264C24.9509 38.4704 24.9509 38.7957 24.9509 39.0397C25.115 40.4224 25.6895 41.073 26.6744 41.2357C27.7414 41.3984 28.8084 40.341 28.8904 39.609C28.8904 39.4464 28.8904 39.365 28.9725 39.2837C29.0546 39.0397 28.9725 38.877 28.9725 38.633Z" fill="white"/>
<path d="M50.23 22.0414C47.8498 21.7161 45.3875 21.4721 43.0074 21.1467C41.1196 20.9027 40.2168 21.3907 40.1347 22.4481C40.2168 23.5867 41.0376 23.7494 42.7611 24.1561C44.2385 24.4814 45.3055 24.4814 45.3875 26.3521V26.4334C45.3875 26.7587 45.4696 27.0027 45.4696 27.3281C45.6338 30.1747 45.7979 33.2654 45.7979 34.4854C45.7979 36.4374 46.7007 37.8201 48.096 37.9827C48.8347 38.0641 48.9988 37.6574 48.9988 36.9254C48.9988 36.2747 48.8347 35.4614 48.8347 34.6481C48.7526 31.4761 48.8347 30.0934 48.5064 27.4907C48.5064 27.2467 48.4243 26.9214 48.4243 26.5961C48.4243 26.3521 48.3422 26.1081 48.3422 25.7827C48.3422 25.7014 48.3422 25.6201 48.3422 25.5387C48.3422 25.4574 48.3422 25.4574 48.3422 25.3761C48.1781 24.4001 50.1479 24.7254 50.6403 24.8067C52.528 25.0507 53.1026 24.9694 53.1847 23.9934C53.1026 23.0174 52.1997 22.2854 50.23 22.0414Z" fill="white"/>
<path d="M60.2429 33.916C60.407 36.5187 55.0722 35.9494 54.908 35.5427C54.6618 34.5667 54.4976 33.5907 54.4976 32.8587C54.4156 31.1507 55.1542 30.0934 57.2061 30.3374C59.1759 30.5814 60.0787 32.0454 60.1608 33.5907C60.1608 33.672 60.1608 33.7534 60.1608 33.8347C60.2429 33.8347 60.2429 33.916 60.2429 33.916ZM59.8325 28.792C59.1759 28.4667 58.5193 28.1414 57.7806 27.9787C56.5495 27.6534 55.2363 27.6534 54.0052 27.4907C52.692 27.328 51.9533 27.4907 51.5429 27.9787C51.2967 28.304 51.2146 28.7107 51.2146 29.1987C51.2146 29.28 51.2146 29.28 51.2146 29.3614C51.3788 33.184 51.9533 35.2174 52.1995 39.04C52.2816 40.8294 52.6099 42.212 54.0052 42.456C55.1542 42.6187 55.4005 42.0494 55.4005 40.9107C55.4005 40.748 55.4005 40.504 55.4005 40.26C55.4005 40.1787 55.4005 40.0974 55.4005 40.016C55.4005 39.9347 55.4005 39.9347 55.4005 39.8534C55.2363 37.576 57.9448 38.2267 59.9146 37.9827C62.541 37.6574 63.8542 36.112 63.9363 34.2414C63.8542 32.3707 62.3768 30.1747 59.8325 28.792Z" fill="white"/>
<path d="M85.2757 30.2554C86.0965 29.6861 87.0814 29.1981 87.6559 28.5474C88.1483 28.0594 88.4766 27.5714 88.4766 27.0021C88.3946 26.1074 87.5738 25.3754 86.7531 25.3754C86.0965 25.3754 85.5219 25.7821 84.8653 26.5954C83.9625 27.5714 83.388 28.9541 82.5672 30.0114C82.321 30.3367 82.0748 30.6621 81.7465 30.9874C81.3361 31.3941 80.8437 31.6381 80.2691 31.8007C79.7767 31.8821 79.5305 31.4754 79.3663 30.7434C79.2842 30.4181 79.2842 30.0927 79.2842 29.6861C79.2842 29.2794 79.2842 28.7914 79.2842 28.3847C79.2842 27.9781 79.2842 27.5714 79.2842 27.2461C79.2842 27.1647 79.2842 27.0834 79.2842 27.0021C79.2022 25.2941 79.3663 23.4234 78.1352 23.3421C76.9861 23.2607 76.5758 23.9927 76.5758 25.3754C76.5758 25.4567 76.5758 25.4567 76.5758 25.5381C76.6579 27.0021 76.6578 28.3034 76.7399 29.5234C76.7399 29.8487 76.7399 30.1741 76.7399 30.4994C76.822 32.2074 76.822 33.9154 76.9041 35.8674C76.9861 37.5754 77.4786 39.2021 78.7097 39.2834C79.4484 39.2834 79.6946 39.1207 79.6946 38.5514C79.6946 38.2261 79.6125 37.8194 79.6125 37.3314C79.6125 36.5181 79.3663 35.5421 79.3663 34.9727C79.2842 34.2407 79.4484 33.7527 80.3512 33.9967C83.0597 34.7287 82.2389 38.6327 84.2087 40.7474C84.9474 41.5607 85.4399 42.0487 86.2606 42.13C86.9993 42.13 87.82 41.5607 87.9021 40.7474C87.82 40.2594 87.4917 39.6901 86.9172 39.0394C85.1936 37.1687 84.0446 35.4607 83.7163 33.1021C83.7163 32.9394 83.7163 32.8581 83.7163 32.6954C83.6342 32.1261 83.8804 31.7194 84.2087 31.3127C84.455 30.8247 84.8653 30.4994 85.2757 30.2554Z" fill="white"/>
<path d="M43.0893 27.1656C43.0072 26.7589 42.8431 26.4336 42.5968 26.2709C42.3506 26.0269 41.9402 25.8642 41.5299 25.8642C41.2016 25.8642 40.8733 25.9456 40.627 26.1082C40.3808 26.2709 40.2167 26.5149 40.1346 26.9216C40.0525 27.3282 39.9704 27.7349 39.9704 28.3042C39.9704 28.7109 39.9704 29.0362 39.9704 29.2802C39.9704 30.2562 39.8884 30.5816 38.9035 30.5816C37.9186 30.5816 37.1799 30.5002 34.5535 30.4189C33.7327 30.4189 33.6507 29.1176 33.6507 27.8162C33.6507 27.2469 33.6507 26.6776 33.6507 26.1896C33.6507 26.1082 33.6507 26.1082 33.6507 26.0269C33.6507 25.7829 33.6507 25.5389 33.5686 25.2949C33.4044 23.8309 32.8299 23.0989 31.845 23.0176C30.8601 23.0176 30.3677 23.6682 30.2856 24.9696C30.2856 25.1322 30.2856 25.2949 30.2856 25.4576C30.2856 25.5389 30.2856 25.6202 30.2856 25.7016C30.3677 30.0936 30.5318 34.1602 30.6139 38.3083C30.696 40.2603 31.2705 41.2363 32.3375 41.2363C33.4044 41.2363 33.8969 40.4229 33.979 38.7149C33.979 37.9016 33.8148 36.7629 33.8148 35.8682C33.8148 34.8922 33.8969 33.9976 34.5535 33.8349C36.9337 33.1842 37.6723 32.9402 39.2318 33.7536C40.0525 34.1603 40.1346 35.6243 40.1346 37.0069C40.1346 37.4949 40.1346 38.0643 40.1346 38.4709V38.5523C40.2167 40.5043 40.7912 41.4803 41.8582 41.4803C42.9251 41.4803 43.4176 40.6669 43.4997 39.0403C43.4176 34.8109 43.3355 32.9403 43.2534 28.7922C43.3355 28.1416 43.2534 27.6536 43.0893 27.1656Z" fill="white"/>
<path d="M94.3038 29.0352C96.5198 28.9539 98.8179 31.3126 99.1462 33.9966C99.4745 36.6806 98.6538 39.1206 95.5349 39.6086C92.4982 40.0966 90.6105 37.6566 90.2822 34.9726C89.9539 32.3699 92.0878 29.1166 94.3038 29.0352Z" fill="#882919"/>
<path d="M94.3038 30.9062C95.6991 30.9062 97.0944 32.4516 97.3406 34.2409C97.5048 36.0303 96.4378 37.9823 95.1246 38.0636C93.8114 38.0636 92.0057 36.6809 91.8416 34.8916C91.5954 33.1023 92.9086 30.9876 94.3038 30.9062Z" fill="white"/>
<path d="M27.6592 53.2729C27.6592 53.2729 27.7413 53.2729 27.9054 53.1915C28.0696 53.1102 28.3158 53.0289 28.562 52.9475C29.1365 52.7035 29.8752 52.3782 30.696 51.9715C31.5167 51.4835 32.1733 51.0769 32.5837 50.6702C32.8299 50.5075 32.9941 50.3449 33.1582 50.1822C33.3224 50.1009 33.3223 50.0195 33.3223 50.0195C33.3223 50.0195 33.2403 50.1009 33.1582 50.1822C33.0761 50.3449 32.912 50.5075 32.6658 50.6702C32.2554 51.0769 31.5988 51.5649 30.778 52.0529C29.9573 52.5409 29.2186 52.7849 28.6441 52.9475C28.3158 53.0289 28.1516 53.1102 27.9875 53.1102C27.7413 53.2729 27.6592 53.2729 27.6592 53.2729Z" fill="white"/>
<path d="M95.3711 23.9121C95.3711 23.9121 95.3711 23.8307 95.4532 23.6681C95.5353 23.5054 95.6173 23.2614 95.7815 23.0174C96.0277 22.4481 96.5202 21.7161 96.2739 20.7401C96.1919 20.2521 96.0277 19.8454 95.8636 19.5201C95.6994 19.1134 95.6173 18.7881 95.4532 18.5441C95.289 18.3001 95.207 18.0561 95.1249 17.8934C95.0428 17.7307 94.9607 17.6494 94.9607 17.6494C94.9607 17.6494 95.0428 17.7307 95.1249 17.8934C95.207 18.0561 95.3711 18.2187 95.4532 18.5441C95.6173 18.7881 95.7815 19.1947 95.8636 19.5201C96.0277 19.9267 96.1919 20.3334 96.2739 20.8214C96.2739 21.0654 96.356 21.3094 96.356 21.5534C96.356 21.6347 96.356 21.7974 96.2739 21.8787C96.2739 21.9601 96.1919 22.1227 96.1919 22.2041C96.0277 22.6107 95.8636 22.9361 95.6994 23.1801C95.5353 23.4241 95.4532 23.6681 95.3711 23.8307V23.9121Z" fill="white"/>
<path d="M118.106 33.1021C118.106 33.1021 118.106 32.8581 118.106 32.3701C118.106 31.8821 118.106 31.2314 118.106 30.4181C118.024 29.6047 117.942 28.6287 117.614 27.6527C117.367 26.5954 116.875 25.5381 116.3 24.4807C116.136 24.2367 116.054 23.9114 115.89 23.6674C115.726 23.4234 115.562 23.1794 115.398 22.9354C115.233 22.7727 114.987 22.6101 114.741 22.4474C114.495 22.2847 114.248 22.2034 114.002 22.1221C113.756 22.0407 113.51 21.9594 113.264 21.8781C113.099 21.7967 113.017 21.7967 112.935 21.7154C112.853 21.6341 112.689 21.6341 112.607 21.5527C112.197 21.3087 111.786 21.1461 111.458 20.9021C110.719 20.4954 110.145 20.1701 109.816 19.8447C109.652 19.6821 109.488 19.6007 109.488 19.4381C109.406 19.3567 109.488 19.2754 109.488 19.2754C109.488 19.2754 109.488 19.3567 109.488 19.4381C109.57 19.5194 109.652 19.6821 109.899 19.7634C110.309 20.0074 110.883 20.3327 111.622 20.6581C111.95 20.8207 112.361 21.0647 112.853 21.2274C112.935 21.3087 113.099 21.3087 113.181 21.3901C113.264 21.4714 113.428 21.4714 113.51 21.5527C113.756 21.6341 114.002 21.7154 114.248 21.7967C114.741 21.9594 115.398 22.1221 115.808 22.6101C116.218 23.0981 116.464 23.6674 116.793 24.1554C117.367 25.2941 117.778 26.4327 118.106 27.4901C118.352 28.5474 118.434 29.5234 118.434 30.3367C118.434 31.1501 118.352 31.8007 118.352 32.2887C118.188 32.8581 118.106 33.1021 118.106 33.1021Z" fill="white"/>
<path d="M46.5365 7.23857C46.5365 7.23857 46.6186 7.23857 46.7007 7.23857C46.8648 7.23857 47.029 7.23858 47.2752 7.15724C47.7676 7.15724 48.5063 7.07591 49.4091 7.15724C50.312 7.23858 51.3789 7.31991 52.528 7.64524C53.1025 7.80791 53.677 7.97058 54.2515 8.37724C54.4978 8.53991 54.8261 8.78391 54.9902 9.02791C55.0723 9.10924 55.0723 9.19058 55.1544 9.27191C55.2364 9.35324 55.2364 9.43458 55.3185 9.51591C55.4006 9.67858 55.4827 9.84124 55.5647 10.0039C55.6468 10.1666 55.7289 10.3292 55.811 10.4106C55.893 10.4919 55.9751 10.6546 56.1393 10.7359C56.3855 10.8986 56.6317 11.0612 56.96 11.1426C57.5345 11.3052 58.1911 11.3866 58.7657 11.6306C59.0119 11.7119 59.3402 11.8746 59.5864 12.0372C59.8326 12.1999 59.9968 12.3626 60.243 12.6066C60.5713 13.0132 60.8175 13.4199 61.0638 13.8266C61.392 14.6399 61.4741 15.3719 61.3921 15.8599C61.3921 16.1039 61.31 16.2666 61.2279 16.4292C61.2279 16.5106 61.1458 16.5106 61.1458 16.5919V16.6732C61.1458 16.6732 61.1458 16.6732 61.1458 16.5919C61.1458 16.5919 61.2279 16.5106 61.2279 16.4292C61.31 16.3479 61.31 16.1039 61.3921 15.8599C61.4741 15.3719 61.31 14.6399 60.8996 13.9079C60.7354 13.5012 60.4071 13.0946 60.0788 12.7692C59.9147 12.6066 59.6685 12.4439 59.5043 12.2812C59.2581 12.1186 59.0119 12.0372 58.7657 11.9559C58.1911 11.7932 57.6166 11.7119 56.96 11.5492C56.6317 11.4679 56.3034 11.3052 56.0572 11.0612C55.893 10.9799 55.811 10.8172 55.7289 10.6546C55.6468 10.4919 55.5647 10.3292 55.4827 10.1666C55.4006 10.0039 55.3185 9.84124 55.3185 9.75991C55.3185 9.67858 55.2364 9.59724 55.2364 9.59724C55.1544 9.51591 55.1544 9.43458 55.0723 9.43458C54.9081 9.19058 54.6619 9.02791 54.4157 8.86524C53.9232 8.53991 53.3487 8.29591 52.7742 8.13324C51.6252 7.80791 50.6403 7.64524 49.7374 7.56391C48.8346 7.48258 48.0959 7.48258 47.6035 7.48258C47.3573 7.48258 47.1931 7.48258 47.029 7.48258C46.6186 7.23857 46.5365 7.23857 46.5365 7.23857Z" fill="white"/>
<path d="M36.8516 18.4621C36.8516 18.4621 36.8516 18.2181 36.7695 17.8115C36.6874 17.4048 36.6053 16.8355 36.4412 16.1848C36.277 15.4528 36.0308 14.6395 35.7025 13.7448C35.5384 13.3381 35.3742 12.8501 35.128 12.3621C34.8818 11.8741 34.6355 11.4675 34.3893 10.9795C34.061 10.4915 33.8148 10.0848 33.4865 9.67815C33.1582 9.27148 32.8299 8.94615 32.4195 8.70215C32.0912 8.45815 31.5988 8.45815 31.1884 8.45815C30.778 8.45815 30.3676 8.45815 30.0393 8.45815C29.3007 8.53948 28.7262 8.62081 28.3158 8.62081C27.9054 8.70215 27.6592 8.70215 27.6592 8.70215C27.6592 8.70215 27.9054 8.62081 28.2337 8.53948C28.6441 8.45815 29.2186 8.29548 29.9573 8.21415C30.2856 8.13281 30.6959 8.13281 31.1884 8.13281C31.4346 8.13281 31.5988 8.13281 31.845 8.13281C31.9271 8.13281 32.0912 8.13281 32.1733 8.21415H32.2554H32.3374C32.4195 8.21415 32.4195 8.29548 32.5016 8.29548C32.912 8.53948 33.3223 8.94615 33.6506 9.35281C33.9789 9.75948 34.3072 10.1661 34.6355 10.6541C34.9638 11.1421 35.2101 11.6301 35.3742 12.1181C35.6204 12.6061 35.7846 13.0941 35.9487 13.5008C36.277 14.3955 36.4412 15.2901 36.6053 15.9408C36.7695 16.6728 36.8516 17.2421 36.8516 17.6488C36.8516 18.2181 36.8516 18.4621 36.8516 18.4621Z" fill="white"/>
<path d="M40.9557 16.836C40.9557 16.836 40.9557 16.836 40.9557 16.7547C40.9557 16.6734 40.8736 16.592 40.8736 16.4294C40.7916 16.1854 40.7095 15.7787 40.7095 15.2907C40.6274 14.8027 40.7095 14.152 40.7916 13.5014C40.8736 13.176 40.9557 12.8507 41.0378 12.5254C41.1199 12.2 41.284 11.8747 41.2019 11.5494C41.1199 11.3867 41.0378 11.224 40.9557 11.0614C40.8736 10.8987 40.7916 10.736 40.7095 10.5734C40.5453 10.248 40.3812 9.9227 40.217 9.6787C40.135 9.59736 40.135 9.51603 40.0529 9.4347C40.0529 9.35337 39.9708 9.27203 39.9708 9.1907C39.9708 9.10937 39.8887 9.02803 39.8887 8.9467C39.8887 8.86537 39.8887 8.78403 39.8887 8.7027C39.8887 8.37736 39.9708 8.13336 40.0529 7.88936C40.2991 7.40136 40.5453 7.15737 40.7916 6.9947C40.8736 6.91337 41.0378 6.83203 41.1199 6.83203C41.2019 6.83203 41.2019 6.83203 41.2019 6.83203C41.2019 6.83203 41.2019 6.83203 41.1199 6.83203C41.0378 6.83203 40.9557 6.91337 40.8736 6.9947C40.6274 7.15737 40.3812 7.4827 40.217 7.9707C40.135 8.2147 40.0529 8.4587 40.135 8.7027C40.135 8.78403 40.135 8.86537 40.217 8.9467C40.217 9.02803 40.2991 9.10936 40.2991 9.10936C40.2991 9.1907 40.3812 9.27203 40.3812 9.27203C40.4633 9.35336 40.4633 9.4347 40.5453 9.51603C40.7095 9.76003 40.8736 10.0854 41.0378 10.4107C41.1199 10.5734 41.2019 10.736 41.284 10.8987C41.3661 11.0614 41.4482 11.224 41.5302 11.3867C41.5302 11.468 41.6123 11.6307 41.6123 11.712C41.6123 11.7934 41.6123 11.956 41.6123 12.0374C41.5302 12.2 41.4482 12.3627 41.4482 12.5254C41.3661 12.8507 41.284 13.176 41.2019 13.5014C41.0378 14.152 41.0378 14.7214 41.0378 15.2094C41.0378 15.6974 41.1199 16.104 41.2019 16.348C41.2019 16.5107 41.284 16.592 41.284 16.6734C40.9557 16.7547 40.9557 16.836 40.9557 16.836Z" fill="white"/>
<path d="M94.5505 23.2606C94.5505 23.2606 94.5505 23.1792 94.6326 23.0979C94.7147 23.0166 94.7147 22.9352 94.7967 22.7726C94.9609 22.4472 95.125 21.9592 95.125 21.3086C95.125 20.9832 95.125 20.6579 94.9609 20.3326C94.8788 20.0072 94.6326 19.6819 94.3043 19.3566C93.976 19.1126 93.6477 18.8686 93.3194 18.4619C92.9911 18.1366 92.7449 17.6486 92.6628 17.1606C92.6628 16.9979 92.5807 16.9166 92.5807 16.7539C92.5807 16.6726 92.5807 16.5912 92.5807 16.5912C92.5807 16.5099 92.5807 16.4286 92.5807 16.4286C92.5807 16.2659 92.4986 16.0219 92.4166 15.7779C92.3345 15.5339 92.2524 15.3712 92.1703 15.2086C92.0883 15.1272 92.0883 15.0459 92.0062 14.9646C91.9241 14.8832 91.842 14.8832 91.76 14.8832C90.9392 14.7206 90.2005 14.6392 89.5439 14.5579C88.8873 14.5579 88.3949 14.5579 88.0666 14.6392C87.9024 14.6392 87.7383 14.7206 87.6562 14.7206C87.5741 14.7206 87.4921 14.7206 87.4921 14.7206C87.4921 14.7206 87.5741 14.7206 87.6562 14.7206C87.7383 14.7206 87.9024 14.6392 88.0666 14.6392C88.3949 14.5579 88.9694 14.4766 89.626 14.4766C90.2826 14.4766 91.0213 14.4766 91.9241 14.7206C92.0062 14.7206 92.1703 14.8019 92.2524 14.8832C92.3345 14.9646 92.4166 15.0459 92.4986 15.2086C92.5807 15.3712 92.7449 15.6152 92.8269 15.8592C92.909 16.1032 92.9911 16.2659 93.0732 16.5912C93.0732 16.6726 93.0732 16.7539 93.0732 16.7539C93.0732 16.8352 93.0732 16.8352 93.0732 16.9166C93.0732 16.9979 93.0732 17.1606 93.1552 17.2419C93.2373 17.7299 93.4835 18.1366 93.7298 18.4619C93.976 18.7872 94.3864 19.0312 94.7147 19.3566C95.043 19.6819 95.2071 20.0886 95.3713 20.4139C95.4533 20.8206 95.5354 21.1459 95.4533 21.4712C95.3713 22.1219 95.2071 22.6099 94.9609 22.9352C94.8788 23.0979 94.7967 23.1792 94.7147 23.2606C94.6326 23.1792 94.5505 23.2606 94.5505 23.2606Z" fill="white"/>
<path d="M114.987 26.0266C114.987 26.0266 114.987 25.9453 114.987 25.8639C114.987 25.7826 114.905 25.6199 114.905 25.4573C114.823 25.1319 114.577 24.6439 114.166 24.1559C113.756 23.6679 113.264 23.1799 112.525 22.6919C112.197 22.4479 111.786 22.2853 111.376 22.1226C110.966 21.9599 110.473 21.7973 110.063 21.7159C109.57 21.5533 109.16 21.3906 108.75 21.2279C108.339 21.0653 107.929 20.8213 107.6 20.4959C106.944 19.9266 106.451 19.3573 106.041 18.9506C105.631 18.4626 105.302 18.1373 105.056 17.8119C104.974 17.6493 104.81 17.5679 104.81 17.4866C104.728 17.4053 104.728 17.4053 104.728 17.4053C104.728 17.4053 104.728 17.4053 104.81 17.4866C104.892 17.5679 104.974 17.6493 105.138 17.7306C105.384 17.9746 105.795 18.2999 106.205 18.7879C106.698 19.1946 107.19 19.7639 107.847 20.2519C108.175 20.4959 108.503 20.7399 108.914 20.9026C109.324 21.0653 109.816 21.2279 110.227 21.3906C110.719 21.5533 111.13 21.7159 111.54 21.8786C111.95 22.0413 112.361 22.2853 112.689 22.5293C113.346 23.0173 113.92 23.5866 114.331 24.0746C114.741 24.5626 114.905 25.0506 114.987 25.4573C114.987 25.6199 115.069 25.7826 115.069 25.8639C114.987 26.0266 114.987 26.0266 114.987 26.0266Z" fill="white"/>
<path d="M83.3877 14.965C83.3877 14.965 83.1415 15.0463 82.8132 15.1276C82.649 15.209 82.4028 15.209 82.0745 15.2903C81.9104 15.2903 81.8283 15.3716 81.6641 15.3716C81.5 15.3716 81.3358 15.453 81.1717 15.453C80.433 15.5343 79.6123 15.5343 78.7095 15.5343C77.8066 15.5343 76.7397 15.3716 75.6727 15.2903C74.6057 15.1276 73.5387 15.0463 72.6359 14.8836C71.7331 14.8023 70.8303 14.721 70.1737 14.8023C69.5171 14.965 69.0246 15.2903 68.8605 15.697C68.7784 15.8596 68.6963 16.0223 68.6963 16.1036C68.6963 16.185 68.6963 16.185 68.6963 16.185V16.1036C68.6963 16.0223 68.7784 15.8596 68.8605 15.697C68.9425 15.5343 69.1067 15.2903 69.3529 15.1276C69.5991 14.965 69.8454 14.8023 70.2557 14.721C70.584 14.6396 70.9944 14.6396 71.4048 14.6396C71.651 14.6396 71.8152 14.6396 72.0614 14.6396C72.3076 14.6396 72.5538 14.6396 72.718 14.6396C73.6208 14.721 74.6878 14.8023 75.7548 14.965C76.8217 15.1276 77.8066 15.209 78.7915 15.2903C79.6943 15.3716 80.5972 15.3716 81.2538 15.2903C81.4179 15.2903 81.5821 15.2903 81.7462 15.209C81.9104 15.209 82.0745 15.209 82.1566 15.1276C82.4028 15.0463 82.649 15.0463 82.8953 15.0463C83.2236 15.0463 83.3877 14.965 83.3877 14.965Z" fill="white"/>
<path d="M57.8627 14.314C57.8627 14.2327 57.8627 14.1513 57.7806 14.1513C57.7806 14.1513 57.7806 14.07 57.6985 14.07C57.6165 13.9073 57.4523 13.6633 57.124 13.582C56.9599 13.5007 56.7957 13.4193 56.6316 13.4193C56.4674 13.338 56.2212 13.338 55.975 13.338C55.7287 13.338 55.4825 13.338 55.2363 13.2567C54.9901 13.1753 54.7438 13.1753 54.4976 13.0127C54.2514 12.85 54.0872 12.6873 53.9231 12.4433C53.7589 12.1993 53.6769 12.0367 53.6769 11.7927C53.5127 11.386 53.4306 10.9793 53.3486 10.654C53.1844 10.0033 53.1023 9.59668 53.1023 9.59668C53.1023 9.59668 53.2665 10.0033 53.4306 10.654C53.5127 10.9793 53.5948 11.386 53.7589 11.7927C53.9231 12.1993 54.0872 12.6873 54.5797 12.9313C54.8259 13.094 54.9901 13.1753 55.2363 13.1753C55.4825 13.2567 55.7287 13.2567 55.8929 13.2567C56.1391 13.2567 56.3033 13.338 56.5495 13.338C56.7136 13.4193 56.9599 13.5007 57.0419 13.582C57.3702 13.7447 57.5344 13.9887 57.6165 14.1513C57.6165 14.2327 57.6165 14.2327 57.6985 14.2327C57.8627 14.1513 57.8627 14.2327 57.8627 14.314Z" fill="white"/>
<path d="M57.452 23.2607C57.452 23.2607 57.5341 23.1794 57.6161 23.0981C57.6982 22.9354 57.8624 22.7727 58.0265 22.5287C58.3548 22.0407 58.8473 21.3901 59.2576 20.5767C59.668 19.7634 59.9963 19.0314 60.2426 18.4621C60.3246 18.2181 60.4067 17.974 60.4888 17.8114C60.5708 17.6487 60.5709 17.5674 60.5709 17.5674C60.5709 17.5674 60.5708 17.6487 60.4888 17.8114C60.4888 17.974 60.4067 18.2181 60.3246 18.4621C60.1605 19.0314 59.8322 19.8447 59.4218 20.6581C59.0114 21.4714 58.519 22.1221 58.1086 22.6101C57.9444 22.8541 57.7803 23.0167 57.6161 23.0981C57.5341 23.1794 57.452 23.2607 57.452 23.2607Z" fill="white"/>
<path d="M116.629 43.676C116.629 43.676 116.711 43.5947 116.875 43.3507C116.957 43.2694 117.039 43.1067 117.121 42.944C117.203 42.7814 117.285 42.6187 117.449 42.456C117.531 42.3747 117.531 42.2933 117.613 42.1307C117.695 42.0493 117.695 41.8867 117.778 41.8054C117.86 41.5614 118.024 41.3174 118.106 41.0734C118.352 40.504 118.516 39.9347 118.68 39.284C118.845 38.6333 118.927 37.9827 118.927 37.4134C118.927 37.088 118.927 36.844 118.927 36.6C118.927 36.4374 118.927 36.356 118.927 36.1934C118.927 36.112 118.927 35.9493 118.927 35.868C118.927 35.624 118.927 35.4614 118.845 35.2987C118.845 35.136 118.845 34.9734 118.762 34.892C118.762 34.648 118.68 34.4854 118.68 34.4854C118.68 34.4854 118.68 34.648 118.762 34.892C118.762 34.9734 118.845 35.136 118.845 35.2987C118.845 35.4614 118.927 35.7053 118.927 35.868C118.927 35.9493 118.927 36.112 118.927 36.1934C118.927 36.2747 118.927 36.4374 118.927 36.6C118.927 36.844 118.927 37.1694 118.927 37.4134C118.927 37.9827 118.845 38.6333 118.68 39.284C118.516 39.9347 118.352 40.5854 118.106 41.0734C117.942 41.3174 117.86 41.5614 117.778 41.8054C117.695 41.8867 117.695 42.0493 117.613 42.1307C117.531 42.212 117.449 42.2934 117.449 42.456C117.367 42.6187 117.203 42.7814 117.121 42.944C117.039 43.1067 116.957 43.188 116.875 43.2694C116.711 43.5134 116.629 43.676 116.629 43.676Z" fill="white"/>
<path d="M110.883 46.8474C110.883 46.8474 110.965 46.766 111.047 46.766C111.129 46.6847 111.376 46.6034 111.54 46.4407C111.95 46.1154 112.525 45.7087 113.099 45.1394C113.674 44.57 114.084 44.0007 114.412 43.594C114.576 43.35 114.659 43.1874 114.741 43.106C114.823 43.0247 114.823 42.9434 114.823 42.9434C114.823 42.9434 114.823 43.0247 114.741 43.106C114.659 43.2687 114.576 43.4314 114.412 43.6754C114.166 44.082 113.756 44.7327 113.181 45.302C112.607 45.8714 112.032 46.278 111.622 46.6034C111.376 46.766 111.211 46.8474 111.129 46.9287C110.883 46.8474 110.883 46.8474 110.883 46.8474Z" fill="white"/>
<path d="M98.5715 19.7637C98.4895 19.6823 98.4895 19.6823 98.4074 19.601C98.3253 19.5197 98.2432 19.2757 98.0791 19.0317C97.997 18.7877 97.9149 18.4623 97.8329 18.137C97.7508 17.8117 97.7508 17.405 97.7508 16.9983C97.7508 16.7543 97.8329 16.5917 97.9149 16.429C97.997 16.2663 98.1612 16.1037 98.3253 16.0223C98.6536 15.8597 98.9819 15.7783 99.2281 15.7783C99.4744 15.7783 99.7206 15.8597 99.8847 15.8597C99.9668 15.8597 100.049 15.941 100.049 15.941H100.131C100.131 15.941 100.131 15.941 100.049 15.941C100.049 15.941 99.9668 15.941 99.8847 15.8597C99.7206 15.7783 99.5564 15.7783 99.2281 15.7783C98.9819 15.7783 98.6536 15.8597 98.3253 16.0223C98.1612 16.1037 97.997 16.185 97.9149 16.3477C97.8329 16.5103 97.8329 16.673 97.7508 16.917C97.7508 17.3237 97.7508 17.7303 97.8329 18.0557C97.9149 18.381 97.997 18.7063 98.0791 18.9503C98.1612 19.1943 98.2432 19.357 98.3253 19.5197C98.4074 19.6823 98.4895 19.6823 98.5715 19.7637Z" fill="white"/>
<path d="M62.7873 25.7819C62.7873 25.7819 62.7873 25.7819 62.7052 25.7006C62.7052 25.6192 62.6231 25.5379 62.6231 25.3752C62.541 25.1312 62.459 24.7246 62.459 24.2366C62.459 23.7486 62.541 23.0979 62.8693 22.5286C63.1976 21.9592 63.6901 21.3899 64.2646 20.9019C64.8391 20.4139 65.4137 20.0072 65.9061 19.5192C66.3985 19.1126 66.8089 18.6246 67.0551 18.2179C67.3014 17.8112 67.4655 17.4046 67.5476 17.1606C67.5476 17.0792 67.5476 16.9979 67.5476 16.9979C67.5476 16.9166 67.5476 16.9166 67.5476 16.8352C67.5476 16.7539 67.5476 16.7539 67.5476 16.7539C67.5476 16.7539 67.5476 16.7539 67.5476 16.8352C67.5476 16.8352 67.5476 16.9166 67.5476 16.9979C67.5476 17.0792 67.5476 17.0792 67.5476 17.1606C67.5476 17.4046 67.3834 17.8112 67.1372 18.2992C66.891 18.7059 66.4806 19.1939 66.0702 19.6819C65.5778 20.1699 65.0033 20.5766 64.4288 21.0646C63.8542 21.5526 63.3618 22.0406 63.0335 22.6099C62.7052 23.1792 62.541 23.7486 62.541 24.2366C62.541 24.7246 62.541 25.1312 62.6231 25.3752C62.6231 25.5379 62.7052 25.6192 62.7052 25.7006C62.7873 25.7006 62.7873 25.7819 62.7873 25.7819Z" fill="white"/>
<path d="M101.444 41.3164C101.362 41.3977 101.362 41.3977 101.28 41.3977L101.198 41.4791C101.034 41.5604 100.952 41.8044 100.87 42.1297C100.788 42.4551 100.706 42.7804 100.459 43.1871C100.459 43.2684 100.377 43.2684 100.377 43.3497C100.377 43.4311 100.295 43.4311 100.295 43.5124C100.213 43.5937 100.131 43.6751 100.049 43.7564C99.8849 43.8377 99.6387 44.0004 99.3925 44.0817C98.9821 44.2444 98.4896 44.4071 98.1613 44.5697C97.833 44.7324 97.5047 45.0577 97.3406 45.3017C97.1764 45.5457 97.0944 45.7897 97.0944 45.9524C97.0944 46.0337 97.0944 46.1151 97.0944 46.1151C97.0944 46.1964 97.0944 46.1964 97.0944 46.1964C97.0944 46.1964 97.0944 46.1964 97.0944 46.1151C97.0944 46.0337 97.0944 46.0337 97.0944 45.9524C97.0944 45.7897 97.0944 45.5457 97.2585 45.2204C97.4227 44.9764 97.6689 44.6511 98.0793 44.4884C98.4076 44.2444 98.9 44.0817 99.3104 43.9191C99.7208 43.7564 100.213 43.5937 100.377 43.1871C100.624 42.8617 100.706 42.4551 100.788 42.2111C100.87 41.8857 101.034 41.7231 101.198 41.5604L101.28 41.4791C101.28 41.3164 101.362 41.3164 101.444 41.3164Z" fill="white"/>
<path d="M15.5942 14.1514C15.5942 14.1514 15.5122 14.2327 15.2659 14.314C15.1018 14.3954 14.7735 14.558 14.4452 14.802C13.7886 15.29 12.8858 16.022 12.2292 17.0794C11.9009 17.5674 11.6546 18.1367 11.3263 18.6247C11.0801 19.1127 10.8339 19.5194 10.5056 19.8447C10.2594 20.17 9.93106 20.3327 9.76691 20.4954C9.68484 20.5767 9.60276 20.5767 9.52069 20.5767C9.43861 20.5767 9.43861 20.5767 9.43861 20.5767C9.43861 20.5767 9.43861 20.5767 9.52069 20.4954C9.60276 20.4954 9.68484 20.414 9.76691 20.3327C9.93106 20.17 10.1773 20.0074 10.4235 19.682C10.6697 19.3567 10.916 18.95 11.1622 18.462C11.4084 17.974 11.6546 17.4047 11.9829 16.9167C12.7216 15.8594 13.6244 15.1274 14.281 14.7207C14.6093 14.4767 14.9376 14.3954 15.1839 14.2327C15.4301 14.1514 15.5942 14.1514 15.5942 14.1514Z" fill="white"/>
<path d="M76.5758 53.5173C76.5758 53.5173 76.822 53.5173 77.2324 53.5173C77.6427 53.5173 78.2993 53.5173 79.1201 53.5173C80.6795 53.5173 82.8955 53.2733 85.2757 52.7853C85.604 52.7039 85.8502 52.6226 86.1785 52.5413C86.4248 52.4599 86.7531 52.3786 86.9993 52.2973C87.5738 52.1346 88.0663 51.9719 88.6408 51.8906C88.887 51.8093 89.1332 51.8093 89.3794 51.7279C89.6257 51.7279 89.8719 51.7279 90.1181 51.6466C90.6106 51.5653 91.0209 51.4839 91.3492 51.4026C91.5134 51.3213 91.7596 51.3213 91.9238 51.3213C92.0879 51.3213 92.2521 51.24 92.4162 51.1586C92.6624 51.0773 92.9087 50.9146 93.0728 50.752C93.237 50.5893 93.319 50.4266 93.4011 50.3453C93.4011 50.264 93.4832 50.2639 93.4832 50.2639V50.1826C93.4832 50.1826 93.4832 50.1826 93.4832 50.2639C93.4832 50.2639 93.4832 50.3453 93.4011 50.4266C93.319 50.5079 93.237 50.6706 93.1549 50.8333C92.9907 50.9959 92.7445 51.1586 92.4983 51.3213C92.3341 51.4026 92.17 51.4839 92.0058 51.4839C91.8417 51.5653 91.6775 51.5653 91.4313 51.6466C91.0209 51.7279 90.6106 51.8906 90.2002 51.9719C89.954 52.0533 89.7077 52.0533 89.4615 52.0533C89.2153 52.0533 88.9691 52.1346 88.7228 52.2159C88.2304 52.3786 87.6559 52.5413 87.1634 52.7039C86.9172 52.7853 86.5889 52.8666 86.3427 52.9479C86.0144 53.0293 85.7682 53.1106 85.4399 53.1919C83.0597 53.7613 80.8437 53.8426 79.2022 53.7613C78.3814 53.7613 77.7248 53.6799 77.3144 53.5986C76.822 53.5986 76.5758 53.5173 76.5758 53.5173Z" fill="white"/>
<path d="M27.7412 50.2635C27.7412 50.2635 27.6591 50.2635 27.5771 50.2635C27.495 50.2635 27.2488 50.2635 27.0846 50.2635C26.8384 50.2635 26.5922 50.3448 26.2639 50.4262C25.9356 50.5075 25.6073 50.6702 25.279 50.9142C24.9507 51.0768 24.5403 51.3208 24.1299 51.5648C23.7195 51.8088 23.2271 52.0528 22.7346 52.1342C22.4884 52.2155 22.1601 52.2155 21.9139 52.2155C21.5856 52.2155 21.3394 52.1342 21.0111 51.9715C20.7649 51.8088 20.5186 51.6462 20.2724 51.4835C20.0262 51.3208 19.78 51.2395 19.5337 51.1582C18.9592 50.9955 18.3847 51.0768 17.8102 50.9955C17.2356 50.9955 16.6611 50.8329 16.1687 50.7515C15.1017 50.4262 14.2809 50.0195 13.6243 49.5315C12.9677 49.0435 12.4753 48.6369 12.2291 48.3115C12.0649 48.1489 11.9828 47.9862 11.9008 47.9049C11.8187 47.8235 11.8187 47.7422 11.8187 47.7422C11.8187 47.7422 11.9008 47.8235 11.9008 47.9049C11.9828 47.9862 12.0649 48.1489 12.2291 48.3115C12.5574 48.6369 13.0498 49.0435 13.7064 49.4502C14.363 49.8568 15.2658 50.2635 16.2507 50.5075C16.7432 50.6702 17.3177 50.7515 17.8922 50.7515C18.4668 50.7515 19.0413 50.7515 19.6979 50.9142C19.862 50.9142 20.0262 50.9955 20.1903 51.0768C20.3545 51.1582 20.5186 51.2395 20.6007 51.3208C20.8469 51.4835 21.0932 51.6462 21.3394 51.8088C21.8318 52.0528 22.3243 52.0528 22.8167 51.9715C23.3092 51.8902 23.8016 51.6462 24.212 51.4835C24.6224 51.2395 25.0327 51.0768 25.361 50.8328C25.6893 50.6702 26.0997 50.5075 26.3459 50.4262C26.6742 50.3448 26.9205 50.2635 27.1667 50.2635C27.4129 50.2635 27.5771 50.2635 27.6591 50.3449C27.6591 50.2635 27.7412 50.2635 27.7412 50.2635Z" fill="white"/>
<path d="M19.8623 48.4742C19.8623 48.4742 19.6981 48.4742 19.3698 48.5555C19.0415 48.6368 18.6312 48.7182 18.0566 48.7182C17.4821 48.7182 16.8255 48.7995 16.1689 48.6368C15.8406 48.5555 15.4302 48.5555 15.0199 48.3928C14.6095 48.3115 14.2812 48.0675 13.9529 47.7422C13.6246 47.4168 13.4604 47.0915 13.2142 46.8475C12.968 46.6035 12.6397 46.3595 12.3935 46.1155C12.1472 45.8715 11.8189 45.7088 11.5727 45.4648C11.3265 45.2208 11.1623 44.9768 10.9982 44.8142C10.6699 44.3262 10.5878 43.9195 10.6699 43.5942C10.6699 43.4315 10.752 43.3502 10.752 43.2688C10.752 43.1875 10.834 43.1875 10.834 43.1875C10.834 43.1875 10.834 43.1875 10.834 43.2688C10.834 43.3502 10.752 43.4315 10.752 43.5942C10.752 43.9195 10.834 44.3262 11.1623 44.7328C11.3265 44.9768 11.4906 45.1395 11.7369 45.3835C11.9831 45.5462 12.2293 45.7902 12.5576 45.9528C12.8859 46.1968 13.1321 46.3595 13.4604 46.6848C13.7887 46.9288 13.9529 47.3355 14.1991 47.5795C14.4453 47.9048 14.7736 48.0675 15.184 48.1488C15.5123 48.3115 15.9227 48.3115 16.251 48.3928C16.9897 48.4742 17.5642 48.5555 18.1387 48.4742C18.7132 48.4742 19.1236 48.3928 19.4519 48.3928C19.6981 48.5555 19.8623 48.4742 19.8623 48.4742Z" fill="white"/>
<path d="M31.3524 44.4082C31.3524 44.4082 31.2703 44.4082 31.0241 44.4895C30.8599 44.5709 30.5316 44.6522 30.2854 44.8149C29.9571 44.9775 29.6288 45.2215 29.3826 45.6282C29.0543 45.9535 28.8081 46.4415 28.4798 46.8482C28.3156 47.0922 28.1515 47.2549 27.9873 47.4989C27.8232 47.6615 27.577 47.8242 27.4128 47.9869C27.0024 48.2309 26.5921 48.3936 26.2638 48.5562C25.9355 48.7189 25.6892 48.8002 25.443 48.8816C25.2789 48.9629 25.1147 48.9629 25.1147 48.9629C25.1147 48.9629 25.1968 48.8816 25.3609 48.8816C25.5251 48.8002 25.7713 48.7189 26.0996 48.5562C26.4279 48.3936 26.7562 48.2309 27.1666 47.9056C27.3307 47.7429 27.577 47.5802 27.7411 47.4175C27.9053 47.2549 28.0694 47.0109 28.2336 46.8482C28.5619 46.4415 28.8081 45.9535 29.1364 45.6282C29.4647 45.3029 29.793 44.9775 30.1213 44.8962C30.4496 44.7335 30.6958 44.6522 30.942 44.6522C31.1882 44.4082 31.3524 44.4082 31.3524 44.4082Z" fill="white"/>
<path d="M36.5234 41.7243C36.5234 41.7243 36.5234 41.643 36.6055 41.4803C36.6876 41.3176 36.7696 41.155 36.8517 40.911C36.9338 40.667 37.0159 40.3416 37.0979 40.0163C37.18 39.691 37.18 39.2843 37.18 38.8776C37.18 38.471 37.18 38.0643 37.2621 37.6576C37.3442 37.495 37.4262 37.3323 37.5083 37.1696C37.5904 37.007 37.7545 36.9256 37.8366 36.8443C38.0828 36.6816 38.1649 36.519 38.247 36.3563C38.247 36.275 38.3291 36.1936 38.3291 36.1936V36.1123C38.3291 36.1123 38.3291 36.1123 38.3291 36.1936C38.3291 36.1936 38.3291 36.275 38.247 36.3563C38.1649 36.519 38.0008 36.6816 37.8366 36.8443C37.7545 36.9256 37.6725 37.007 37.5083 37.1696C37.4262 37.3323 37.3442 37.4136 37.2621 37.6576C37.18 37.983 37.18 38.3896 37.18 38.7963C37.18 39.203 37.18 39.6096 37.0979 40.0163C37.0159 40.3416 36.9338 40.667 36.8517 40.911C36.7696 41.155 36.6876 41.399 36.6055 41.4803C36.6055 41.643 36.5234 41.7243 36.5234 41.7243Z" fill="white"/>
<path d="M11.2447 34.8104C11.2447 34.6477 11.2447 34.5664 11.2447 34.485C11.2447 34.3224 11.2447 33.997 11.4088 33.6717C11.4909 33.3464 11.7371 32.9397 11.9833 32.533C12.2296 32.1264 12.5579 31.801 12.9682 31.3944C13.3786 30.9877 13.7069 30.6624 14.0352 30.337C14.3635 30.0117 14.6097 29.6864 14.7739 29.361C14.938 29.0357 15.1022 28.7917 15.1843 28.629C15.1843 28.5477 15.2663 28.4664 15.2663 28.385C15.2663 28.3037 15.2663 28.3037 15.2663 28.3037C15.2663 28.3037 15.2663 28.3037 15.2663 28.385C15.2663 28.4664 15.2663 28.5477 15.1843 28.629C15.1022 28.7917 15.0201 29.117 14.856 29.361C14.6918 29.6864 14.4456 30.0117 14.1173 30.337C13.789 30.6624 13.4607 31.069 13.0503 31.3944C12.6399 31.801 12.3116 32.1264 12.0654 32.533C11.8192 32.9397 11.573 33.265 11.4909 33.5904C11.4088 33.9157 11.3267 34.1597 11.3267 34.4037C11.2447 34.6477 11.2447 34.729 11.2447 34.8104Z" fill="white"/>
<path d="M116.3 43.0254C116.3 43.0254 116.3 43.1067 116.218 43.1881C116.218 43.2694 116.136 43.3507 116.136 43.4321C116.054 43.5134 116.054 43.6761 115.972 43.7574C115.89 44.0014 115.726 44.3267 115.479 44.6521C115.233 44.9774 114.987 45.3027 114.741 45.7094C114.166 46.4414 113.346 47.3361 112.279 48.1494C111.786 48.5561 111.294 48.9627 110.637 49.3694C110.063 49.7761 109.406 50.1014 108.667 50.3454C107.929 50.5894 107.19 50.5894 106.451 50.5894C106.123 50.5894 105.795 50.6707 105.466 50.6707C105.138 50.7521 104.81 50.8334 104.481 50.9147C103.825 51.0774 103.25 51.2401 102.676 51.3214C102.101 51.4027 101.527 51.3214 101.034 51.2401C100.542 51.0774 100.131 50.9147 99.8032 50.6707C99.4749 50.4267 99.2286 50.1827 99.0645 50.0201C98.9003 49.7761 98.7362 49.6134 98.6541 49.5321C98.572 49.3694 98.572 49.3694 98.572 49.3694C98.572 49.3694 98.6541 49.4507 98.7362 49.5321C98.8183 49.6134 98.9824 49.7761 99.1466 50.0201C99.5569 50.4267 100.214 50.8334 101.116 51.0774C101.609 51.1587 102.101 51.1587 102.676 51.0774C103.25 50.9961 103.825 50.8334 104.399 50.5894C104.728 50.5081 105.056 50.4267 105.384 50.3454C105.713 50.2641 106.041 50.2641 106.451 50.1827C107.19 50.1014 107.846 50.1014 108.585 49.9387C109.242 49.7761 109.898 49.3694 110.473 49.0441C111.047 48.6374 111.622 48.2307 112.114 47.9054C113.099 47.0921 114.002 46.3601 114.577 45.6281C114.905 45.3027 115.151 44.8961 115.397 44.6521C115.644 44.3267 115.808 44.0827 115.89 43.8387C115.972 43.7574 116.054 43.5947 116.054 43.5134C116.136 43.4321 116.136 43.3507 116.136 43.2694C116.218 43.1067 116.3 43.0254 116.3 43.0254Z" fill="white"/>
<path d="M72.2261 54.0865C72.2261 54.0865 71.7337 54.0865 70.995 54.0865C70.5846 54.0865 70.1743 54.0865 69.6818 54.0865C69.1894 54.0865 68.6148 54.0865 68.1224 53.9238C67.5478 53.7611 67.0554 53.5985 66.645 53.2731C66.4809 53.1105 66.2346 52.9478 66.1526 52.7851C65.9884 52.6225 65.9063 52.4598 65.8243 52.2972C65.6601 51.9718 65.6601 51.6465 65.7422 51.4025C65.7422 51.3211 65.8243 51.2398 65.8243 51.1585C65.8243 51.0772 65.9064 51.0771 65.9064 51.0771C65.9064 51.0771 65.9064 51.0772 65.9064 51.1585C65.9064 51.2398 65.8243 51.3211 65.8243 51.4025C65.7422 51.5651 65.8243 51.8905 65.9064 52.2158C65.9884 52.3785 66.0705 52.5411 66.2346 52.7038C66.3988 52.8665 66.563 53.0291 66.7271 53.1105C67.1375 53.3545 67.6299 53.5985 68.1224 53.6798C68.6969 53.8425 69.1894 53.8425 69.6818 53.8425C70.1743 53.8425 70.5846 53.8425 70.995 53.8425C71.4054 53.8425 71.6516 53.8425 71.8978 53.9238C72.1441 54.0865 72.2261 54.0865 72.2261 54.0865Z" fill="white"/>
<path d="M90.693 50.1826C90.693 50.1826 90.775 50.1826 90.9392 50.1826C91.0213 50.1826 91.1033 50.1826 91.1854 50.1826C91.2675 50.1826 91.4316 50.1826 91.5137 50.1826C91.7599 50.1826 92.0062 50.1013 92.3345 49.9386C92.5807 49.7759 92.909 49.6133 93.1552 49.2879C93.2373 49.2066 93.2373 49.1253 93.3193 49.0439L93.4014 48.9626C93.4014 48.9626 93.4014 48.8813 93.4835 48.8813C93.5656 48.7186 93.5656 48.5559 93.5656 48.3933C93.5656 48.0679 93.6476 47.8239 93.6476 47.5799C93.6476 47.0919 93.7297 46.7666 93.7297 46.7666C93.7297 46.7666 93.7297 47.0919 93.7297 47.5799C93.7297 47.8239 93.7297 48.1493 93.7297 48.4746C93.7297 48.6373 93.7297 48.7999 93.6476 48.9626C93.6476 49.0439 93.6476 49.0439 93.5656 49.1253C93.5656 49.2066 93.4835 49.2066 93.4835 49.2879C93.4835 49.3693 93.4014 49.4506 93.3193 49.5319C93.0731 49.8573 92.7448 50.0199 92.4986 50.1826C92.1703 50.3453 91.9241 50.3453 91.6779 50.4266C91.5137 50.4266 91.4316 50.4266 91.3496 50.4266C91.2675 50.4266 91.1854 50.4266 91.1033 50.4266C90.775 50.1826 90.693 50.1826 90.693 50.1826Z" fill="white"/>
<path d="M84.6192 54.005C84.6192 54.005 84.8654 54.005 85.2758 53.9236C85.6862 53.8423 86.2607 53.761 86.9994 53.5983C87.738 53.4356 88.5588 53.273 89.4616 52.9476C89.9541 52.785 90.4465 52.7036 90.939 52.541C91.1852 52.4596 91.4314 52.3783 91.7597 52.297C92.0059 52.2156 92.2522 52.1343 92.4984 52.053C92.7446 51.9716 92.9088 51.7276 93.155 51.6463C93.2371 51.565 93.4012 51.4836 93.5654 51.4836C93.7295 51.4023 93.8937 51.4023 93.9757 51.4023C94.222 51.4023 94.4682 51.4023 94.7144 51.321C94.7965 51.321 94.9606 51.2396 94.9606 51.1583C94.9606 51.1583 94.9606 51.1583 95.0427 51.077C95.0427 51.077 95.0427 51.077 95.1248 50.9956C95.1248 50.9143 95.2068 50.9143 95.2068 50.833C95.2889 50.7516 95.2889 50.6703 95.371 50.589C95.371 50.5076 95.371 50.4263 95.2889 50.345C95.2068 50.1823 95.0427 50.0196 94.8785 49.7756C94.7965 49.6943 94.7144 49.613 94.7144 49.5316C94.7144 49.4503 94.6323 49.4503 94.6323 49.369C94.6323 49.2876 94.5502 49.2876 94.5502 49.2063C94.4682 49.0436 94.3861 48.7996 94.3861 48.637C94.222 47.905 94.222 47.3357 94.222 46.929C94.222 46.685 94.304 46.6037 94.304 46.441C94.304 46.3597 94.3861 46.2783 94.3861 46.2783C94.3861 46.2783 94.3861 46.3597 94.304 46.441C94.304 46.5223 94.304 46.685 94.304 46.929C94.304 47.3357 94.3861 47.905 94.5502 48.637C94.6323 48.7996 94.6323 48.9623 94.7144 49.125C94.7144 49.2063 94.7965 49.2063 94.7965 49.2876L94.8785 49.369C94.9606 49.4503 94.9606 49.5316 95.0427 49.613C95.2069 49.7756 95.371 49.9383 95.4531 50.1823C95.5352 50.2636 95.5351 50.4263 95.5351 50.589C95.5351 50.7516 95.4531 50.833 95.371 50.9956C95.371 51.077 95.2889 51.077 95.2889 51.1583C95.2889 51.1583 95.2889 51.2396 95.2068 51.2396L95.1248 51.321C95.0427 51.4023 94.8786 51.4836 94.7144 51.4836C94.4682 51.565 94.1399 51.565 93.8937 51.565C93.6474 51.565 93.4012 51.6463 93.2371 51.809C92.9908 51.9716 92.8267 52.1343 92.4984 52.297C92.2522 52.4596 91.9239 52.541 91.6776 52.541C91.4314 52.6223 91.1852 52.7036 90.8569 52.7036C90.3644 52.8663 89.872 52.9476 89.3795 53.1103C88.3946 53.3543 87.5739 53.517 86.8352 53.5983C86.0966 53.6796 85.522 53.761 85.1116 53.761C84.8654 54.005 84.6192 54.005 84.6192 54.005Z" fill="white"/>
<path d="M117.613 45.4652C116.957 46.3599 116.3 47.0919 115.644 47.8239C115.644 47.8239 109.734 52.4599 105.056 52.6225C103.661 52.7039 102.183 52.6225 100.788 52.5412C100.624 52.5412 100.46 52.5412 100.296 52.5412C99.3929 52.3785 97.2589 51.2399 95.207 45.0585C95.207 45.0585 95.125 48.4745 96.274 49.6132C97.2589 50.5079 96.7665 51.9719 94.7967 52.6225C94.3042 52.7039 93.8118 52.7852 93.4014 52.8665C92.0882 53.0292 91.6778 54.0052 89.1335 54.3305C75.9194 54.6559 52.0357 55.3879 45.3055 56.5265C42.1867 57.0145 34.7179 57.5839 27.0028 56.4452C26.8387 56.2825 26.6745 56.0385 26.9208 55.7132L27.0028 55.6319C27.167 55.4692 27.4953 55.2252 27.8236 55.0625C27.8236 55.0625 27.9057 55.0625 27.9057 54.9812C27.9057 54.9812 27.9877 54.9812 27.9877 54.8999C28.4802 54.7372 29.1368 54.5745 29.7934 54.5745C30.45 54.5745 31.2707 54.6559 32.0915 54.7372C32.9122 54.8185 33.6509 54.9812 34.3896 55.0625C35.1283 55.1439 35.7849 55.1439 36.2773 55.0625C36.8518 54.9812 37.2622 54.8999 37.5084 54.8185C37.6726 54.7372 37.7546 54.7372 37.8367 54.7372C37.9188 54.7372 37.9188 54.6559 37.9188 54.6559C37.9188 54.6559 37.9188 54.6559 37.8367 54.6559C37.7546 54.6559 37.6726 54.7372 37.5084 54.7372C37.1801 54.8185 36.7697 54.8999 36.2773 54.8999C35.7849 54.8999 35.1283 54.8999 34.3896 54.8185C33.6509 54.7372 32.9122 54.5745 32.0915 54.4932C31.2707 54.4119 30.5321 54.3305 29.7934 54.3305C29.4651 54.3305 29.1368 54.4119 28.8906 54.4119C28.8906 54.4119 28.9726 54.4119 28.9726 54.3305C30.7783 53.6799 32.2556 52.7852 32.9122 51.7279C32.9122 51.7279 31.2707 53.4359 27.9877 54.1679C23.1453 55.1439 17.318 53.6799 17.318 53.6799C13.7067 52.2159 10.4237 50.1012 8.04355 47.0919C6.81242 45.3839 6.07375 43.1065 6.64827 41.0732C6.73035 40.7479 6.81242 40.4225 6.81242 40.1785C6.81242 40.1785 7.63317 32.7772 13.2963 27.2465C19.0416 21.7159 19.3699 19.6012 18.7954 17.3239C18.7954 17.3239 19.2878 20.8212 15.6765 23.9932C11.4907 27.7345 9.11052 27.5719 8.28977 31.4759C7.8794 33.2652 7.30487 33.6719 6.5662 34.4852C5.74545 35.4612 4.76055 35.9492 4.35018 34.4852C4.18603 33.6719 4.10395 33.0212 4.02188 32.4519C4.10395 31.8825 4.10395 31.2319 4.18603 30.6625C4.43225 29.0359 4.84263 27.0839 5.66338 24.9692C5.99168 24.5625 6.40205 24.2372 6.97657 23.8305C7.5511 23.5052 8.28977 23.1799 8.94637 22.8545C9.68504 22.5292 10.3416 22.2039 10.9162 21.7972C11.4907 21.3905 11.9011 20.9839 12.2294 20.5772C12.5577 20.1705 12.8039 19.8452 12.968 19.5199C13.0501 19.3572 13.0501 19.2759 13.1322 19.1945C13.1322 19.1132 13.2143 19.1132 13.2143 19.1132C13.2143 19.1132 13.2143 19.1132 13.1322 19.1945C13.1322 19.2759 13.0501 19.3572 12.968 19.4385C12.8039 19.6825 12.5577 20.0079 12.2294 20.4145C11.9011 20.8212 11.4086 21.2279 10.8341 21.5532C10.2596 21.9599 9.60297 22.2852 8.8643 22.6105C8.12562 22.9359 7.46902 23.2612 6.81242 23.6679C6.40205 23.9119 5.99168 24.2372 5.74545 24.5625C8.2077 18.2999 13.5426 10.8985 22.6529 7.56386C23.5557 7.23853 24.4585 6.9132 25.3613 6.6692C26.1 6.4252 28.3981 5.9372 31.7632 6.01853C32.8302 6.09986 33.4047 6.26253 33.6509 6.34387C34.7179 6.83187 35.8669 7.8892 36.6877 9.8412C38.5754 14.5585 38.0009 16.0225 39.8065 17.6492C39.8065 17.6492 38.5754 14.9652 38.2471 12.1185C38.0829 10.7359 37.7546 9.43453 37.4263 8.45853C36.9339 6.99453 38.3292 5.12387 39.8065 4.7172C39.8886 4.7172 39.9707 4.63586 40.0527 4.63586C40.381 4.55453 40.7914 4.4732 41.1197 4.39187C44.1565 4.39187 46.947 4.63586 49.5734 5.04253C50.3942 5.2052 51.0508 5.28653 51.4611 5.4492C53.6772 5.9372 55.647 6.6692 57.1243 7.48253C58.4375 8.21453 59.9149 8.94653 61.4743 9.5972C61.4743 9.5972 64.5931 10.8985 63.9365 15.2092C63.8545 16.0225 63.7724 16.7545 62.7875 18.5439C62.7875 18.5439 60.6535 22.6919 60.4894 23.0985C60.3252 23.5052 60.079 24.2372 60.1611 24.8879C60.079 24.6439 60.079 23.3425 62.3771 20.2519C62.4592 20.0892 62.5413 20.0079 62.6233 19.9265L63.5262 18.8692C64.7573 17.4865 66.0705 15.8599 65.7422 14.5585C65.4959 13.2572 66.9733 12.1185 70.995 12.8505C74.8525 13.6639 79.0383 14.0705 83.3062 13.5825C84.8656 13.4199 86.343 13.2572 87.7382 13.1759C87.7382 13.1759 92.1703 13.0132 93.8118 14.3959C94.058 14.6399 94.3042 14.8839 94.5504 15.1279C95.125 15.7785 95.4533 17.2425 95.8636 18.2185C96.274 19.1945 97.0127 20.9839 96.1919 22.7732C96.1919 22.7732 97.5872 21.7972 96.9306 19.1132C96.1099 15.6972 96.4382 15.4532 98.6542 14.4772C98.9004 14.3959 100.624 13.7452 102.922 14.7212C104.235 15.2905 105.466 16.0225 106.698 16.9985C113.51 22.0412 113.674 20.5772 115.315 21.5532C117.531 22.8545 124.262 36.9252 117.613 45.4652ZM123.769 32.6145C122.784 25.9452 119.747 19.8452 118.188 18.7879C117.531 18.3812 117.039 18.2999 116.547 18.2999C115.48 18.2999 113.92 18.2185 109.078 14.6399C104.892 11.5492 100.952 10.2479 95.2891 10.2479C92.4986 10.2479 89.3797 10.5732 85.7684 10.8985L84.6194 10.9799C83.4703 11.0612 82.2392 11.1425 81.0081 11.1425C71.4053 11.1425 62.6233 7.4012 56.9602 4.2292C53.1026 2.11453 46.865 0.894531 39.8065 0.894531C32.9122 0.894531 25.8538 2.0332 19.9444 4.2292C6.97657 9.02787 1.88793 23.2612 0.903034 30.9065C-0.163939 39.2025 1.55963 45.8719 5.82753 50.7519C9.02845 54.3305 13.6246 56.9332 19.534 58.5599C24.2123 59.7799 29.6292 60.4305 35.7848 60.4305C39.232 60.4305 42.8433 60.2679 46.4546 59.8612C51.1328 59.3732 61.7205 58.9665 72.0619 58.5599C80.6798 58.2345 88.7231 57.9092 93.4014 57.5839C93.8118 57.5839 94.2222 57.5025 94.6325 57.5025C104.235 56.7705 114.166 56.0385 121.061 47.1732C124.508 42.7812 124.426 36.8439 123.769 32.6145Z" fill="white"/>
<path d="M58.8477 52.3789C58.8477 52.3789 58.7656 52.3789 58.6835 52.3789C58.6015 52.3789 58.5194 52.3789 58.4373 52.3789C58.3552 52.3789 58.2732 52.3789 58.1911 52.4602C57.9449 52.5416 57.6986 52.5416 57.4524 52.6229C57.1241 52.7042 56.7958 52.8669 56.4675 52.9482C56.1392 53.1109 55.7288 53.2736 55.3185 53.4362C54.9081 53.5989 54.4156 53.7616 53.9232 53.9242C53.759 53.9242 53.677 54.0056 53.5128 54.0056C53.3487 54.0056 53.2666 54.0869 53.1024 54.0869C52.8562 54.0869 52.5279 54.1682 52.2817 54.1682C51.7072 54.1682 51.1326 54.0869 50.5581 54.0056C50.2298 54.0056 49.9836 53.9242 49.6553 53.9242C49.4091 53.9242 49.0808 53.9242 48.8346 53.9242C48.26 53.9242 47.7676 54.0056 47.1931 54.0056C46.1261 54.0869 45.2233 54.2496 44.4846 54.3309C43.7459 54.4936 43.0893 54.5749 42.6789 54.7376C42.5969 54.7376 42.5148 54.8189 42.4327 54.8189C42.3506 54.8189 42.2686 54.9002 42.2686 54.9002C42.1865 54.9002 42.1044 54.9816 42.1044 54.9816C42.1044 54.9816 42.1865 54.9816 42.2686 54.9002C42.3506 54.9002 42.3506 54.8189 42.4327 54.8189C42.5148 54.8189 42.5969 54.7376 42.6789 54.7376C43.0893 54.5749 43.6638 54.4122 44.4846 54.2496C45.2233 54.0869 46.2082 53.9242 47.1931 53.7616C47.6855 53.6802 48.26 53.6802 48.8346 53.5989C49.0808 53.5989 49.4091 53.5989 49.7374 53.5989C50.0657 53.5989 50.3119 53.6802 50.6402 53.6802C51.2147 53.7616 51.7892 53.8429 52.3638 53.8429C52.61 53.8429 52.9383 53.8429 53.1845 53.8429C53.3487 53.8429 53.4307 53.8429 53.5949 53.7616C53.759 53.7616 53.8411 53.6802 54.0053 53.6802C54.9902 53.4362 55.893 53.1109 56.6317 52.8669C57.042 52.7042 57.3703 52.6229 57.6166 52.5416C57.9449 52.4602 58.1911 52.4602 58.4373 52.3789C58.5194 52.3789 58.6835 52.3789 58.7656 52.3789C58.8477 52.3789 58.9298 52.3789 59.0118 52.3789C58.7656 52.3789 58.8477 52.3789 58.8477 52.3789Z" fill="white"/>
<path d="M11.1621 49.2068C11.1621 49.2068 11.08 49.1255 10.8338 48.9628C10.7517 48.9628 10.7517 48.8815 10.6696 48.8815C10.5875 48.8002 10.5875 48.8002 10.5055 48.7188C10.3413 48.6375 10.2592 48.4748 10.0951 48.3122C10.013 48.2308 9.93094 48.1495 9.84886 48.0682C9.76679 47.9868 9.68471 47.9055 9.60264 47.8242C9.43849 47.6615 9.27434 47.4175 9.11019 47.1735C8.78189 46.6855 8.53566 46.1975 8.28944 45.5469C8.04321 44.9775 7.96114 44.3269 7.87906 43.7575C7.87906 43.5135 7.79699 43.1882 7.79699 42.9442C7.79699 42.7815 7.79699 42.7002 7.79699 42.6189C7.79699 42.5375 7.79699 42.3749 7.79699 42.2935C7.79699 42.0495 7.87906 41.8869 7.87906 41.7242C7.87906 41.6429 7.87906 41.5615 7.87906 41.4802C7.87906 41.3989 7.87906 41.3175 7.96114 41.3175C8.04321 41.0735 8.04321 40.9922 8.04321 40.9922C8.04321 40.9922 8.04321 41.1549 7.96114 41.3175C7.96114 41.3989 7.96114 41.4802 7.96114 41.4802C7.96114 41.5615 7.96114 41.6429 7.96114 41.7242C7.96114 41.8869 7.96114 42.0495 7.96114 42.2935C7.96114 42.3749 7.96114 42.5375 7.96114 42.6189C7.96114 42.7002 7.96114 42.8629 7.96114 42.9442C7.96114 43.1882 8.04321 43.4322 8.04321 43.7575C8.12529 44.3269 8.28944 44.8962 8.53566 45.4655C8.78189 46.0349 9.02811 46.6042 9.35641 47.0922C9.52056 47.3362 9.68471 47.4988 9.84886 47.7428C9.93094 47.8242 10.013 47.9055 10.0951 47.9868C10.1772 48.0682 10.2592 48.1495 10.3413 48.2308C10.5055 48.3935 10.5875 48.4748 10.7517 48.6375C10.8338 48.7188 10.8338 48.7188 10.9158 48.8002C10.9979 48.8815 10.9979 48.8815 11.08 48.9628C10.9979 49.1255 11.1621 49.2068 11.1621 49.2068Z" fill="white"/>
<path d="M4.67848 32.3706C4.67848 32.3706 4.67848 32.208 4.67848 31.964C4.67848 31.8826 4.67848 31.8013 4.67848 31.72C4.67848 31.6386 4.67848 31.5573 4.67848 31.476C4.67848 31.3133 4.67848 31.0693 4.76056 30.8253C4.76056 30.744 4.76056 30.5813 4.84263 30.4186C4.84263 30.256 4.92471 30.1746 4.92471 30.012C5.00678 29.768 5.08886 29.4426 5.17093 29.1173C5.33508 28.548 5.66338 27.8973 5.99168 27.2466C6.40206 26.596 6.81243 26.0266 7.2228 25.5386C7.46903 25.2946 7.63318 25.0506 7.8794 24.888C7.96148 24.8066 8.12563 24.7253 8.2077 24.644C8.28978 24.5626 8.45393 24.4813 8.536 24.4C8.70015 24.2373 8.94638 24.156 9.11053 24.0746C9.1926 23.9933 9.27468 23.9933 9.35675 23.912C9.43883 23.912 9.5209 23.8306 9.5209 23.8306C9.76713 23.668 9.93128 23.668 9.93128 23.668C9.93128 23.668 9.76713 23.7493 9.60298 23.912C9.5209 23.912 9.5209 23.9933 9.43883 23.9933C9.35675 24.0746 9.27468 24.0746 9.1926 24.156C9.02845 24.2373 8.8643 24.4 8.70015 24.5626C8.61808 24.644 8.536 24.7253 8.37185 24.8066C8.28978 24.888 8.2077 24.9693 8.04355 25.0506C7.79733 25.2133 7.63318 25.4573 7.38695 25.7013C6.97658 26.1893 6.56621 26.7586 6.15583 27.328C5.82753 27.9786 5.49923 28.548 5.33508 29.1986C5.25301 29.524 5.17093 29.768 5.08886 30.012C5.08886 30.1746 5.00678 30.256 5.00678 30.4186C5.00678 30.5813 4.92471 30.6626 4.92471 30.8253C4.84263 31.0693 4.84263 31.3133 4.84263 31.476C4.84263 31.5573 4.84263 31.6386 4.84263 31.72C4.84263 31.8013 4.84263 31.8826 4.84263 31.964C4.67848 32.208 4.67848 32.3706 4.67848 32.3706Z" fill="white"/>
<path d="M39.8051 0.650391C32.8287 0.650391 25.6882 1.87039 19.7788 3.98506C16.5779 5.12372 13.7053 6.91306 11.161 9.27172C8.94496 11.3051 7.05724 13.7451 5.33367 16.5917C1.6403 23.0171 0.655401 29.1171 0.409177 30.8251C-0.657796 39.2837 1.06578 46.0344 5.49782 50.9957C8.69874 54.5744 13.377 57.2584 19.3685 58.8851C24.0467 60.1864 29.5457 60.7557 35.7014 60.7557C39.1485 60.7557 42.7598 60.5931 46.4532 60.1864C51.1314 59.6984 61.7191 59.2917 71.9784 58.8851C80.5963 58.5597 88.6396 58.2344 93.3179 57.9091C93.7283 57.9091 94.1387 57.8277 94.549 57.8277C104.234 57.0957 114.329 56.3637 121.305 47.3357C124.835 42.8624 124.753 36.7624 124.096 32.5331C123.604 29.5237 122.701 26.2704 121.47 23.4237C120.403 20.9024 119.171 19.0317 118.351 18.3811C117.612 17.8931 117.038 17.8931 116.463 17.8117C115.478 17.8117 114.001 17.7304 109.24 14.2331C104.973 11.0611 100.951 9.75972 95.2056 9.75972C92.333 9.75972 89.2142 10.0851 85.6029 10.4104C85.1925 10.4104 84.8642 10.4917 84.4538 10.4917C83.3048 10.5731 82.0737 10.6544 80.8425 10.6544C76.6567 10.6544 72.3067 9.92239 67.8747 8.53972C64.2634 7.40106 60.57 5.77439 56.9588 3.82239C53.3475 1.87039 47.0277 0.650391 39.8051 0.650391ZM39.8051 1.46372C46.7815 1.46372 53.0192 2.68372 56.7946 4.71706C63.1964 8.29572 71.7322 11.6304 81.0067 11.6304C82.2378 11.6304 83.4689 11.5491 84.7001 11.4677C88.8038 11.0611 92.2509 10.6544 95.3698 10.6544C100.376 10.6544 104.398 11.6304 108.83 14.9651C116.053 20.3331 116.217 17.9744 117.94 19.1131C120.403 20.8211 127.789 37.7384 120.731 46.8477C113.672 55.9571 103.495 56.3637 93.3179 57.0957C82.9765 57.9091 54.9069 58.3971 46.3711 59.2917C43.4164 59.6171 39.723 59.8611 35.7834 59.8611C19.5326 59.8611 -1.80684 55.3877 1.312 30.8251C2.21482 23.8304 7.05724 9.35306 20.1071 4.63572C26.3448 2.43972 33.4033 1.46372 39.8051 1.46372Z" fill="#B63829"/>
<path d="M87.902 47.8239H87.3275V46.7666H87.902C88.0662 46.7666 88.2303 46.8479 88.3945 46.9293C88.4765 47.0106 88.5586 47.1733 88.5586 47.3359C88.5586 47.4986 88.4765 47.6613 88.3945 47.7426C88.2303 47.7426 88.0662 47.8239 87.902 47.8239ZM87.9841 45.6279H85.8502V50.0199H87.3275V48.9626H87.9841C88.3945 48.9626 88.7228 48.8813 89.0511 48.7999C89.3794 48.6373 89.6256 48.4746 89.7897 48.2306C89.9539 47.9866 90.036 47.6613 90.036 47.3359C90.036 47.0106 89.9539 46.6853 89.7897 46.4413C89.6256 46.1973 89.3794 46.0346 89.0511 45.8719C88.7228 45.7093 88.3945 45.6279 87.9841 45.6279ZM80.5153 48.1493L80.9257 47.0106L81.336 48.1493H80.5153ZM82.0747 50.0199H83.6341L81.6643 45.6279H80.187L78.2172 50.0199H79.6945L80.0228 49.2879H81.7464L82.0747 50.0199ZM73.621 48.9626V48.2306H74.3597C74.688 48.2306 74.8521 48.3119 74.8521 48.5559C74.8521 48.6373 74.7701 48.7999 74.688 48.7999C74.6059 48.8813 74.5238 48.8813 74.3597 48.8813H73.621V48.9626ZM72.1437 50.0199H74.4417C75.0163 50.0199 75.5087 49.8573 75.837 49.6133C76.1653 49.3693 76.3295 49.0439 76.3295 48.5559C76.3295 48.1493 76.1653 47.8239 75.9191 47.5799C75.5908 47.3359 75.1804 47.2546 74.688 47.2546H73.621V46.7666H76.0012V45.6279H72.1437V50.0199ZM64.1003 48.9626H63.4437V47.9866H64.1003C64.4286 47.9866 64.5928 48.1493 64.5928 48.3933C64.5928 48.5559 64.5107 48.7186 64.4286 48.7999C64.3465 48.9626 64.1824 48.9626 64.1003 48.9626ZM64.3465 47.0106H63.4437V45.6279H61.9664V50.0199H64.1824C64.7569 50.0199 65.2494 49.8573 65.5777 49.6133C65.906 49.3693 66.0701 48.9626 66.0701 48.3933C66.0701 47.9053 65.906 47.5799 65.6597 47.3359C65.3314 47.0919 64.9211 47.0106 64.3465 47.0106ZM55.6466 45.6279L55.5645 47.3359C55.5645 47.6613 55.5645 47.9866 55.4825 48.1493C55.4825 48.3933 55.4004 48.5559 55.3183 48.6373C55.2362 48.7999 55.1542 48.7999 54.99 48.7999C54.9079 48.7999 54.9079 48.7999 54.8259 48.7999L54.7438 50.0199C54.99 50.1013 55.1542 50.1013 55.4004 50.1013C55.8108 50.1013 56.057 50.0199 56.3032 49.7759C56.5494 49.5319 56.6315 49.2066 56.7136 48.7999C56.7957 48.3933 56.8777 47.9053 56.8777 47.2546V46.7666H57.8626V50.0199H59.34V45.6279H55.6466ZM48.0137 50.0199H49.4089L50.8863 47.7426V50.0199H52.3636V45.6279H50.9683L49.4089 47.9053V45.6279H47.9316V50.0199H48.0137ZM43.6637 47.8239H43.0892V46.7666H43.6637C43.8278 46.7666 43.992 46.8479 44.1561 46.9293C44.2382 47.0106 44.3203 47.1733 44.3203 47.3359C44.3203 47.4986 44.2382 47.6613 44.1561 47.7426C43.992 47.7426 43.8278 47.8239 43.6637 47.8239ZM43.7458 45.6279H41.6118V50.0199H43.0892V48.9626H43.7458C44.1561 48.9626 44.4844 48.8813 44.8127 48.7999C45.141 48.6373 45.3873 48.4746 45.5514 48.2306C45.7156 47.9866 45.7976 47.6613 45.7976 47.3359C45.7976 47.0106 45.7156 46.6853 45.5514 46.4413C45.3873 46.1973 45.141 46.0346 44.8127 45.8719C44.4844 45.7093 44.1561 45.6279 43.7458 45.6279ZM39.2316 45.6279H35.8666V50.0199H37.3439V46.7666H39.2316V45.6279Z" fill="#7A1713"/>
<path d="M87.4919 47.4167H86.9995V46.3594H87.574C87.7382 46.3594 87.9023 46.4407 88.0665 46.522C88.1485 46.6034 88.2306 46.766 88.2306 46.9287C88.2306 47.0914 88.1485 47.254 88.0665 47.3354C87.9023 47.4167 87.7382 47.4167 87.4919 47.4167ZM87.574 45.2207H85.4401V49.6127H86.9174V48.5554H87.574C87.9844 48.5554 88.3127 48.474 88.641 48.3927C88.9693 48.23 89.2155 48.0674 89.3797 47.8234C89.5438 47.5794 89.6259 47.254 89.6259 46.9287C89.6259 46.6034 89.5438 46.278 89.3797 46.034C89.2155 45.79 88.9693 45.6274 88.641 45.4647C88.3948 45.302 87.9844 45.2207 87.574 45.2207ZM80.1052 47.8234L80.5156 46.6847L80.926 47.8234H80.1052ZM81.6646 49.6127H83.2241L81.2543 45.2207H79.7769L77.8892 49.6127H79.3665L79.6948 48.8807H81.4184L81.6646 49.6127ZM73.293 48.6367V47.9047H74.0317C74.36 47.9047 74.5241 47.986 74.5241 48.23C74.5241 48.3114 74.442 48.474 74.36 48.474C74.2779 48.5554 74.1958 48.5554 74.0317 48.5554H73.293V48.6367ZM71.8156 49.6127H74.1137C74.6883 49.6127 75.1807 49.45 75.509 49.206C75.8373 48.962 76.0015 48.6367 76.0015 48.1487C76.0015 47.742 75.8373 47.4167 75.5911 47.1727C75.2628 46.9287 74.8524 46.8474 74.36 46.8474H73.293V46.3594H75.6732V45.2207H71.8156V49.6127ZM63.6902 48.6367H63.0336V47.6607H63.6902C64.0185 47.6607 64.1827 47.8234 64.1827 48.0674C64.1827 48.23 64.1006 48.3927 64.0185 48.474C63.9365 48.5554 63.8544 48.6367 63.6902 48.6367ZM64.0185 46.6034H63.1157V45.2207H61.6384V49.6127H63.8544C64.4289 49.6127 64.9214 49.45 65.2497 49.206C65.578 48.962 65.7421 48.5554 65.7421 47.986C65.7421 47.498 65.578 47.1727 65.3317 46.9287C65.0034 46.766 64.511 46.6034 64.0185 46.6034ZM55.2365 45.2207L55.1545 46.9287C55.1545 47.254 55.1545 47.5794 55.0724 47.742C55.0724 47.986 54.9903 48.1487 54.9082 48.23C54.8262 48.3927 54.7441 48.3927 54.5799 48.3927C54.4979 48.3927 54.4979 48.3927 54.4158 48.3927L54.3337 49.6127C54.5799 49.694 54.7441 49.694 54.9903 49.694C55.4007 49.694 55.6469 49.6127 55.8931 49.3687C56.1394 49.1247 56.2214 48.7994 56.3035 48.3927C56.3856 47.986 56.4677 47.498 56.4677 46.8474V46.3594H57.4526V49.6127H58.9299V45.2207H55.2365ZM47.6856 49.6127H49.0809L50.5583 47.3354V49.6127H52.0356V45.2207H50.6403L49.0809 47.498V45.2207H47.6036V49.6127H47.6856ZM43.2536 47.4167H42.6791V46.3594H43.2536C43.4178 46.3594 43.5819 46.4407 43.7461 46.522C43.8281 46.6034 43.9102 46.766 43.9102 46.9287C43.9102 47.0914 43.8281 47.254 43.7461 47.3354C43.5819 47.4167 43.4178 47.4167 43.2536 47.4167ZM43.3357 45.2207H41.2017V49.6127H42.6791V48.5554H43.3357C43.7461 48.5554 44.0744 48.474 44.4027 48.3927C44.731 48.23 44.9772 48.0674 45.1413 47.8234C45.3055 47.5794 45.3876 47.254 45.3876 46.9287C45.3876 46.6034 45.3055 46.278 45.1413 46.034C44.9772 45.79 44.731 45.6274 44.4027 45.4647C44.0744 45.302 43.7461 45.2207 43.3357 45.2207ZM38.9036 45.2207H35.5386V49.6127H37.0159V46.3594H38.9036V45.2207Z" fill="white"/>
</svg>
