<svg width="30" height="16" viewBox="0 0 30 16" fill="none" xmlns="http://www.w3.org/2000/svg">
<path d="M29.9891 8.17885C29.9891 7.68821 29.5915 7.29054 29.1014 7.29117L3.41653 7.29123L8.21893 2.48883C8.56793 2.13982 8.56788 1.57335 8.21893 1.2244C7.86993 0.875398 7.30346 0.875452 6.9545 1.2244L0.632219 7.54669C0.46468 7.71423 0.367929 7.9412 0.367983 8.1789C0.368035 8.4166 0.464679 8.64358 0.632218 8.81111L6.9545 15.1334C7.30351 15.4824 7.86998 15.4824 8.21893 15.1334C8.56788 14.7844 8.56788 14.2179 8.21893 13.869L3.41653 9.06658L29.1015 9.06652C29.5921 9.06652 29.9898 8.66885 29.9891 8.17885Z" fill="white"/>
</svg>
