<svg width="104" height="51" viewBox="0 0 104 51" fill="none" xmlns="http://www.w3.org/2000/svg">
  <path d="M96.3512 18.2238C94.9855 17.4078 94.8489 18.6318 89.1812 14.4158C83.5134 10.1998 77.9822 10.8118 69.6513 11.6278C61.3203 12.4438 53.3991 9.72384 47.7314 6.52784C42.0636 3.33184 29.2258 2.78784 18.9829 6.52784C8.8082 10.2678 4.30131 20.3318 3.61844 25.8398C0.613848 49.8438 31.0012 48.4158 37.6933 47.2598C44.3171 46.1718 71.1536 45.4918 79.2113 45.3558C87.3374 45.2198 92.3223 45.1518 97.8535 38.0118C103.385 30.8718 97.7852 19.1078 96.3512 18.2238Z" fill="#E84437"/>
  <path d="M84.2649 28.492C84.6063 27.54 80.9188 21.216 84.9477 20.468C86.5866 20.196 91.6398 21.42 93.2787 22.576C99.0147 26.452 96.8978 37.808 88.7718 39.1C80.7823 40.46 82.0114 34.68 84.2649 28.492Z" fill="#CD3D2E"/>
  <path d="M23.4213 7.5478C21.6459 8.0238 13.3832 11.0158 8.73977 17.2718C4.0963 23.4598 6.55461 30.8718 7.85205 31.5518C9.14949 32.2318 5.18888 43.7918 21.3727 43.9278C29.1574 43.9958 32.5717 34.8158 32.7082 25.6358C32.8448 15.7758 29.2939 5.9158 23.4213 7.5478Z" fill="#CD3D2E"/>
  <path d="M33.7324 9.24819C34.8932 11.9002 35.7127 14.6882 36.259 17.5442C37.4881 23.8682 39.605 25.0922 41.6536 25.2282C44.5899 25.5002 53.672 16.3202 50.7357 11.5602C48.6188 8.09219 40.4927 6.05219 35.6444 5.64419C34.0055 5.50819 32.8447 7.14019 33.5275 8.63619L33.7324 9.24819Z" fill="#CD3D2E"/>
  <path d="M59.7503 16.1158C62.4134 13.1238 70.5395 13.9398 75.7976 15.7078C81.0556 17.4758 79.0753 40.1198 66.2375 42.5678C53.3997 45.0838 49.8488 27.1998 59.7503 16.1158Z" fill="#CD3D2E"/>
  <path d="M33.1872 20.3999C33.1872 20.3999 33.1189 21.6919 32.7091 23.1199C32.7091 23.3239 32.7091 23.5959 32.7091 23.7999C33.6652 20.6719 33.1872 20.3999 33.1872 20.3999ZM18.3007 43.7919C17.413 44.3359 16.5936 44.6759 15.9107 44.8799C15.4327 45.0159 15.023 45.0839 14.6133 45.1519C15.023 45.2879 16.7984 45.6279 18.9836 45.7639C20.759 45.2199 22.4662 44.1319 22.4662 44.1319C21.7151 44.3359 21.1005 44.4719 20.6908 44.4719C20.2128 44.4719 19.9396 44.3359 20.0079 44.0639V43.9959C19.325 43.8599 18.7787 43.8599 18.3007 43.7919Z" fill="#EC6653"/>
  <path d="M32.6408 23.188C32.436 23.868 32.2311 24.616 31.8897 25.296C31.7531 25.5 31.6848 25.772 31.5482 26.044C31.6848 26.044 31.8214 26.044 31.958 26.044C32.0262 25.84 32.0945 25.636 32.1628 25.432C32.3677 24.888 32.5043 24.344 32.6408 23.936C32.7091 23.596 32.6408 23.392 32.6408 23.188ZM31.1385 28.22C30.8654 28.22 30.5922 28.22 30.3191 28.288C29.6362 29.58 29.1582 30.736 29.1582 31.348C29.1582 31.96 28.8168 32.3 28.2705 32.776C28.2705 34.136 27.8608 34.884 26.9731 34.884H26.9048C26.6316 34.884 26.4268 34.816 26.2219 34.68C25.1293 36.04 24.7879 37.468 23.2856 39.508C22.1247 41.004 20.0762 42.704 18.2324 43.792C18.7787 43.86 19.325 43.928 19.8713 43.928C20.0079 43.52 20.8956 43.452 21.3736 43.112C21.7833 42.772 23.7636 39.508 25.4708 38.828C26.6999 38.352 26.0853 37.128 27.5194 36.788C28.9534 36.448 28.9534 34.544 29.1582 34C29.3631 33.456 30.7971 33.116 30.5922 32.164C30.4557 31.484 30.4557 30.532 31.1385 28.152C31.2068 28.22 31.2068 28.22 31.1385 28.22Z" fill="#E55C44"/>
  <path d="M8.19441 33.3882C8.12612 33.5922 8.12612 33.7962 8.12612 34.0002C8.05784 35.6322 7.92126 36.7882 8.67241 37.7402C8.87727 38.0122 9.08213 38.3522 9.28699 38.6242C8.39927 36.7202 8.2627 34.8162 8.19441 33.3882ZM9.62842 39.1682C9.76499 39.4402 9.83328 39.5762 9.96985 39.6442C9.83328 39.5082 9.69671 39.3042 9.62842 39.1682Z" fill="#EC6653"/>
  <path d="M13.7929 24.0718C13.7246 24.0718 13.6563 24.0718 13.588 24.0718L12.8369 24.7518C12.8369 24.7518 12.9052 24.7518 12.9735 24.7518C13.11 24.7518 13.3832 24.7518 13.3149 25.0238C13.2466 25.3638 12.4955 26.4518 12.4955 26.8598C12.4955 27.1318 12.3589 27.6078 11.9492 28.2198C11.676 28.5598 11.4029 28.9678 10.9249 29.3078C9.8323 30.1918 8.53486 31.8918 8.26172 33.3878C8.33001 34.7478 8.46658 36.7198 9.3543 38.5558C9.49087 38.7598 9.55916 38.9638 9.62744 39.0998C9.69573 39.2358 9.8323 39.4398 9.96888 39.5758L10.0372 39.6438C10.0372 39.6438 10.0372 39.6438 10.1054 39.6438C10.3786 39.5078 10.1054 38.8958 10.8566 38.6238C10.8566 38.6238 10.1054 38.4878 10.1737 37.6718C10.242 36.8558 10.1054 36.1758 9.69573 35.8358C9.21773 35.4958 8.67144 34.2718 9.55916 32.2318C10.4469 30.1918 11.4029 29.5798 11.7443 28.9678C12.0858 28.3558 12.5638 27.6758 12.7003 26.9958C12.8369 26.3838 13.3149 25.4998 13.4515 25.4998C13.4515 25.4998 13.4515 25.4998 13.5198 25.4998C13.588 25.7038 13.3832 26.4518 13.588 26.7918C13.588 26.7918 13.6563 25.7718 13.9978 25.0918C14.2709 24.4798 14.4758 24.0718 13.7929 24.0718Z" fill="#E55C44"/>
  <path d="M83.0366 38.8958C82.8318 38.8958 82.6269 38.9638 82.4221 39.0318C82.3538 39.0318 82.2855 39.0318 82.2172 39.0318C82.0123 39.0318 81.9441 38.8958 81.9441 38.8958C81.8758 39.3718 82.1489 39.2358 82.5586 39.3718C82.6952 39.4398 82.8318 39.4398 82.9001 39.4398C83.0366 39.4398 83.1049 39.3718 83.1049 39.3718C83.1049 39.3718 83.6512 39.7798 83.9244 40.2558C84.1975 40.7318 84.4706 40.3918 84.6072 40.5958C84.7438 40.7998 84.4024 41.0718 83.9244 41.4798C83.5829 41.8198 83.1732 42.0918 83.1732 42.0918C83.1732 42.0918 83.2415 42.0918 83.3781 42.0238C83.5146 41.9558 83.6512 41.9558 83.7195 41.9558C83.9926 41.9558 84.1292 42.2278 84.6072 42.4318C84.7438 42.4998 84.8804 42.5678 85.0169 42.5678C85.4267 42.5678 85.6998 42.2958 86.2461 42.0238C86.929 41.7518 86.9289 41.6158 87.1338 41.2758C87.3387 41.0038 87.407 40.8678 87.1338 40.8678C86.8607 40.8678 86.8607 40.5958 86.5875 40.5958C86.5192 40.5958 86.5192 40.5958 86.4509 40.5958C86.3827 40.5958 86.3144 40.5958 86.2461 40.5958C86.1778 40.5958 86.0412 40.5958 85.9729 40.5278C85.9047 40.5278 85.7681 40.4598 85.6998 40.4598C85.6315 40.4598 85.5632 40.4598 85.4267 40.4598C85.3584 40.4598 85.2218 40.4598 85.1535 40.4598C84.8804 40.4598 84.7438 40.3238 84.7438 40.1878C84.7438 40.1198 84.6755 39.8478 84.4706 39.8478C84.4024 39.8478 84.4024 39.8478 84.3341 39.8478H84.2658C83.9244 39.8478 83.5146 39.0998 83.3098 38.7598C83.3098 38.8958 83.1732 38.8958 83.0366 38.8958Z" fill="#EC6653"/>
  <path d="M58.0435 45.9678C52.922 46.1718 47.8688 46.3758 43.9082 46.6478C47.8688 46.3758 52.922 46.1718 58.0435 45.9678Z" fill="white"/>
  <path d="M52.3749 32.1641C52.3749 32.1641 52.3066 33.2521 52.5798 34.1361C52.7163 34.5441 53.0578 34.8841 53.2626 35.1561C53.4675 35.4281 53.8772 35.7681 54.1503 37.0601C54.2186 37.3321 54.082 37.6721 54.082 38.0121H54.7649C54.8332 36.7201 54.5601 35.8361 53.8772 34.8841C53.604 34.4081 53.3309 34.2721 53.126 33.9321C52.5115 32.9801 52.3749 32.1641 52.3749 32.1641ZM53.8772 41.1401C53.2626 42.2961 51.8969 41.6841 51.214 43.0441C50.258 44.9481 43.1562 46.7161 43.1562 46.7161H43.9757C47.9363 46.4441 52.9895 46.1721 58.1109 46.0361C55.6526 45.6961 53.4675 44.7441 54.0138 42.6361C54.082 42.2961 54.1503 42.0241 54.2186 41.7521H53.9455V41.1401H53.8772Z" fill="#EC6653"/>
  <path d="M51.488 33.9319C49.5759 32.4359 42.4059 28.5599 36.7381 34.8839C31.0704 41.2759 27.3146 44.9479 33.2555 45.7639C39.1964 46.6479 59.136 39.8479 51.488 33.9319Z" fill="#CD3D2E"/>
  <path d="M67.8759 12.9199C67.8759 12.9199 67.8759 12.9879 67.9441 13.0559C67.8759 12.9879 67.8759 12.9879 67.8759 12.9199ZM67.9441 13.0559C68.0124 13.1919 67.8759 13.3279 67.8076 13.3959L67.7393 13.4639C67.5344 13.5319 66.5784 13.9399 65.8273 13.9399C65.6907 13.9399 65.5541 13.9399 65.4176 13.8719C64.8713 13.7359 64.325 13.5319 63.9153 13.5319C63.7104 13.5319 63.5055 13.5999 63.369 13.7359C63.0958 14.0759 62.5495 14.2799 62.0715 14.2799C61.935 14.2799 61.7984 14.2799 61.6618 14.2119C61.457 14.1439 61.1838 14.0759 60.9107 14.0759C60.4327 14.0759 59.7498 14.2119 58.7255 14.4839C58.0426 14.6879 57.4281 14.7559 56.9501 14.7559C56.1306 14.7559 55.516 14.6199 55.1063 14.4159C54.8332 14.3479 54.6283 14.2799 54.4918 14.2799C54.3552 14.4839 54.2186 14.6879 54.082 14.8919C54.3552 14.8239 54.56 14.8239 54.7649 14.8239C55.3795 14.8239 55.8575 15.0279 56.3355 15.1639C56.5403 15.2319 56.7452 15.2319 56.8135 15.2319C56.8818 15.2319 56.8818 15.2319 56.9501 15.2319H57.0183C57.1549 15.2319 57.2915 15.2319 57.5646 15.5039C57.7012 15.6399 57.9061 15.7079 58.0426 15.7759H58.1109C58.2475 15.7759 58.3841 15.6399 58.3158 15.5039C58.3158 15.4359 58.3158 15.3679 58.3158 15.2999C58.3158 15.1639 58.4524 15.1639 58.5206 15.0959C58.6572 15.0279 58.6572 14.9599 58.6572 14.8239V14.7559C58.7255 14.5519 59.4084 14.4839 60.0229 14.4839C60.2278 14.4839 60.4327 14.4839 60.5692 14.5519C60.9789 14.6199 61.3204 14.7559 61.5935 14.8919C61.7984 14.8239 62.0715 14.7559 62.3447 14.6879L62.413 14.6199C62.6861 14.4839 63.0275 14.3479 63.2324 14.2119C63.5055 14.0759 63.7104 14.0079 63.9835 14.0079C64.4615 14.0079 64.803 14.2119 64.9395 14.2799C64.9395 14.2799 65.0078 14.2799 65.0761 14.3479C65.4858 14.3479 65.8273 14.3479 66.237 14.3479C66.3736 14.3479 66.4418 14.3479 66.5784 14.3479C66.5784 14.2799 66.6467 14.2119 66.715 14.1439C67.0564 14.0079 67.3979 13.8719 67.8076 13.8039C68.0124 13.7359 68.0124 13.4639 67.8759 13.3959C68.0124 13.1239 67.9441 13.0559 67.9441 13.0559Z" fill="#EC6653"/>
  <path d="M66.4423 14.1442C66.0326 14.1442 65.6911 14.1442 65.2814 14.1442C65.5546 14.2802 66.1691 14.6202 66.7837 14.6202C66.9203 14.6202 66.9886 14.6202 67.1252 14.5522C67.3983 14.4842 67.6032 14.4842 67.808 14.4842C68.286 14.4842 68.6275 14.6202 68.6275 14.6202C68.5592 14.4842 68.0129 14.3482 67.4666 14.3482C67.33 14.3482 67.1934 14.3482 67.0569 14.3482C67.0569 14.3482 67.0569 14.3482 66.9886 14.3482C66.852 14.3482 66.7837 14.2122 66.7837 14.0762C66.6472 14.1442 66.5106 14.1442 66.4423 14.1442ZM62.55 14.6202C62.2768 14.6882 62.072 14.7562 61.7988 14.8242C62.4134 15.0962 62.55 15.5042 62.6183 15.7082C62.6183 15.8442 62.7548 15.9122 62.8231 15.9122C62.8914 15.9122 62.9597 15.9122 63.028 15.9122C63.7791 15.9122 63.9157 16.1162 63.9157 16.1162C63.9157 16.1162 63.9157 16.1162 63.984 16.1162C64.0523 16.1162 64.1888 16.1162 64.462 15.9802C64.5303 15.9122 64.6669 15.9122 64.7351 15.9122C64.94 15.9122 65.0083 16.0482 65.0766 16.1842C65.0766 16.2522 65.2131 16.3882 65.2814 16.3882C65.2814 16.3882 65.2814 16.3882 65.3497 16.3882C65.418 16.3882 65.418 16.3882 65.4863 16.3882C65.6911 16.3882 65.9643 16.4562 66.1009 16.5242H66.1691H66.2374C66.852 16.2522 67.6032 16.1842 67.6032 16.1842C67.5349 16.1842 67.4666 16.1842 67.33 16.1842C66.9203 16.1842 66.374 16.3202 66.1009 16.3882C66.0326 16.3882 66.0326 16.3882 65.9643 16.3882C65.7594 16.3882 65.6229 16.3202 65.4863 16.2522C65.418 16.2522 65.418 16.1842 65.418 16.1162C65.418 16.0482 65.2814 15.9122 65.2131 15.7762C65.1449 15.7082 65.0766 15.7082 65.0083 15.7082C65.0083 15.7082 65.0083 15.7082 64.94 15.7082C64.8717 15.6402 64.7351 15.6402 64.5986 15.6402C64.2571 15.6402 64.0523 15.5722 63.7791 15.5042C63.6426 15.4362 63.506 15.4362 63.3694 15.4362C63.3011 15.4362 63.1646 15.4362 63.1646 15.4362C63.1646 15.4362 63.1646 15.4362 63.0963 15.4362C63.028 15.4362 62.9597 15.3682 62.8914 15.3002V15.2322C62.8231 15.0962 62.7548 14.9602 62.6183 14.8242C62.4817 14.8242 62.4817 14.6882 62.55 14.6202Z" fill="#E55C44"/>
  <path d="M56.7451 20.4678C55.2428 20.8078 54.0137 22.3038 54.0137 23.5958C54.0137 23.7318 54.0137 23.9358 54.0137 24.0718C54.0137 24.3438 54.0137 24.6158 54.0137 24.8878C54.082 26.3838 54.082 27.2678 54.1502 28.6278C54.4234 25.9078 55.2428 23.1198 56.7451 20.4678Z" fill="#7A1713"/>
  <path d="M57.2916 20.3999C57.0867 20.3999 56.8818 20.3999 56.7453 20.4679C55.3113 23.1199 54.4918 25.9759 54.1504 28.6279C54.1504 29.2399 54.2187 29.9199 54.2187 30.7359C54.287 32.2319 54.8333 33.8639 56.677 33.9999C58.0427 34.0679 59.4084 34.2039 60.7059 34.2719C60.9107 34.2719 61.0473 34.2719 61.1839 34.2719C62.413 34.2719 63.0276 33.9319 63.0959 33.1839C63.0276 32.2999 62.2082 32.3679 60.6376 32.2999C59.6816 32.2319 58.3841 32.0959 57.7013 31.4159C57.2916 31.0759 57.155 30.4639 57.155 29.9199C57.0867 29.3759 57.2916 28.8319 57.5647 28.5599C57.9744 28.1519 58.6573 28.0839 59.3401 28.0839C59.545 28.0839 59.7499 28.0839 59.9547 28.0839C60.5693 28.1519 61.1156 28.2199 61.5253 28.2199C62.0716 28.2199 62.3447 28.0839 62.413 27.6759C62.3447 26.7239 61.5253 26.2479 59.8864 26.1119C58.1793 25.9759 57.155 25.6359 56.677 25.2279C56.4038 25.0239 56.3355 24.8199 56.3355 24.6159C56.3355 24.5479 56.3355 24.4799 56.3355 24.4799V24.4119V24.3439C56.3355 23.4599 56.9501 23.1879 58.111 23.1879C58.6573 23.1879 59.3401 23.2559 60.1596 23.3239C60.3644 23.3239 60.501 23.3239 60.7059 23.3239C61.8667 23.3239 62.5496 22.9839 62.6179 22.2359C62.5496 21.2839 61.7302 20.7399 60.0913 20.6719C58.7939 20.6039 58.7256 20.6039 57.4281 20.4679C57.4281 20.3999 57.3598 20.3999 57.2916 20.3999Z" fill="#6D150F"/>
  <path d="M78.5283 22.7798C78.5283 23.3918 78.5283 24.0038 78.46 24.6838H78.5283C80.3037 24.6838 82.2157 26.6558 82.4889 28.8318C82.762 31.0758 82.0791 33.1158 79.4843 33.5238C79.2794 33.5918 79.0063 33.5918 78.8014 33.5918C77.9137 33.5918 77.1625 33.2518 76.6162 32.7758C76.3431 33.4558 76.0699 34.0678 75.7285 34.6798C76.7528 35.3598 77.9137 35.7678 79.2794 35.7678H79.3477C80.7134 35.7678 81.8743 35.2238 82.6254 34.4078C82.8303 32.7078 83.4449 30.7358 84.196 28.6958C84.1277 28.4238 84.1277 28.0838 84.0594 27.8118C83.9912 27.4718 83.9229 27.1318 83.7863 26.8598C82.9669 24.4118 81.1231 22.8478 78.5283 22.7798Z" fill="#7A1713"/>
  <path d="M84.1956 28.6958C83.4444 30.7358 82.8299 32.7078 82.625 34.4078C83.7176 33.3198 84.2639 31.6198 84.2639 29.7158C84.2639 29.5118 84.2639 29.2398 84.1956 29.0358C84.2639 28.8998 84.1956 28.8318 84.1956 28.6958Z" fill="#6D150F"/>
  <path d="M78.2559 22.7798H78.1876C75.9342 22.7798 74.2953 24.0718 73.4759 25.9078C73.3393 26.1798 73.271 26.4518 73.1345 26.7918C72.9296 27.4038 72.8613 28.0838 72.8613 28.8318C72.8613 29.0358 72.8613 29.1718 72.8613 29.3758C73.0662 31.6878 74.1588 33.5918 75.7293 34.6798C76.0708 34.0678 76.3439 33.3878 76.6171 32.7758C75.7293 32.0278 75.2513 30.8718 75.1148 29.6478C74.8416 27.4038 76.6854 24.6838 78.4608 24.6838C78.5291 24.0038 78.5291 23.3918 78.5291 22.7798C78.3925 22.7798 78.3242 22.7798 78.2559 22.7798Z" fill="#6D150F"/>
  <path d="M83.9238 20.8081C82.7629 20.8081 82.1484 21.1481 82.0801 21.8961C82.1484 22.5081 82.4898 22.9161 83.1044 23.1881C83.0361 22.1681 83.2409 21.2841 83.9921 20.8081H83.9238ZM89.455 21.0121C90.2062 21.2161 90.9573 21.4201 91.6402 21.6921C91.2987 21.2841 90.6159 21.0801 89.6599 21.0121C89.5916 21.0801 89.5233 21.0121 89.455 21.0121Z" fill="#7A1713"/>
  <path d="M83.9918 20.8077C83.2407 21.2837 83.0358 22.1677 83.1041 23.1877C83.4455 23.3237 83.8553 23.3917 84.4016 23.3917C84.8113 23.3917 84.9478 23.5277 85.3576 23.5957C85.9038 23.7317 86.0404 24.7517 86.0404 26.1117C86.0404 26.3837 86.0404 26.7237 86.0404 27.0637C86.0404 27.3357 86.0404 27.6757 85.9721 28.0157C85.9039 29.3757 85.8356 31.0077 85.8356 32.6397C85.8356 32.7077 85.8356 32.8438 85.8356 32.9118C85.8356 33.6598 86.3136 33.9998 86.8599 33.9998C87.5427 33.9998 88.2256 33.5237 88.2939 32.6397C88.3622 31.8917 88.3622 30.8717 88.3622 29.7837C88.3622 29.6477 88.3622 29.5797 88.3622 29.4437C88.3622 29.3757 88.3622 29.2397 88.3622 29.1717V28.2197V27.2677V26.9957C88.3622 26.4517 88.3622 25.9757 88.3622 25.5677C88.3622 24.9557 88.3622 24.4117 88.3622 24.0037C88.3622 23.5957 88.7036 23.4597 89.045 23.4597C89.3864 23.4597 89.7279 23.5277 89.9327 23.5277C90.001 23.5277 90.1376 23.5277 90.2059 23.5277C91.3668 23.5277 91.9813 23.1877 92.0496 22.4397C92.0496 22.0997 91.913 21.8277 91.7082 21.6237C91.0253 21.3517 90.2742 21.1477 89.523 20.9437C87.7476 20.8757 85.9721 20.8077 84.265 20.7397C84.1284 20.8077 84.0601 20.8077 83.9918 20.8077Z" fill="#6D150F"/>
  <path d="M19.5968 19.584C18.8457 19.584 18.1628 19.924 17.6165 20.672C17.48 20.876 17.3434 21.08 17.2068 21.284C17.2068 21.352 17.1385 21.352 17.1385 21.42L16.6605 22.304L16.046 23.392C15.9094 23.8 15.568 24.208 15.4314 24.616L11.8805 31.144C11.7439 31.416 11.6756 31.484 11.5391 32.096C11.6073 32.708 12.1536 33.524 12.8365 33.592C12.9048 33.592 12.9731 33.592 13.0414 33.592C13.7242 33.592 14.2022 33.116 14.6119 32.3C14.8168 31.824 14.8168 31.008 15.2948 30.94C15.7045 30.872 16.1142 30.872 16.4557 30.872C17.8214 30.872 19.2554 31.144 20.5529 31.62C20.7577 31.688 20.826 31.96 20.7577 32.3C20.7577 32.504 20.7577 32.776 20.7577 32.98C20.8943 34.136 21.3723 34.68 22.1917 34.816C22.26 34.816 22.3283 34.816 22.3283 34.816C23.1477 34.816 23.8989 34.068 24.0355 33.456C24.0355 33.32 24.0355 33.252 24.1037 33.184C24.1037 33.048 24.0355 32.912 24.0355 32.708C23.3526 29.104 22.6697 25.5 21.9869 21.896V21.828C21.9186 21.556 21.8503 21.352 21.782 21.148C21.4406 20.332 20.826 19.788 19.87 19.652C19.8017 19.584 19.7334 19.584 19.5968 19.584ZM18.8457 28.696C17.8214 28.696 16.5922 28.288 16.7971 27.676C16.7288 27.54 16.7288 27.472 16.7971 27.336C17.7531 25.296 18.2994 22.848 19.1188 22.848C19.1871 22.848 19.1871 22.848 19.2554 22.848C19.87 23.052 20.2114 24.14 20.2114 25.908C20.2114 26.52 20.2114 27.2 20.1431 28.016C20.1431 28.492 19.5286 28.696 18.8457 28.696Z" fill="#6D150F"/>
  <path d="M35.0314 18.02C33.9388 18.02 33.3925 18.428 33.3242 19.176C33.3925 20.128 34.0754 20.264 35.5094 20.604C36.7385 20.876 37.6263 20.876 37.6945 22.44V22.508C37.6945 22.78 37.7628 22.984 37.7628 23.256C37.8994 25.636 38.036 28.22 38.036 29.24C38.036 30.872 38.7871 32.028 39.948 32.164C40.0163 32.164 40.0163 32.164 40.0846 32.164C40.2211 32.096 40.426 32.028 40.5626 31.96C40.6991 31.824 40.6991 31.62 40.6991 31.348C40.6991 30.804 40.5626 30.124 40.5626 29.444C40.4943 27.404 40.4943 26.248 40.426 24.888C38.8554 24.344 37.3531 22.712 36.3288 18.088C36.0557 18.088 35.8508 18.02 35.5777 18.02C35.4411 18.088 35.2362 18.02 35.0314 18.02Z" fill="#7A1713"/>
  <path d="M36.4648 18.1558C37.4891 22.7798 38.9914 24.4118 40.562 24.9558C40.562 24.4798 40.4937 24.0718 40.4254 23.5278C40.4254 23.2558 40.3572 23.0518 40.3572 22.7798C40.3572 22.5758 40.2889 22.3718 40.2889 22.0998C40.2889 22.0318 40.2889 21.9638 40.2889 21.8958C40.2889 21.8278 40.2889 21.8278 40.2889 21.7598C40.2206 21.2838 40.6986 21.1478 41.1766 21.1478C41.5863 21.1478 41.996 21.2158 42.2009 21.2158C42.6789 21.2838 43.0886 21.2838 43.3618 21.2838C44.0446 21.2838 44.2495 21.0798 44.3178 20.5358C44.2495 19.5158 43.43 18.8358 41.7912 18.6998C40.0157 18.6318 38.2403 18.4278 36.4648 18.1558Z" fill="#6D150F"/>
  <path d="M40.6304 32.0278C40.4938 32.0958 40.2889 32.1638 40.1523 32.2318C40.3572 32.2998 40.5621 32.1638 40.6304 32.0278Z" fill="#6D150F"/>
  <path d="M45.3409 23.3921C44.3849 24.2081 43.4289 24.7521 42.6777 25.0241C42.8143 27.6081 43.1557 29.1721 43.3606 31.3481C43.6337 31.3481 43.9069 31.3481 44.18 31.3481C45.8189 31.3481 47.3212 31.7561 48.5504 32.2321C49.0284 32.2321 49.5064 32.2321 49.9161 32.1641C52.1012 31.8921 53.1938 30.6001 53.2621 29.0361C53.1938 27.4041 52.033 25.5681 49.9161 24.4121C49.3698 24.1401 48.8235 23.8681 48.2089 23.7321C47.1163 23.5281 46.2286 23.5281 45.3409 23.3921ZM47.3212 30.3961C46.4335 30.3961 45.7506 30.2601 45.6823 30.1241C45.4775 29.3081 45.3409 28.4921 45.3409 27.8801C45.2726 26.5881 45.7506 25.7721 47.1163 25.7721C47.2529 25.7721 47.4578 25.7721 47.5943 25.7721C49.2332 25.9761 49.9844 27.2001 50.0527 28.4921C50.0527 28.5601 50.0527 28.6281 50.0527 28.6961V28.7641C50.1892 30.0561 48.6186 30.3961 47.3212 30.3961Z" fill="#7A1713"/>
  <path d="M44.18 23.3237C43.4971 23.3237 43.0874 23.4597 42.8825 23.7997C42.6777 24.0717 42.6094 24.4117 42.6094 24.8197C42.6094 24.8877 42.6094 24.8877 42.6094 24.9557V25.0237C43.3605 24.7517 44.3165 24.1397 45.2725 23.3917C45.136 23.3917 44.9994 23.3917 44.8628 23.3237C44.658 23.3237 44.3848 23.3237 44.18 23.3237Z" fill="#6D150F"/>
  <path d="M44.1124 31.416C43.8393 31.416 43.5661 31.416 43.293 31.416C43.3613 31.96 43.3613 32.504 43.4295 33.048C43.4978 34.544 43.771 35.7 44.9318 35.904C45.0001 35.904 45.1367 35.904 45.205 35.904C45.8878 35.904 46.0927 35.428 46.0927 34.612C46.0927 34.476 46.0927 34.272 46.0927 34.068C46.0927 34 46.0927 33.932 46.0927 33.864C46.0927 33.796 46.0927 33.796 46.0927 33.728C46.0244 32.3 47.1853 32.232 48.4827 32.232C47.1853 31.756 45.683 31.416 44.1124 31.416Z" fill="#6D150F"/>
  <path d="M64.8717 19.856C63.984 19.856 63.6426 20.4 63.6426 21.556C63.6426 21.624 63.6426 21.624 63.6426 21.692C63.7109 22.916 63.7109 24.004 63.7792 25.024C63.7792 25.296 63.7792 25.568 63.7792 25.84C63.8474 27.268 63.8474 28.696 63.9157 30.328C63.984 31.756 64.3937 33.116 65.418 33.184C65.4863 33.184 65.4863 33.184 65.5546 33.184C66.1009 33.184 66.2375 32.98 66.3057 32.572C66.3057 32.3 66.2375 31.96 66.2375 31.552C66.2375 30.872 66.0326 30.056 66.0326 29.58C66.0326 29.104 66.1009 28.696 66.5106 28.696C66.5789 28.696 66.7155 28.696 66.852 28.764C69.1055 29.376 68.4226 32.64 70.0615 34.408C70.6761 35.088 71.0858 35.496 71.7686 35.564C71.7686 35.564 71.7686 35.564 71.8369 35.564C72.4515 35.564 73.0661 35.088 73.1344 34.408C73.0661 34 72.7929 33.524 72.3149 32.98C70.8809 31.416 69.9249 29.988 69.6518 28.016C69.6518 27.88 69.6518 27.812 69.6518 27.676C69.5835 27.2 69.7883 26.86 70.0615 26.52C70.2663 26.248 70.6078 25.976 70.9492 25.704C71.6321 25.228 72.4515 24.82 72.9295 24.276C73.3392 23.868 73.6124 23.46 73.6124 22.984C73.5441 22.236 72.8612 21.624 72.1784 21.624C72.1784 21.624 72.1784 21.624 72.1101 21.624C71.5638 21.624 71.1541 21.964 70.6078 22.644C69.8566 23.46 69.3786 24.616 68.6958 25.5C68.4909 25.772 68.286 26.044 68.0129 26.316C67.6715 26.656 67.2618 26.86 66.7837 26.996C66.7155 26.996 66.7155 26.996 66.6472 26.996C66.3057 26.996 66.1009 26.656 66.0326 26.112C65.9643 25.84 65.9643 25.568 65.9643 25.228C65.9643 24.888 65.9643 24.48 65.9643 24.14C65.9643 23.8 65.9643 23.46 65.9643 23.188C65.9643 23.12 65.9643 23.052 65.9643 22.984C65.896 21.556 66.0326 19.992 65.0083 19.924C64.8717 19.856 64.8717 19.856 64.8717 19.856Z" fill="#6D150F"/>
  <path d="M34.5526 22.0317C34.2795 22.0317 34.0746 22.0997 33.8698 22.2357C33.6649 22.3717 33.5283 22.5757 33.4601 22.9157C33.3918 23.2557 33.3235 23.5957 33.3235 24.0717C33.3235 24.4117 33.3235 24.6837 33.3235 24.8877C33.3235 25.5677 33.3235 25.9077 32.7772 25.9757C32.7772 26.8597 32.7089 27.6757 32.6406 28.5597C32.7089 28.5597 32.7089 28.6277 32.7772 28.6277C33.4601 28.9677 33.5283 30.1917 33.5283 31.3477C33.5283 31.7557 33.5283 32.2317 33.5283 32.5717V32.6397C33.5966 34.2717 34.0746 35.0877 34.9624 35.0877H35.0306C35.9184 35.0877 36.3281 34.4077 36.3281 33.0477C36.2598 29.5117 36.1915 27.9477 36.1232 24.4797C36.1232 23.9357 36.0549 23.5277 35.9184 23.1197C35.8501 22.7797 35.7135 22.5077 35.5086 22.3717C35.2355 22.0997 34.9624 22.0317 34.5526 22.0317Z" fill="#7A1713"/>
  <path d="M26.4947 19.7881C25.7436 19.7881 25.3338 20.3321 25.1973 21.4201C25.1973 21.5561 25.1973 21.6921 25.1973 21.8281C25.1973 21.8961 25.1973 21.9641 25.1973 22.0321C25.2656 25.5001 25.4021 28.9001 25.4704 32.3681C25.4704 33.5241 25.7436 34.2721 26.2898 34.6121C26.4264 34.4761 26.563 34.2721 26.6996 34.1361C27.3141 33.4561 27.8604 33.0481 28.2701 32.7761C28.2701 32.0961 28.1336 31.1441 28.1336 30.3961C28.1336 29.5801 28.2019 28.8321 28.7482 28.6961C29.3627 28.4921 29.909 28.3561 30.3187 28.2881C30.7285 27.5401 31.1382 26.7241 31.5479 25.9761C30.9333 25.9761 30.1822 25.9081 28.7482 25.8401C28.0653 25.8401 27.997 24.7521 27.997 23.6641C27.997 23.1881 27.997 22.7121 27.997 22.3041C27.997 22.2361 27.997 22.2361 27.997 22.1681C27.997 21.9641 27.997 21.7601 27.9287 21.5561C27.8604 20.4001 27.3824 19.7881 26.4947 19.7881ZM32.7088 25.9761C32.6405 25.9761 32.5039 25.9761 32.3673 25.9761C32.299 25.9761 32.2308 25.9761 32.1625 25.9761C32.0942 25.9761 32.0259 25.9761 31.9576 25.9761C31.6845 26.8601 31.4113 27.5401 31.2747 28.2201C31.6845 28.2201 32.0942 28.3561 32.5722 28.5601C32.6405 27.6761 32.6405 26.8601 32.7088 25.9761Z" fill="#6D150F"/>
  <path d="M31.5471 25.9761C31.1374 26.7241 30.7277 27.5401 30.318 28.2881C30.6594 28.2201 30.9325 28.2201 31.1374 28.2201H31.2057C31.4105 27.6081 31.6154 26.8601 31.8885 25.9761C31.8203 25.9761 31.6837 25.9761 31.5471 25.9761ZM28.2694 32.7761C27.8596 33.1161 27.3134 33.5241 26.6988 34.1361C26.5622 34.2721 26.4256 34.4761 26.2891 34.6121C26.4939 34.7481 26.6988 34.8161 26.9719 34.8161H27.0402C27.8596 34.8841 28.2694 34.2041 28.2694 32.7761Z" fill="#7A1916"/>
  <path d="M78.5292 24.6841H78.4609C78.3926 25.2281 78.3926 25.7721 78.3244 26.2481C78.3926 26.2481 78.4609 26.2481 78.4609 26.2481C78.4609 26.2481 78.4609 26.2481 78.5292 26.2481C79.6218 26.2481 80.851 27.6081 80.9875 29.0361C81.1241 30.5321 80.2364 32.1641 79.1438 32.2321C79.1438 32.2321 79.1438 32.2321 79.0755 32.2321C78.4609 32.2321 77.7098 31.8921 77.1635 31.2801C77.0269 31.7561 76.822 32.3001 76.6172 32.7761C77.2318 33.2521 77.9146 33.5921 78.8024 33.5921C79.0072 33.5921 79.2121 33.5921 79.4852 33.5241C82.0118 33.1161 82.763 31.0081 82.4898 28.8321C82.2167 26.5881 80.3047 24.6841 78.5292 24.6841Z" fill="#7A1713"/>
  <path d="M78.4599 24.6841C76.6162 24.7521 74.8407 27.4721 75.1139 29.6481C75.2504 30.8721 75.7967 32.0281 76.6162 32.7761C76.821 32.3001 77.0259 31.7561 77.1625 31.2801C76.7527 30.8041 76.4796 30.2601 76.4113 29.6481C76.2747 28.2201 77.2307 26.5201 78.3233 26.3161C78.3916 25.7041 78.3916 25.1601 78.4599 24.6841Z" fill="#6D150F"/>
  <path d="M78.5278 26.248C78.4595 26.248 78.4595 26.248 78.5278 26.248C78.4595 26.248 78.3913 26.248 78.323 26.248C78.1181 27.88 77.7084 29.58 77.1621 31.28C77.7084 31.892 78.4596 32.232 79.0741 32.232C79.0741 32.232 79.0741 32.232 79.1424 32.232C80.235 32.232 81.191 30.6 80.9861 29.036C80.7813 27.54 79.6204 26.248 78.5278 26.248Z" fill="#7A1713"/>
  <path d="M78.2551 26.248C77.1626 26.452 76.2066 28.152 76.3431 29.58C76.4114 30.192 76.6846 30.804 77.0943 31.212C77.7089 29.58 78.0503 27.88 78.2551 26.248Z" fill="#6D150F"/>
  <path d="M60.7057 31.892C59.7496 31.824 58.4522 31.688 57.7693 31.008C57.3596 30.668 57.2231 30.056 57.2231 29.512C57.1548 28.968 57.3596 28.424 57.6328 28.152C58.1108 27.608 59.2034 27.608 60.0228 27.676C61.5251 27.812 62.3445 28.016 62.4128 27.2C62.3445 26.248 61.5251 25.772 59.8862 25.636C58.1791 25.5 57.1548 25.16 56.6768 24.752C56.4036 24.548 56.3353 24.344 56.3353 24.14C56.3353 24.072 56.3353 24.004 56.3353 24.004V23.936V23.868C56.3353 22.508 57.7693 22.644 60.2276 22.848C61.7299 22.984 62.5494 22.644 62.6177 21.76C62.5494 20.808 61.7299 20.264 60.0911 20.196C58.7936 20.128 58.7254 20.128 57.4279 19.992C55.5842 19.856 53.9453 21.692 53.9453 23.188C53.9453 23.392 53.9453 23.528 53.9453 23.664C53.9453 23.936 53.9453 24.208 53.9453 24.48C54.0136 26.588 54.0819 27.608 54.1502 30.328C54.2185 31.824 54.7647 33.456 56.6085 33.592C57.9742 33.66 59.3399 33.796 60.6374 33.864C62.1397 34 62.9591 33.592 63.0274 32.776C63.0957 31.892 62.2762 32.028 60.7057 31.892Z" fill="white"/>
  <path d="M84.2651 28.6281C84.1968 28.2201 84.1968 27.8121 84.0602 27.4721C83.9919 27.1321 83.9236 26.7921 83.7871 26.5201C82.8993 23.9361 80.919 22.3721 78.1193 22.4401C75.8659 22.4401 74.227 23.7321 73.4075 25.5681C73.271 25.8401 73.2027 26.1121 73.0661 26.4521C72.8613 27.0641 72.793 27.7441 72.793 28.4921C72.793 28.6961 72.793 28.8321 72.793 29.0361C73.1344 32.8441 75.7293 35.4961 79.2802 35.4281C82.4896 35.4281 84.1968 32.7081 84.2651 29.3761C84.2651 29.1041 84.2651 28.8321 84.2651 28.6281Z" fill="white"/>
  <path d="M89.6599 20.6718C87.8161 20.6038 86.0407 20.5358 84.197 20.4678C82.8312 20.3998 82.1484 20.8078 82.0801 21.5558C82.1484 22.5078 82.8995 22.9838 84.4018 23.0518C84.8115 23.0518 84.9481 23.1878 85.3578 23.2558C85.9041 23.3918 86.0407 24.4118 86.0407 25.7718C86.0407 26.0438 86.0407 26.3838 86.0407 26.7238C86.0407 26.9958 86.0407 27.3358 85.9724 27.6758C85.9041 29.0358 85.8358 30.6678 85.8358 32.2998C85.8358 32.3678 85.8358 32.5038 85.8358 32.5718C85.8358 34.2718 88.1576 33.8638 88.3624 32.2998C88.4307 31.5518 88.4307 30.5318 88.4307 29.4438C88.4307 29.3078 88.4307 29.2398 88.4307 29.1038C88.4307 29.0358 88.4307 28.8998 88.4307 28.8318V27.8798V26.9278V26.6558C88.4307 26.1118 88.4307 25.6358 88.4307 25.2278C88.4307 24.6158 88.4307 24.0718 88.4307 23.6638C88.4307 22.8478 89.5916 23.2558 89.933 23.2558C91.2987 23.3238 91.9816 22.9838 92.0499 22.1678C91.9133 21.2158 91.0939 20.7398 89.6599 20.6718Z" fill="white"/>
  <path d="M20.2797 25.5678C20.2797 26.1798 20.2797 26.8598 20.2114 27.6758C20.0748 28.8318 16.4557 28.2878 16.8654 27.2678C16.7971 27.1318 16.7971 27.0638 16.8654 26.9278C17.8214 24.7518 18.436 22.2358 19.3237 22.5078C19.9383 22.7118 20.2797 23.7318 20.2797 25.5678ZM24.1037 32.2998C23.4209 28.6958 22.738 25.0918 22.0551 21.4878V21.4198C21.9869 21.1478 21.9186 20.9438 21.8503 20.7398C21.5089 19.9238 20.8943 19.3798 19.9383 19.2438C18.9823 19.1078 18.2311 19.4478 17.6165 20.3318C17.48 20.5358 17.3434 20.7398 17.2068 20.9438C17.2068 21.0118 17.1385 21.0118 17.1385 21.0798L16.6605 21.9638L16.046 23.0518C15.9094 23.4598 15.568 23.8678 15.4314 24.2758L11.8805 30.8038C11.7439 31.0758 11.6756 31.1438 11.5391 31.7558C11.6073 32.3678 12.1536 33.1838 12.8365 33.2518C13.6559 33.3878 14.2022 32.8438 14.6119 31.9598C14.8168 31.4838 14.8168 30.6678 15.2948 30.5998C17.0703 30.3958 18.914 30.6678 20.5529 31.2798C20.7577 31.3478 20.826 31.6198 20.7577 31.9598C20.7577 32.1638 20.7577 32.4358 20.7577 32.6398C20.8943 33.7958 21.3723 34.3398 22.1917 34.4758C23.0794 34.6118 23.9672 33.7278 24.0355 33.1158C24.0355 32.9798 24.0354 32.9118 24.1037 32.8438C24.172 32.6398 24.1037 32.5038 24.1037 32.2998Z" fill="white"/>
  <path d="M41.7898 18.4281C39.8095 18.1561 37.7609 17.9521 35.7806 17.6801C34.2101 17.4761 33.4589 17.8841 33.3906 18.7681C33.4589 19.7201 34.1418 19.8561 35.5758 20.1961C36.8049 20.4681 37.6927 20.4681 37.7609 22.0321V22.1001C37.7609 22.3721 37.8292 22.5761 37.8292 22.8481C37.9658 25.2281 38.1024 27.8121 38.1024 28.8321C38.1024 30.4641 38.8535 31.6201 40.0144 31.7561C40.629 31.8241 40.7655 31.4841 40.7655 30.8721C40.7655 30.3281 40.629 29.6481 40.629 28.9681C40.5607 26.3161 40.629 25.1601 40.3558 22.9841C40.3558 22.7801 40.2875 22.5081 40.2875 22.2361C40.2875 22.0321 40.2193 21.8281 40.2193 21.5561C40.2193 21.4881 40.2193 21.4201 40.2193 21.3521C40.2193 21.2841 40.2193 21.2841 40.2193 21.2161C40.0827 20.4001 41.7216 20.6721 42.1313 20.7401C43.7019 20.9441 44.1799 20.8761 44.2481 20.0601C44.1799 19.2441 43.4287 18.6321 41.7898 18.4281Z" fill="white"/>
  <path d="M50.1209 28.3561C50.2574 30.5321 45.8188 30.0561 45.6823 29.7161C45.4774 28.9001 45.3408 28.0841 45.3408 27.4721C45.2725 26.0441 45.8871 25.1601 47.5943 25.3641C49.2331 25.5681 49.9843 26.7921 50.0526 28.0841C50.0526 28.1521 50.0526 28.2201 50.0526 28.2881C50.1209 28.2881 50.1209 28.3561 50.1209 28.3561ZM49.7794 24.0721C49.2332 23.8001 48.6869 23.5281 48.0723 23.3921C47.048 23.1201 45.9554 23.1201 44.9311 22.9841C43.8385 22.8481 43.224 22.9841 42.8825 23.3921C42.6777 23.6641 42.6094 24.0041 42.6094 24.4121C42.6094 24.4801 42.6094 24.4801 42.6094 24.5481C42.7459 27.7441 43.224 29.4441 43.4288 32.6401C43.4971 34.1361 43.7702 35.2921 44.9311 35.4961C45.8871 35.6321 46.092 35.1561 46.092 34.2041C46.092 34.0681 46.092 33.8641 46.092 33.6601C46.092 33.5921 46.092 33.5241 46.092 33.4561C46.092 33.3881 46.092 33.3881 46.092 33.3201C45.9554 31.4161 48.2089 31.9601 49.8477 31.7561C52.0329 31.4841 53.1255 30.1921 53.1938 28.6281C53.1255 27.0641 51.8963 25.2281 49.7794 24.0721Z" fill="white"/>
  <path d="M70.9493 25.2959C71.6321 24.8199 72.4516 24.4119 72.9296 23.8679C73.3393 23.4599 73.6124 23.0519 73.6124 22.5759C73.5442 21.8279 72.8613 21.2159 72.1784 21.2159C71.6321 21.2159 71.1541 21.5559 70.6078 22.2359C69.8567 23.0519 69.3787 24.2079 68.6958 25.0919C68.491 25.3639 68.2861 25.6359 68.013 25.9079C67.6715 26.2479 67.2618 26.4519 66.7838 26.5879C66.3741 26.6559 66.1692 26.3159 66.0327 25.7039C65.9644 25.4319 65.9644 25.1599 65.9644 24.8199C65.9644 24.4799 65.9644 24.0719 65.9644 23.7319C65.9644 23.3919 65.9644 23.0519 65.9644 22.7799C65.9644 22.7119 65.9644 22.6439 65.9644 22.5759C65.8961 21.1479 66.0327 19.5839 65.0084 19.5159C64.0524 19.4479 63.7109 20.0599 63.7109 21.2159C63.7109 21.2839 63.7109 21.2839 63.7109 21.3519C63.7792 22.5759 63.7792 23.6639 63.8475 24.6839C63.8475 24.9559 63.8475 25.2279 63.8475 25.4999C63.9158 26.9279 63.9158 28.3559 63.9841 29.9879C64.0524 31.4159 64.4621 32.7759 65.4864 32.8439C66.101 32.8439 66.3058 32.7079 66.3058 32.2319C66.3058 31.9599 66.2375 31.6199 66.2375 31.2119C66.2375 30.5319 66.0327 29.7159 66.0327 29.2399C65.9644 28.6279 66.101 28.2199 66.8521 28.4239C69.1056 29.0359 68.4227 32.2999 70.0616 34.0679C70.6761 34.7479 71.0859 35.1559 71.7687 35.2239C72.3833 35.2239 73.0662 34.7479 73.1344 34.0679C73.0662 33.6599 72.793 33.1839 72.315 32.6399C70.881 31.0759 69.925 29.6479 69.6518 27.6759C69.6518 27.5399 69.6518 27.4719 69.6518 27.3359C69.5836 26.8599 69.7884 26.5199 70.0616 26.1799C70.2664 25.7719 70.6078 25.4999 70.9493 25.2959Z" fill="white"/>
  <path d="M35.8499 22.7121C35.7816 22.3721 35.6451 22.1001 35.4402 21.9641C35.2353 21.7601 34.8939 21.6241 34.5525 21.6241C34.2793 21.6241 34.0062 21.6921 33.8013 21.8281C33.5965 21.9641 33.4599 22.1681 33.3916 22.5081C33.3233 22.8481 33.255 23.1881 33.255 23.6641C33.255 24.0041 33.255 24.2761 33.255 24.4801C33.255 25.2961 33.1868 25.5681 32.3673 25.5681C31.5479 25.5681 30.9333 25.5001 28.7481 25.4321C28.0653 25.4321 27.997 24.3441 27.997 23.2561C27.997 22.7801 27.997 22.3041 27.997 21.8961C27.997 21.8281 27.997 21.8281 27.997 21.7601C27.997 21.5561 27.997 21.3521 27.9287 21.1481C27.7921 19.9241 27.3141 19.3121 26.4947 19.2441C25.6753 19.2441 25.2656 19.7881 25.1973 20.8761C25.1973 21.0121 25.1973 21.1481 25.1973 21.2841C25.1973 21.3521 25.1973 21.4201 25.1973 21.4881C25.2656 25.1601 25.4021 28.5601 25.4704 32.0281C25.5387 33.6601 26.0167 34.4761 26.9044 34.4761C27.7921 34.4761 28.2019 33.7961 28.2701 32.3681C28.2701 31.6881 28.1336 30.7361 28.1336 29.9881C28.1336 29.1721 28.2019 28.4241 28.7481 28.2881C30.7284 27.7441 31.343 27.5401 32.6405 28.2201C33.3233 28.5601 33.3916 29.7841 33.3916 30.9401C33.3916 31.3481 33.3916 31.8241 33.3916 32.1641V32.2321C33.4599 33.8641 33.9379 34.6801 34.8256 34.6801C35.7133 34.6801 36.1231 34.0001 36.1914 32.6401C36.1231 29.1041 36.0548 27.5401 35.9865 24.0721C36.0548 23.5281 35.9865 23.1201 35.8499 22.7121Z" fill="white"/>
  <path d="M78.4599 24.2761C80.3036 24.2081 82.2156 26.1801 82.4888 28.4241C82.7619 30.6681 82.0791 32.7081 79.4842 33.1161C76.9576 33.5241 75.387 31.4841 75.1139 29.2401C74.8407 27.0641 76.6162 24.3441 78.4599 24.2761Z" fill="#882919"/>
  <path d="M78.4602 25.8398C79.6211 25.8398 80.7819 27.1318 80.9868 28.6278C81.1234 30.1238 80.2356 31.7559 79.1431 31.8239C78.0505 31.8239 76.5482 30.6679 76.4116 29.1718C76.2068 27.6758 77.2993 25.9078 78.4602 25.8398Z" fill="white"/>
  <path d="M23.0117 44.5398C23.0117 44.5398 23.08 44.5398 23.2166 44.4718C23.3531 44.4038 23.558 44.3358 23.7629 44.2678C24.2409 44.0638 24.8554 43.7918 25.5383 43.4518C26.2212 43.0438 26.7675 42.7038 27.1089 42.3638C27.3138 42.2278 27.4503 42.0918 27.5869 41.9558C27.7235 41.8878 27.7235 41.8198 27.7235 41.8198C27.7235 41.8198 27.6552 41.8878 27.5869 41.9558C27.5186 42.0918 27.382 42.2278 27.1772 42.3638C26.8357 42.7038 26.2895 43.1118 25.6066 43.5198C24.9237 43.9278 24.3092 44.1318 23.8312 44.2678C23.558 44.3358 23.4214 44.4038 23.2849 44.4038C23.08 44.5398 23.0117 44.5398 23.0117 44.5398Z" fill="white"/>
  <path d="M79.3473 19.9919C79.3473 19.9919 79.3473 19.9239 79.4156 19.7879C79.4839 19.6519 79.5522 19.4479 79.6887 19.2439C79.8936 18.7679 80.3033 18.1559 80.0984 17.3399C80.0302 16.9319 79.8936 16.5919 79.757 16.3199C79.6204 15.9799 79.5522 15.7079 79.4156 15.5039C79.279 15.2999 79.2107 15.0959 79.1424 14.9599C79.0741 14.8239 79.0059 14.7559 79.0059 14.7559C79.0059 14.7559 79.0741 14.8239 79.1424 14.9599C79.2107 15.0959 79.3473 15.2319 79.4156 15.5039C79.5522 15.7079 79.6887 16.0479 79.757 16.3199C79.8936 16.6599 80.0302 16.9999 80.0984 17.4079C80.0984 17.6119 80.1667 17.8159 80.1667 18.0199C80.1667 18.0879 80.1667 18.2239 80.0984 18.2919C80.0984 18.3599 80.0302 18.4959 80.0302 18.5639C79.8936 18.9039 79.757 19.1759 79.6204 19.3799C79.4839 19.5839 79.4156 19.7879 79.3473 19.9239V19.9919Z" fill="white"/>
  <path d="M98.2629 27.6757C98.2629 27.6757 98.2629 27.4717 98.2629 27.0637C98.2629 26.6557 98.2629 26.1117 98.2629 25.4317C98.1946 24.7517 98.1263 23.9357 97.8532 23.1197C97.6483 22.2357 97.2386 21.3517 96.7606 20.4677C96.624 20.2637 96.5558 19.9917 96.4192 19.7877C96.2826 19.5837 96.146 19.3797 96.0095 19.1757C95.8729 19.0397 95.668 18.9037 95.4632 18.7677C95.2583 18.6317 95.0535 18.5637 94.8486 18.4957C94.6437 18.4277 94.4389 18.3597 94.234 18.2917C94.0974 18.2237 94.0292 18.2237 93.9609 18.1557C93.8926 18.0877 93.756 18.0877 93.6877 18.0197C93.3463 17.8157 93.0049 17.6797 92.7317 17.4757C92.1171 17.1357 91.6391 16.8637 91.366 16.5917C91.2294 16.4557 91.0928 16.3877 91.0928 16.2517C91.0246 16.1837 91.0928 16.1157 91.0928 16.1157C91.0928 16.1157 91.0928 16.1837 91.0928 16.2517C91.1611 16.3197 91.2294 16.4557 91.4343 16.5237C91.7757 16.7277 92.2537 16.9997 92.8683 17.2717C93.1414 17.4077 93.4829 17.6117 93.8926 17.7477C93.9609 17.8157 94.0974 17.8157 94.1657 17.8837C94.234 17.9517 94.3706 17.9517 94.4389 18.0197C94.6437 18.0877 94.8486 18.1557 95.0535 18.2237C95.4632 18.3597 96.0095 18.4957 96.3509 18.9037C96.6923 19.3117 96.8972 19.7877 97.1703 20.1957C97.6483 21.1477 97.9898 22.0997 98.2629 22.9837C98.4678 23.8677 98.5361 24.6837 98.5361 25.3637C98.5361 26.0437 98.4678 26.5877 98.4678 26.9957C98.3312 27.4717 98.2629 27.6757 98.2629 27.6757Z" fill="white"/>
  <path d="M38.7188 6.05184C38.7188 6.05184 38.787 6.05184 38.8553 6.05184C38.9919 6.05184 39.1285 6.05184 39.3333 5.98384C39.743 5.98384 40.3576 5.91584 41.1088 5.98384C41.8599 6.05184 42.7476 6.11984 43.7036 6.39184C44.1816 6.52784 44.6596 6.66384 45.1377 7.00384C45.3425 7.13984 45.6157 7.34384 45.7522 7.54784C45.8205 7.61584 45.8205 7.68384 45.8888 7.75184C45.9571 7.81984 45.9571 7.88784 46.0254 7.95584C46.0937 8.09184 46.1619 8.22784 46.2302 8.36384C46.2985 8.49984 46.3668 8.63584 46.4351 8.70384C46.5034 8.77184 46.5717 8.90784 46.7082 8.97584C46.9131 9.11184 47.118 9.24784 47.3911 9.31584C47.8691 9.45184 48.4154 9.51984 48.8934 9.72384C49.0983 9.79184 49.3714 9.92784 49.5763 10.0638C49.7811 10.1998 49.9177 10.3358 50.1225 10.5398C50.3957 10.8798 50.6005 11.2198 50.8054 11.5598C51.0786 12.2398 51.1468 12.8518 51.0786 13.2598C51.0786 13.4638 51.0103 13.5998 50.942 13.7358C50.942 13.8038 50.8737 13.8038 50.8737 13.8718V13.9398C50.8737 13.9398 50.8737 13.9398 50.8737 13.8718C50.8737 13.8718 50.942 13.8038 50.942 13.7358C51.0103 13.6678 51.0103 13.4638 51.0786 13.2598C51.1468 12.8518 51.0103 12.2398 50.6688 11.6278C50.5323 11.2878 50.2591 10.9478 49.986 10.6758C49.8494 10.5398 49.6445 10.4038 49.508 10.2678C49.3031 10.1318 49.0983 10.0638 48.8934 9.99584C48.4154 9.85984 47.9374 9.79184 47.3911 9.65584C47.118 9.58784 46.8448 9.45184 46.64 9.24784C46.5034 9.17984 46.4351 9.04384 46.3668 8.90784C46.2985 8.77184 46.2302 8.63584 46.1619 8.49984C46.0937 8.36384 46.0254 8.22784 46.0254 8.15984C46.0254 8.09184 45.9571 8.02384 45.9571 8.02384C45.8888 7.95584 45.8888 7.88784 45.8205 7.88784C45.6839 7.68384 45.4791 7.54784 45.2742 7.41184C44.8645 7.13984 44.3865 6.93584 43.9085 6.79984C42.9525 6.52784 42.1331 6.39184 41.3819 6.32384C40.6308 6.25584 40.0162 6.25584 39.6065 6.25584C39.4016 6.25584 39.265 6.25584 39.1285 6.25584C38.787 6.05184 38.7188 6.05184 38.7188 6.05184Z" fill="white"/>
  <path d="M30.6598 15.4358C30.6598 15.4358 30.6598 15.2318 30.5915 14.8918C30.5232 14.5518 30.4549 14.0758 30.3184 13.5318C30.1818 12.9198 29.9769 12.2398 29.7038 11.4918C29.5672 11.1518 29.4306 10.7438 29.2258 10.3358C29.0209 9.9278 28.8161 9.58781 28.6112 9.1798C28.338 8.7718 28.1332 8.4318 27.86 8.0918C27.5869 7.7518 27.3138 7.4798 26.9723 7.2758C26.6992 7.0718 26.2895 7.0718 25.948 7.0718C25.6066 7.0718 25.2652 7.0718 24.992 7.0718C24.3774 7.1398 23.8994 7.2078 23.558 7.2078C23.2166 7.2758 23.0117 7.2758 23.0117 7.2758C23.0117 7.2758 23.2166 7.2078 23.4897 7.1398C23.8312 7.0718 24.3092 6.9358 24.9237 6.8678C25.1969 6.7998 25.5383 6.7998 25.948 6.7998C26.1529 6.7998 26.2895 6.7998 26.4943 6.7998C26.5626 6.7998 26.6992 6.7998 26.7675 6.8678H26.8357H26.904C26.9723 6.8678 26.9723 6.9358 27.0406 6.9358C27.382 7.1398 27.7235 7.4798 27.9966 7.8198C28.2698 8.1598 28.5429 8.49981 28.8161 8.90781C29.0892 9.31581 29.2941 9.7238 29.4306 10.1318C29.6355 10.5398 29.7721 10.9478 29.9086 11.2878C30.1818 12.0358 30.3183 12.7838 30.4549 13.3278C30.5915 13.9398 30.6598 14.4158 30.6598 14.7558C30.6598 15.2318 30.6598 15.4358 30.6598 15.4358Z" fill="white"/>
  <path d="M34.0752 14.0759C34.0752 14.0759 34.0752 14.0759 34.0752 14.0079C34.0752 13.9399 34.0069 13.8719 34.0069 13.7359C33.9386 13.5319 33.8704 13.1919 33.8704 12.7839C33.8021 12.3759 33.8704 11.8319 33.9386 11.2879C34.0069 11.0159 34.0752 10.7439 34.1435 10.4719C34.2118 10.1999 34.3484 9.92791 34.2801 9.65591C34.2118 9.51991 34.1435 9.38391 34.0752 9.24791C34.0069 9.11191 33.9386 8.97591 33.8704 8.83991C33.7338 8.56791 33.5972 8.29591 33.4606 8.09191C33.3924 8.02391 33.3924 7.95591 33.3241 7.88791C33.3241 7.81991 33.2558 7.75191 33.2558 7.68391C33.2558 7.61591 33.1875 7.54791 33.1875 7.47991C33.1875 7.41191 33.1875 7.34391 33.1875 7.27591C33.1875 7.00391 33.2558 6.79991 33.3241 6.59591C33.5289 6.18791 33.7338 5.98391 33.9386 5.84791C34.0069 5.77991 34.1435 5.71191 34.2118 5.71191C34.2801 5.71191 34.2801 5.71191 34.2801 5.71191C34.2801 5.71191 34.2801 5.71191 34.2118 5.71191C34.1435 5.71191 34.0752 5.77991 34.0069 5.84791C33.8021 5.98391 33.5972 6.25591 33.4606 6.66391C33.3924 6.86791 33.3241 7.07191 33.3924 7.27591C33.3924 7.34391 33.3924 7.41191 33.4606 7.47991C33.4606 7.54791 33.5289 7.61591 33.5289 7.61591C33.5289 7.68391 33.5972 7.75191 33.5972 7.75191C33.6655 7.81991 33.6655 7.88791 33.7338 7.95591C33.8704 8.15991 34.0069 8.43191 34.1435 8.70391C34.2118 8.83991 34.2801 8.97591 34.3484 9.11191C34.4166 9.24791 34.4849 9.38391 34.5532 9.51991C34.5532 9.58791 34.6215 9.72391 34.6215 9.79191C34.6215 9.85991 34.6215 9.99591 34.6215 10.0639C34.5532 10.1999 34.4849 10.3359 34.4849 10.4719C34.4166 10.7439 34.3484 11.0159 34.2801 11.2879C34.1435 11.8319 34.1435 12.3079 34.1435 12.7159C34.1435 13.1239 34.2118 13.4639 34.2801 13.6679C34.2801 13.8039 34.3484 13.8719 34.3484 13.9399C34.0752 14.0079 34.0752 14.0759 34.0752 14.0759Z" fill="white"/>
  <path d="M78.6656 19.448C78.6656 19.448 78.6656 19.38 78.7339 19.312C78.8022 19.244 78.8022 19.176 78.8704 19.04C79.007 18.768 79.1436 18.36 79.1436 17.816C79.1436 17.544 79.1436 17.272 79.007 17C78.9387 16.728 78.7339 16.456 78.4607 16.184C78.1876 15.98 77.9144 15.776 77.6413 15.436C77.3681 15.164 77.1633 14.756 77.095 14.348C77.095 14.212 77.0267 14.144 77.0267 14.008C77.0267 13.94 77.0267 13.872 77.0267 13.872C77.0267 13.804 77.0267 13.736 77.0267 13.736C77.0267 13.6 76.9584 13.396 76.8901 13.192C76.8219 12.988 76.7536 12.852 76.6853 12.716C76.617 12.648 76.617 12.58 76.5487 12.512C76.4804 12.444 76.4121 12.444 76.3439 12.444C75.661 12.308 75.0464 12.24 74.5001 12.172C73.9538 12.172 73.5441 12.172 73.271 12.24C73.1344 12.24 72.9978 12.308 72.9295 12.308C72.8613 12.308 72.793 12.308 72.793 12.308C72.793 12.308 72.8613 12.308 72.9295 12.308C72.9978 12.308 73.1344 12.24 73.271 12.24C73.5441 12.172 74.0221 12.104 74.5684 12.104C75.1147 12.104 75.7293 12.104 76.4804 12.308C76.5487 12.308 76.6853 12.376 76.7536 12.444C76.8219 12.512 76.8901 12.58 76.9584 12.716C77.0267 12.852 77.1633 13.056 77.2316 13.26C77.2999 13.464 77.3681 13.6 77.4364 13.872C77.4364 13.94 77.4364 14.008 77.4364 14.008C77.4364 14.076 77.4364 14.076 77.4364 14.144C77.4364 14.212 77.4364 14.348 77.5047 14.416C77.573 14.824 77.7779 15.164 77.9827 15.436C78.1876 15.708 78.529 15.912 78.8022 16.184C79.0753 16.456 79.2119 16.796 79.3484 17.068C79.4167 17.408 79.485 17.68 79.4167 17.952C79.3485 18.496 79.2119 18.904 79.007 19.176C78.9387 19.312 78.8704 19.38 78.8022 19.448C78.7339 19.38 78.6656 19.448 78.6656 19.448Z" fill="white"/>
  <path d="M95.6686 21.7598C95.6686 21.7598 95.6686 21.6918 95.6686 21.6238C95.6686 21.5558 95.6003 21.4198 95.6003 21.2838C95.532 21.0118 95.3272 20.6038 94.9857 20.1958C94.6443 19.7878 94.2346 19.3798 93.62 18.9718C93.3469 18.7678 93.0054 18.6318 92.664 18.4958C92.3226 18.3598 91.9129 18.2238 91.5714 18.1558C91.1617 18.0198 90.8203 17.8838 90.4788 17.7478C90.1374 17.6118 89.796 17.4078 89.5228 17.1358C88.9765 16.6598 88.5668 16.1838 88.2254 15.8438C87.884 15.4358 87.6108 15.1638 87.406 14.8918C87.3377 14.7558 87.2011 14.6878 87.2011 14.6198C87.1328 14.5518 87.1328 14.5518 87.1328 14.5518C87.1328 14.5518 87.1328 14.5518 87.2011 14.6198C87.2694 14.6878 87.3377 14.7558 87.4742 14.8238C87.6791 15.0278 88.0205 15.2998 88.362 15.7078C88.7717 16.0478 89.1814 16.5238 89.7277 16.9318C90.0008 17.1358 90.274 17.3398 90.6154 17.4758C90.9568 17.6118 91.3666 17.7478 91.708 17.8838C92.1177 18.0198 92.4591 18.1558 92.8006 18.2918C93.142 18.4278 93.4834 18.6318 93.7566 18.8358C94.3029 19.2438 94.7809 19.7198 95.1223 20.1278C95.4638 20.5358 95.6003 20.9438 95.6686 21.2838C95.6686 21.4198 95.7369 21.5558 95.7369 21.6238C95.6686 21.7598 95.6686 21.7598 95.6686 21.7598Z" fill="white"/>
  <path d="M69.3776 12.5117C69.3776 12.5117 69.1727 12.5797 68.8996 12.6477C68.763 12.7157 68.5581 12.7157 68.285 12.7837C68.1484 12.7837 68.0801 12.8517 67.9435 12.8517C67.807 12.8517 67.6704 12.9197 67.5338 12.9197C66.9192 12.9877 66.2364 12.9877 65.4852 12.9877C64.7341 12.9877 63.8464 12.8517 62.9586 12.7837C62.0709 12.6477 61.1832 12.5797 60.432 12.4437C59.6809 12.3757 58.9297 12.3077 58.3835 12.3757C57.8372 12.5117 57.4274 12.7837 57.2909 13.1237C57.2226 13.2597 57.1543 13.3957 57.1543 13.4637C57.1543 13.5317 57.1543 13.5317 57.1543 13.5317V13.4637C57.1543 13.3957 57.2226 13.2597 57.2909 13.1237C57.3592 12.9877 57.4957 12.7837 57.7006 12.6477C57.9054 12.5117 58.1103 12.3757 58.4517 12.3077C58.7249 12.2397 59.0663 12.2397 59.4077 12.2397C59.6126 12.2397 59.7492 12.2397 59.954 12.2397C60.1589 12.2397 60.3638 12.2397 60.5003 12.2397C61.2515 12.3077 62.1392 12.3757 63.0269 12.5117C63.9147 12.6477 64.7341 12.7157 65.5535 12.7837C66.3047 12.8517 67.0558 12.8517 67.6021 12.7837C67.7387 12.7837 67.8753 12.7837 68.0118 12.7157C68.1484 12.7157 68.285 12.7157 68.3533 12.6477C68.5581 12.5797 68.763 12.5797 68.9678 12.5797C69.241 12.5797 69.3776 12.5117 69.3776 12.5117Z" fill="white"/>
  <path d="M48.1422 11.9679C48.1422 11.8999 48.1422 11.8319 48.074 11.8319C48.074 11.8319 48.074 11.7639 48.0057 11.7639C47.9374 11.6279 47.8008 11.4239 47.5277 11.3559C47.3911 11.2879 47.2545 11.2199 47.1179 11.2199C46.9814 11.1519 46.7765 11.1519 46.5717 11.1519C46.3668 11.1519 46.1619 11.1519 45.9571 11.0839C45.7522 11.0159 45.5474 11.0159 45.3425 10.8799C45.1377 10.7439 45.0011 10.6079 44.8645 10.4039C44.7279 10.1999 44.6596 10.0639 44.6596 9.85993C44.5231 9.51993 44.4548 9.17993 44.3865 8.90793C44.2499 8.36393 44.1816 8.02393 44.1816 8.02393C44.1816 8.02393 44.3182 8.36393 44.4548 8.90793C44.5231 9.17993 44.5914 9.51993 44.7279 9.85993C44.8645 10.1999 45.0011 10.6079 45.4108 10.8119C45.6157 10.9479 45.7522 11.0159 45.9571 11.0159C46.1619 11.0839 46.3668 11.0839 46.5034 11.0839C46.7082 11.0839 46.8448 11.1519 47.0497 11.1519C47.1862 11.2199 47.3911 11.2879 47.4594 11.3559C47.7325 11.4919 47.8691 11.6959 47.9374 11.8319C47.9374 11.8999 47.9374 11.8999 48.0057 11.8999C48.1422 11.8319 48.1422 11.8999 48.1422 11.9679Z" fill="white"/>
  <path d="M47.8008 19.448C47.8008 19.448 47.8691 19.38 47.9374 19.312C48.0056 19.176 48.1422 19.04 48.2788 18.836C48.5519 18.428 48.9616 17.884 49.3031 17.204C49.6445 16.524 49.9177 15.912 50.1225 15.436C50.1908 15.232 50.2591 15.028 50.3274 14.892C50.3957 14.756 50.3957 14.688 50.3957 14.688C50.3957 14.688 50.3957 14.756 50.3274 14.892C50.3274 15.028 50.2591 15.232 50.1908 15.436C50.0542 15.912 49.7811 16.592 49.4397 17.272C49.0982 17.952 48.6885 18.496 48.3471 18.904C48.2105 19.108 48.0739 19.244 47.9374 19.312C47.8691 19.38 47.8008 19.448 47.8008 19.448Z" fill="white"/>
  <path d="M97.0352 36.516C97.0352 36.516 97.1034 36.448 97.24 36.244C97.3083 36.176 97.3766 36.04 97.4449 35.904C97.5132 35.768 97.5814 35.632 97.718 35.496C97.7863 35.428 97.7863 35.36 97.8546 35.224C97.9229 35.156 97.9229 35.02 97.9912 34.952C98.0594 34.748 98.196 34.544 98.2643 34.34C98.4692 33.864 98.6057 33.388 98.7423 32.844C98.8789 32.3 98.9472 31.756 98.9472 31.28C98.9472 31.008 98.9472 30.804 98.9472 30.6C98.9472 30.464 98.9472 30.396 98.9472 30.26C98.9472 30.192 98.9472 30.056 98.9472 29.988C98.9472 29.784 98.9472 29.648 98.8789 29.512C98.8789 29.376 98.8789 29.24 98.8106 29.172C98.8106 28.968 98.7423 28.832 98.7423 28.832C98.7423 28.832 98.7423 28.968 98.8106 29.172C98.8106 29.24 98.8789 29.376 98.8789 29.512C98.8789 29.648 98.9472 29.852 98.9472 29.988C98.9472 30.056 98.9472 30.192 98.9472 30.26C98.9472 30.328 98.9472 30.464 98.9472 30.6C98.9472 30.804 98.9472 31.076 98.9472 31.28C98.9472 31.756 98.8789 32.3 98.7423 32.844C98.6057 33.388 98.4692 33.932 98.2643 34.34C98.1277 34.544 98.0594 34.748 97.9912 34.952C97.9229 35.02 97.9229 35.156 97.8546 35.224C97.7863 35.292 97.718 35.36 97.718 35.496C97.6497 35.632 97.5132 35.768 97.4449 35.904C97.3766 36.04 97.3083 36.108 97.24 36.176C97.1034 36.38 97.0352 36.516 97.0352 36.516Z" fill="white"/>
  <path d="M92.2539 39.1678C92.2539 39.1678 92.3222 39.0998 92.3905 39.0998C92.4588 39.0318 92.6636 38.9638 92.8002 38.8278C93.1416 38.5558 93.6196 38.2158 94.0976 37.7398C94.5756 37.2638 94.917 36.7878 95.1902 36.4478C95.3268 36.2438 95.3951 36.1078 95.4633 36.0398C95.5316 35.9718 95.5316 35.9038 95.5316 35.9038C95.5316 35.9038 95.5316 35.9718 95.4633 36.0398C95.3951 36.1758 95.3268 36.3118 95.1902 36.5158C94.9853 36.8558 94.6439 37.3998 94.1659 37.8758C93.6879 38.3518 93.2099 38.6918 92.8685 38.9638C92.6636 39.0998 92.527 39.1678 92.4588 39.2358C92.2539 39.1678 92.2539 39.1678 92.2539 39.1678Z" fill="white"/>
  <path d="M82.011 16.5239C81.9427 16.4559 81.9427 16.4559 81.8744 16.3879C81.8061 16.3199 81.7378 16.1159 81.6013 15.9119C81.533 15.7079 81.4647 15.4359 81.3964 15.1639C81.3281 14.8919 81.3281 14.5519 81.3281 14.2119C81.3281 14.0079 81.3964 13.8719 81.4647 13.7359C81.533 13.5999 81.6696 13.4639 81.8061 13.3959C82.0793 13.2599 82.3524 13.1919 82.5573 13.1919C82.7621 13.1919 82.967 13.2599 83.1036 13.2599C83.1719 13.2599 83.2402 13.3279 83.2402 13.3279H83.3084C83.3084 13.3279 83.3084 13.3279 83.2402 13.3279C83.2402 13.3279 83.1719 13.3279 83.1036 13.2599C82.967 13.1919 82.8304 13.1919 82.5573 13.1919C82.3524 13.1919 82.0793 13.2599 81.8061 13.3959C81.6696 13.4639 81.533 13.5319 81.4647 13.6679C81.3964 13.8039 81.3964 13.9399 81.3281 14.1439C81.3281 14.4839 81.3281 14.8239 81.3964 15.0959C81.4647 15.3679 81.533 15.6399 81.6013 15.8439C81.6696 16.0479 81.7378 16.1839 81.8061 16.3199C81.8744 16.4559 81.9427 16.4559 82.011 16.5239Z" fill="white"/>
  <path d="M52.238 21.5558C52.238 21.5558 52.238 21.5558 52.1697 21.4878C52.1697 21.4198 52.1014 21.3518 52.1014 21.2158C52.0331 21.0118 51.9648 20.6718 51.9648 20.2638C51.9648 19.8558 52.0331 19.3118 52.3063 18.8358C52.5794 18.3598 52.9891 17.8838 53.4671 17.4758C53.9451 17.0678 54.4231 16.7278 54.8329 16.3198C55.2426 15.9798 55.584 15.5718 55.7889 15.2318C55.9937 14.8918 56.1303 14.5518 56.1986 14.3478C56.1986 14.2798 56.1986 14.2118 56.1986 14.2118C56.1986 14.1438 56.1986 14.1438 56.1986 14.0758C56.1986 14.0078 56.1986 14.0078 56.1986 14.0078C56.1986 14.0078 56.1986 14.0078 56.1986 14.0758C56.1986 14.0758 56.1986 14.1438 56.1986 14.2118C56.1986 14.2798 56.1986 14.2798 56.1986 14.3478C56.1986 14.5518 56.062 14.8918 55.8572 15.2998C55.6523 15.6398 55.3109 16.0478 54.9694 16.4558C54.5597 16.8638 54.0817 17.2038 53.6037 17.6118C53.1257 18.0198 52.716 18.4278 52.4428 18.9038C52.1697 19.3798 52.0331 19.8558 52.0331 20.2638C52.0331 20.6718 52.0331 21.0118 52.1014 21.2158C52.1014 21.3518 52.1697 21.4198 52.1697 21.4878C52.238 21.4878 52.238 21.5558 52.238 21.5558Z" fill="white"/>
  <path d="M84.4004 34.5439C84.3321 34.6119 84.3321 34.6119 84.2639 34.6119L84.1956 34.6799C84.059 34.7479 83.9907 34.9519 83.9224 35.2239C83.8541 35.4959 83.7859 35.7679 83.581 36.1079C83.581 36.1759 83.5127 36.1759 83.5127 36.2439C83.5127 36.3119 83.4444 36.3119 83.4444 36.3799C83.3761 36.4479 83.3078 36.5159 83.2396 36.5839C83.103 36.6519 82.8981 36.7879 82.6933 36.8559C82.3518 36.9919 81.9421 37.1279 81.669 37.2639C81.3958 37.3999 81.1227 37.6719 80.9861 37.8759C80.8495 38.0799 80.7812 38.2839 80.7812 38.4199C80.7812 38.4879 80.7812 38.5559 80.7812 38.5559C80.7812 38.6239 80.7812 38.6239 80.7812 38.6239C80.7812 38.6239 80.7812 38.6239 80.7812 38.5559C80.7812 38.4879 80.7812 38.4879 80.7812 38.4199C80.7812 38.2839 80.7812 38.0799 80.9178 37.8079C81.0544 37.6039 81.2593 37.3319 81.6007 37.1959C81.8738 36.9919 82.2835 36.8559 82.625 36.7199C82.9664 36.5839 83.3761 36.4479 83.5127 36.1079C83.7176 35.8359 83.7859 35.4959 83.8541 35.2919C83.9224 35.0199 84.059 34.8839 84.1956 34.7479L84.2639 34.6799C84.2639 34.5439 84.3321 34.5439 84.4004 34.5439Z" fill="white"/>
  <path d="M12.973 11.832C12.973 11.832 12.9047 11.9 12.6999 11.968C12.5633 12.036 12.2902 12.172 12.017 12.376C11.4707 12.784 10.7196 13.396 10.1733 14.28C9.90015 14.688 9.69529 15.164 9.42215 15.572C9.21729 15.98 9.01243 16.32 8.73928 16.592C8.53443 16.864 8.26128 17 8.12471 17.136C8.05642 17.204 7.98814 17.204 7.91985 17.204C7.85156 17.204 7.85156 17.204 7.85156 17.204C7.85156 17.204 7.85156 17.204 7.91985 17.136C7.98814 17.136 8.05642 17.068 8.12471 17C8.26128 16.864 8.46614 16.728 8.671 16.456C8.87586 16.184 9.08072 15.844 9.28557 15.436C9.49043 15.028 9.69529 14.552 9.96844 14.144C10.583 13.26 11.3342 12.648 11.8805 12.308C12.1536 12.104 12.4267 12.036 12.6316 11.9C12.8365 11.832 12.973 11.832 12.973 11.832Z" fill="white"/>
  <path d="M63.7109 44.7441C63.7109 44.7441 63.9158 44.7441 64.2572 44.7441C64.5987 44.7441 65.1449 44.7441 65.8278 44.7441C67.1252 44.7441 68.969 44.5401 70.9493 44.1321C71.2224 44.0641 71.4273 43.9961 71.7004 43.9281C71.9053 43.8601 72.1784 43.7921 72.3833 43.7241C72.8613 43.5881 73.271 43.4521 73.749 43.3841C73.9539 43.3161 74.1587 43.3161 74.3636 43.2481C74.5685 43.2481 74.7733 43.2481 74.9782 43.1801C75.3879 43.1121 75.7293 43.0441 76.0025 42.9761C76.139 42.9081 76.3439 42.9081 76.4805 42.9081C76.617 42.9081 76.7536 42.8401 76.8902 42.7721C77.095 42.7041 77.2999 42.5681 77.4365 42.4321C77.573 42.2961 77.6413 42.1601 77.7096 42.0921C77.7096 42.0241 77.7779 42.0241 77.7779 42.0241V41.9561C77.7779 41.9561 77.7779 41.9561 77.7779 42.0241C77.7779 42.0241 77.7779 42.0921 77.7096 42.1601C77.6413 42.2281 77.573 42.3641 77.5048 42.5001C77.3682 42.6361 77.1633 42.7721 76.9585 42.9081C76.8219 42.9761 76.6853 43.0441 76.5487 43.0441C76.4122 43.1121 76.2756 43.1121 76.0707 43.1801C75.7293 43.2481 75.3879 43.3841 75.0465 43.4521C74.8416 43.5201 74.6367 43.5201 74.4319 43.5201C74.227 43.5201 74.0222 43.5881 73.8173 43.656C73.4076 43.792 72.9296 43.9281 72.5199 44.0641C72.315 44.1321 72.0419 44.2001 71.837 44.2681C71.5639 44.3361 71.359 44.4041 71.0858 44.4721C69.1055 44.9481 67.2618 45.016 65.8961 44.948C65.2132 44.948 64.6669 44.8801 64.3255 44.8121C63.9158 44.8121 63.7109 44.7441 63.7109 44.7441Z" fill="white"/>
  <path d="M23.0796 42.024C23.0796 42.024 23.0113 42.024 22.943 42.024C22.8747 42.024 22.6699 42.024 22.5333 42.024C22.3284 42.024 22.1236 42.092 21.8504 42.16C21.5773 42.228 21.3041 42.364 21.031 42.568C20.7578 42.704 20.4164 42.908 20.075 43.112C19.7335 43.316 19.3238 43.52 18.9141 43.588C18.7092 43.656 18.4361 43.656 18.2312 43.656C17.9581 43.656 17.7532 43.588 17.4801 43.452C17.2752 43.316 17.0704 43.18 16.8655 43.044C16.6607 42.908 16.4558 42.84 16.2509 42.772C15.7729 42.636 15.2949 42.704 14.8169 42.636C14.3389 42.636 13.8609 42.5 13.4512 42.432C12.5635 42.16 11.8806 41.82 11.3343 41.412C10.788 41.004 10.3783 40.664 10.1735 40.392C10.0369 40.256 9.9686 40.12 9.90032 40.052C9.83203 39.984 9.83203 39.916 9.83203 39.916C9.83203 39.916 9.90032 39.984 9.90032 40.052C9.9686 40.12 10.0369 40.256 10.1735 40.392C10.4466 40.664 10.8563 41.004 11.4026 41.344C11.9489 41.684 12.7001 42.024 13.5195 42.228C13.9292 42.364 14.4072 42.432 14.8852 42.432C15.3632 42.432 15.8412 42.432 16.3875 42.568C16.5241 42.568 16.6607 42.636 16.7972 42.704C16.9338 42.772 17.0704 42.84 17.1387 42.908C17.3435 43.044 17.5484 43.18 17.7532 43.316C18.163 43.52 18.5727 43.52 18.9824 43.452C19.3921 43.384 19.8018 43.18 20.1433 43.044C20.4847 42.84 20.8261 42.704 21.0993 42.5C21.3724 42.364 21.7138 42.228 21.9187 42.16C22.1918 42.092 22.3967 42.024 22.6016 42.024C22.8064 42.024 22.943 42.024 23.0113 42.092C23.0113 42.024 23.0796 42.024 23.0796 42.024Z" fill="white"/>
  <path d="M16.5243 40.5279C16.5243 40.5279 16.3877 40.5279 16.1145 40.5959C15.8414 40.6639 15.5 40.7319 15.022 40.7319C14.544 40.7319 13.9977 40.7999 13.4514 40.6639C13.1782 40.5959 12.8368 40.5959 12.4954 40.4599C12.1539 40.3919 11.8808 40.1879 11.6076 39.9159C11.3345 39.6439 11.1979 39.3719 10.9931 39.1679C10.7882 38.9639 10.5151 38.7599 10.3102 38.5559C10.1053 38.3519 9.8322 38.2159 9.62734 38.0119C9.42248 37.8079 9.28591 37.6039 9.14934 37.4679C8.87619 37.0599 8.80791 36.7199 8.87619 36.4479C8.87619 36.3119 8.94448 36.2439 8.94448 36.1759C8.94448 36.1079 9.01276 36.1079 9.01276 36.1079C9.01276 36.1079 9.01276 36.1079 9.01276 36.1759C9.01276 36.2439 8.94448 36.3119 8.94448 36.4479C8.94448 36.7199 9.01276 37.0599 9.28591 37.3999C9.42248 37.6039 9.55905 37.7399 9.76391 37.9439C9.96877 38.0799 10.1736 38.2839 10.4468 38.4199C10.7199 38.6239 10.9248 38.7599 11.1979 39.0319C11.4711 39.2359 11.6076 39.5759 11.8125 39.7799C12.0174 40.0519 12.2905 40.1879 12.6319 40.2559C12.9051 40.3919 13.2465 40.3919 13.5197 40.4599C14.1342 40.5279 14.6122 40.5959 15.0902 40.5279C15.5682 40.5279 15.9097 40.4599 16.1828 40.4599C16.3877 40.5959 16.5243 40.5279 16.5243 40.5279Z" fill="white"/>
  <path d="M26.0843 37.1279C26.0843 37.1279 26.016 37.1279 25.8111 37.1959C25.6746 37.2639 25.4014 37.3319 25.1966 37.4679C24.9234 37.6039 24.6503 37.8079 24.4454 38.1479C24.1723 38.4199 23.9674 38.8279 23.6943 39.1679C23.5577 39.3719 23.4211 39.5079 23.2845 39.7119C23.148 39.8479 22.9431 39.9839 22.8065 40.1199C22.4651 40.3239 22.1237 40.4599 21.8505 40.5959C21.5774 40.7319 21.3725 40.7999 21.1677 40.8679C21.0311 40.9359 20.8945 40.9359 20.8945 40.9359C20.8945 40.9359 20.9628 40.8679 21.0994 40.8679C21.236 40.7999 21.4408 40.7319 21.714 40.5959C21.9871 40.4599 22.2603 40.3239 22.6017 40.0519C22.7383 39.9159 22.9431 39.7799 23.0797 39.6439C23.2163 39.5079 23.3528 39.3039 23.4894 39.1679C23.7626 38.8279 23.9674 38.4199 24.2406 38.1479C24.5137 37.8759 24.7868 37.6039 25.06 37.5359C25.3331 37.3999 25.538 37.3319 25.7429 37.3319C25.9477 37.1279 26.0843 37.1279 26.0843 37.1279Z" fill="white"/>
  <path d="M30.3867 34.8839C30.3867 34.8839 30.3867 34.8159 30.455 34.6799C30.5233 34.5439 30.5916 34.4079 30.6599 34.2039C30.7282 33.9999 30.7964 33.7279 30.8647 33.4559C30.933 33.1839 30.933 32.8439 30.933 32.5039C30.933 32.1639 30.933 31.8239 31.0013 31.4839C31.0696 31.3479 31.1379 31.2119 31.2062 31.0759C31.2744 30.9399 31.411 30.8719 31.4793 30.8039C31.6842 30.6679 31.7524 30.5319 31.8207 30.3959C31.8207 30.3279 31.889 30.2599 31.889 30.2599V30.1919C31.889 30.1919 31.889 30.1919 31.889 30.2599C31.889 30.2599 31.889 30.3279 31.8207 30.3959C31.7524 30.5319 31.6159 30.6679 31.4793 30.8039C31.411 30.8719 31.3427 30.9399 31.2062 31.0759C31.1379 31.2119 31.0696 31.2799 31.0013 31.4839C30.933 31.7559 30.933 32.0959 30.933 32.4359C30.933 32.7759 30.933 33.1159 30.8647 33.4559C30.7964 33.7279 30.7282 33.9999 30.6599 34.2039C30.5916 34.4079 30.5233 34.6119 30.455 34.6799C30.455 34.8159 30.3867 34.8839 30.3867 34.8839Z" fill="white"/>
  <path d="M9.35547 29.1041C9.35547 28.9681 9.35547 28.9001 9.35547 28.8321C9.35547 28.6961 9.35547 28.4241 9.49204 28.1521C9.56033 27.8801 9.76519 27.5401 9.97005 27.2001C10.1749 26.8601 10.448 26.5881 10.7895 26.2481C11.1309 25.9081 11.4041 25.6361 11.6772 25.3641C11.9503 25.0921 12.1552 24.8201 12.2918 24.5481C12.4283 24.2761 12.5649 24.0721 12.6332 23.9361C12.6332 23.8681 12.7015 23.8001 12.7015 23.7321C12.7015 23.6641 12.7015 23.6641 12.7015 23.6641C12.7015 23.6641 12.7015 23.6641 12.7015 23.7321C12.7015 23.8001 12.7015 23.8681 12.6332 23.9361C12.5649 24.0721 12.4966 24.3441 12.3601 24.5481C12.2235 24.8201 12.0186 25.0921 11.7455 25.3641C11.4723 25.6361 11.1992 25.9761 10.8578 26.2481C10.5163 26.5881 10.2432 26.8601 10.0383 27.2001C9.83347 27.5401 9.62861 27.8121 9.56033 28.0841C9.49204 28.3561 9.42376 28.5601 9.42376 28.7641C9.35547 28.9681 9.35547 29.0361 9.35547 29.1041Z" fill="white"/>
  <path d="M96.7616 35.9722C96.7616 35.9722 96.7616 36.0402 96.6933 36.1082C96.6933 36.1762 96.625 36.2442 96.625 36.3122C96.5567 36.3802 96.5567 36.5162 96.4884 36.5842C96.4201 36.7882 96.2835 37.0602 96.0787 37.3322C95.8738 37.6042 95.669 37.8762 95.4641 38.2162C94.9861 38.8282 94.3032 39.5762 93.4155 40.2562C93.0058 40.5962 92.5961 40.9362 92.0498 41.2762C91.5718 41.6162 91.0255 41.8882 90.4109 42.0922C89.7963 42.2962 89.1818 42.2962 88.5672 42.2962C88.2941 42.2962 88.0209 42.3642 87.7478 42.3642C87.4746 42.4322 87.2015 42.5002 86.9283 42.5682C86.382 42.7042 85.904 42.8402 85.426 42.9082C84.948 42.9762 84.47 42.9082 84.0603 42.8402C83.6506 42.7042 83.3092 42.5682 83.036 42.3642C82.7629 42.1602 82.558 41.9562 82.4214 41.8202C82.2849 41.6162 82.1483 41.4802 82.08 41.4122C82.0117 41.2762 82.0117 41.2762 82.0117 41.2762C82.0117 41.2762 82.08 41.3442 82.1483 41.4122C82.2166 41.4802 82.3532 41.6162 82.4897 41.8202C82.8312 42.1602 83.3774 42.5002 84.1286 42.7042C84.5383 42.7722 84.948 42.7722 85.426 42.7042C85.904 42.6362 86.382 42.5002 86.86 42.2962C87.1332 42.2282 87.4063 42.1602 87.6795 42.0922C87.9526 42.0242 88.2258 42.0242 88.5672 41.9562C89.1818 41.8882 89.7281 41.8882 90.3426 41.7522C90.8889 41.6162 91.4352 41.2762 91.9132 41.0042C92.3912 40.6642 92.8692 40.3242 93.279 40.0522C94.0984 39.3722 94.8495 38.7602 95.3275 38.1482C95.6007 37.8762 95.8055 37.5362 96.0104 37.3322C96.2153 37.0602 96.3518 36.8562 96.4201 36.6522C96.4884 36.5842 96.5567 36.4482 96.5567 36.3802C96.625 36.3122 96.625 36.2442 96.625 36.1762C96.6933 36.0402 96.7616 35.9722 96.7616 35.9722Z" fill="white"/>
  <path d="M60.0918 45.2201C60.0918 45.2201 59.6821 45.2201 59.0675 45.2201C58.7261 45.2201 58.3847 45.2201 57.9749 45.2201C57.5652 45.2201 57.0872 45.2201 56.6775 45.0841C56.1995 44.9481 55.7898 44.8121 55.4483 44.5401C55.3118 44.4041 55.1069 44.2681 55.0386 44.1321C54.9021 43.9961 54.8338 43.8601 54.7655 43.7241C54.6289 43.4521 54.6289 43.1801 54.6972 42.9761C54.6972 42.9081 54.7655 42.8401 54.7655 42.7721C54.7655 42.7041 54.8338 42.7041 54.8338 42.7041C54.8338 42.7041 54.8338 42.7041 54.8338 42.7721C54.8338 42.8401 54.7655 42.9081 54.7655 42.9761C54.6972 43.1121 54.7655 43.3841 54.8338 43.6561C54.9021 43.7921 54.9703 43.9281 55.1069 44.0641C55.2435 44.2001 55.3801 44.3361 55.5166 44.4041C55.8581 44.6081 56.2678 44.8121 56.6775 44.8801C57.1555 45.0161 57.5652 45.0161 57.9749 45.0161C58.3847 45.0161 58.7261 45.0161 59.0675 45.0161C59.409 45.0161 59.6138 45.0161 59.8187 45.0841C60.0235 45.2201 60.0918 45.2201 60.0918 45.2201Z" fill="white"/>
  <path d="M75.4551 41.9561C75.4551 41.9561 75.5234 41.9561 75.6599 41.9561C75.7282 41.9561 75.7965 41.9561 75.8648 41.9561C75.9331 41.9561 76.0697 41.9561 76.1379 41.9561C76.3428 41.9561 76.5477 41.8881 76.8208 41.7521C77.0257 41.6161 77.2988 41.4801 77.5037 41.2081C77.5719 41.1401 77.5719 41.0721 77.6402 41.0041L77.7085 40.9361C77.7085 40.9361 77.7085 40.8681 77.7768 40.8681C77.8451 40.7321 77.8451 40.5961 77.8451 40.4601C77.8451 40.1881 77.9134 39.9841 77.9134 39.7801C77.9134 39.3721 77.9817 39.1001 77.9817 39.1001C77.9817 39.1001 77.9817 39.3721 77.9817 39.7801C77.9817 39.9841 77.9817 40.2561 77.9817 40.5281C77.9817 40.6641 77.9817 40.8001 77.9134 40.9361C77.9134 41.0041 77.9134 41.0041 77.8451 41.0721C77.8451 41.1401 77.7768 41.1401 77.7768 41.2081C77.7768 41.2761 77.7085 41.3441 77.6402 41.4121C77.4354 41.6841 77.1622 41.8201 76.9574 41.9561C76.6842 42.0921 76.4794 42.0921 76.2745 42.1601C76.1379 42.1601 76.0697 42.1601 76.0014 42.1601C75.9331 42.1601 75.8648 42.1601 75.7965 42.1601C75.5234 41.9561 75.4551 41.9561 75.4551 41.9561Z" fill="white"/>
  <path d="M70.4023 45.1519C70.4023 45.1519 70.6072 45.1519 70.9486 45.0839C71.2901 45.0159 71.7681 44.9479 72.3826 44.8119C72.9972 44.6759 73.6801 44.5399 74.4312 44.2679C74.841 44.1319 75.2507 44.0639 75.6604 43.9279C75.8652 43.8599 76.0701 43.7919 76.3433 43.7239C76.5481 43.6559 76.753 43.5879 76.9578 43.5199C77.1627 43.4519 77.2993 43.2479 77.5041 43.1799C77.5724 43.1119 77.709 43.0439 77.8455 43.0439C77.9821 42.9759 78.1187 42.9759 78.187 42.9759C78.3918 42.9759 78.5967 42.9759 78.8016 42.9079C78.8698 42.9079 79.0064 42.8399 79.0064 42.7719C79.0064 42.7719 79.0064 42.7719 79.0747 42.7039C79.0747 42.7039 79.0747 42.7039 79.143 42.6359C79.143 42.5679 79.2113 42.5679 79.2113 42.4999C79.2796 42.4319 79.2796 42.3639 79.3478 42.2959C79.3478 42.2279 79.3478 42.1599 79.2796 42.0919C79.2113 41.9559 79.0747 41.8199 78.9381 41.6159C78.8698 41.5479 78.8016 41.4799 78.8016 41.4119C78.8016 41.3439 78.7333 41.3439 78.7333 41.2759C78.7333 41.2079 78.665 41.2079 78.665 41.1399C78.5967 41.0039 78.5284 40.7999 78.5284 40.6639C78.3918 40.0519 78.3918 39.5759 78.3918 39.2359C78.3918 39.0319 78.4601 38.9639 78.4601 38.8279C78.4601 38.7599 78.5284 38.6919 78.5284 38.6919C78.5284 38.6919 78.5284 38.7599 78.4601 38.8279C78.4601 38.8959 78.4601 39.0319 78.4601 39.2359C78.4601 39.5759 78.5284 40.0519 78.665 40.6639C78.7333 40.7999 78.7333 40.9359 78.8016 41.0719C78.8016 41.1399 78.8698 41.1399 78.8698 41.2079L78.9381 41.2759C79.0064 41.3439 79.0064 41.4119 79.0747 41.4799C79.2113 41.6159 79.3478 41.7519 79.4161 41.9559C79.4844 42.0239 79.4844 42.1599 79.4844 42.2959C79.4844 42.4319 79.4161 42.4999 79.3478 42.6359C79.3478 42.7039 79.2796 42.7039 79.2796 42.7719C79.2796 42.7719 79.2796 42.8399 79.2113 42.8399L79.143 42.9079C79.0747 42.9759 78.9381 43.0439 78.8016 43.0439C78.5967 43.1119 78.3236 43.1119 78.1187 43.1119C77.9138 43.1119 77.709 43.1799 77.5724 43.3159C77.3675 43.4519 77.231 43.5879 76.9578 43.7239C76.753 43.8599 76.4798 43.9279 76.275 43.9279C76.0701 43.9959 75.8652 44.0639 75.5921 44.0639C75.1824 44.1999 74.7727 44.2679 74.3629 44.4039C73.5435 44.6079 72.8607 44.7439 72.2461 44.8119C71.6315 44.8799 71.1535 44.9479 70.8121 44.9479C70.6072 45.1519 70.4023 45.1519 70.4023 45.1519Z" fill="white"/>
  <path d="M97.8532 38.012C97.307 38.76 96.7607 39.372 96.2144 39.984C96.2144 39.984 91.2978 43.86 87.4054 43.996C86.2446 44.064 85.0154 43.996 83.8546 43.928C83.718 43.928 83.5814 43.928 83.4448 43.928C82.6937 43.792 80.9182 42.84 79.2111 37.672C79.2111 37.672 79.1428 40.528 80.0988 41.48C80.9183 42.228 80.5085 43.452 78.8697 43.996C78.4599 44.064 78.0502 44.132 77.7088 44.2C76.6162 44.336 76.2748 45.152 74.1579 45.424C63.1638 45.696 43.2925 46.308 37.693 47.26C35.0982 47.668 28.8841 48.144 22.4652 47.192C22.3286 47.056 22.192 46.852 22.3969 46.58L22.4652 46.512C22.6018 46.376 22.8749 46.172 23.1481 46.036C23.1481 46.036 23.2163 46.036 23.2163 45.968C23.2163 45.968 23.2846 45.968 23.2846 45.9C23.6943 45.764 24.2406 45.628 24.7869 45.628C25.3332 45.628 26.0161 45.696 26.6989 45.764C27.3818 45.832 27.9964 45.968 28.611 46.036C29.2255 46.104 29.7718 46.104 30.1815 46.036C30.6595 45.968 31.001 45.9 31.2058 45.832C31.3424 45.764 31.4107 45.764 31.479 45.764C31.5473 45.764 31.5473 45.696 31.5473 45.696C31.5473 45.696 31.5473 45.696 31.479 45.696C31.4107 45.696 31.3424 45.764 31.2058 45.764C30.9327 45.832 30.5913 45.9 30.1815 45.9C29.7718 45.9 29.2255 45.9 28.611 45.832C27.9964 45.764 27.3818 45.628 26.6989 45.56C26.0161 45.492 25.4015 45.424 24.7869 45.424C24.5138 45.424 24.2406 45.492 24.0358 45.492C24.0358 45.492 24.1041 45.492 24.1041 45.424C25.6064 44.88 26.8355 44.132 27.3818 43.248C27.3818 43.248 26.0161 44.676 23.2846 45.288C19.2557 46.104 14.4074 44.88 14.4074 44.88C11.4028 43.656 8.67137 41.888 6.69106 39.372C5.66677 37.944 5.05219 36.04 5.5302 34.34C5.59848 34.068 5.66677 33.796 5.66677 33.592C5.66677 33.592 6.34963 27.404 11.0614 22.78C15.8414 18.156 16.1146 16.388 15.6366 14.484C15.6366 14.484 16.0463 17.408 13.0417 20.06C9.55909 23.188 7.57879 23.052 6.89592 26.316C6.55449 27.812 6.07649 28.152 5.46191 28.832C4.77905 29.648 3.95961 30.056 3.61818 28.832C3.48161 28.152 3.41332 27.608 3.34504 27.132C3.41332 26.656 3.41332 26.112 3.48161 25.636C3.68647 24.276 4.0279 22.644 4.71076 20.876C4.98391 20.536 5.32534 20.264 5.80334 19.924C6.28135 19.652 6.89592 19.38 7.44221 19.108C8.05679 18.836 8.60308 18.564 9.08108 18.224C9.55909 17.884 9.90052 17.544 10.1737 17.204C10.4468 16.864 10.6517 16.592 10.7882 16.32C10.8565 16.184 10.8565 16.116 10.9248 16.048C10.9248 15.98 10.9931 15.98 10.9931 15.98C10.9931 15.98 10.9931 15.98 10.9248 16.048C10.9248 16.116 10.8565 16.184 10.7882 16.252C10.6517 16.456 10.4468 16.728 10.1737 17.068C9.90052 17.408 9.4908 17.748 9.0128 18.02C8.53479 18.36 7.9885 18.632 7.37393 18.904C6.75935 19.176 6.21306 19.448 5.66677 19.788C5.32534 19.992 4.98391 20.264 4.77905 20.536C6.82764 15.3 11.2662 9.11205 18.846 6.32405C19.5972 6.05205 20.3483 5.78005 21.0995 5.57605C21.714 5.37205 23.6261 4.96405 26.4258 5.03205C27.3135 5.10005 27.7915 5.23605 27.9964 5.30405C28.8841 5.71205 29.8401 6.59605 30.523 8.22805C32.0936 12.172 31.6156 13.396 33.1179 14.756C33.1179 14.756 32.0936 12.512 31.8204 10.132C31.6838 8.97605 31.4107 7.88805 31.1376 7.07205C30.7278 5.84805 31.8887 4.28405 33.1179 3.94405C33.1861 3.94405 33.2544 3.87605 33.3227 3.87605C33.5959 3.80805 33.9373 3.74005 34.2104 3.67205C36.737 3.67205 39.0588 3.87605 41.2439 4.21605C41.9268 4.35205 42.4731 4.42005 42.8145 4.55605C44.6582 4.96405 46.2971 5.57605 47.5263 6.25605C48.6188 6.86805 49.848 7.48005 51.1454 8.02405C51.1454 8.02405 53.7403 9.11205 53.194 12.716C53.1257 13.396 53.0574 14.008 52.238 15.504C52.238 15.504 50.4626 18.972 50.326 19.312C50.1894 19.652 49.9846 20.264 50.0529 20.808C49.9846 20.604 49.9846 19.516 51.8966 16.932C51.9649 16.796 52.0332 16.728 52.1014 16.66L52.8526 15.776C53.8769 14.62 54.9695 13.26 54.6963 12.172C54.4915 11.084 55.7206 10.132 59.0666 10.744C62.2761 11.424 65.7587 11.764 69.3096 11.356C70.607 11.22 71.8362 11.084 72.997 11.016C72.997 11.016 76.6845 10.88 78.0502 12.036C78.2551 12.24 78.4599 12.444 78.6648 12.648C79.1428 13.192 79.4159 14.416 79.7574 15.232C80.0988 16.048 80.7134 17.544 80.0305 19.04C80.0305 19.04 81.1914 18.224 80.6451 15.98C79.9622 13.124 80.2354 12.92 82.0791 12.104C82.284 12.036 83.718 11.492 85.63 12.308C86.7226 12.784 87.7469 13.396 88.7712 14.212C94.4389 18.428 94.5755 17.204 95.9412 18.02C97.785 19.108 103.384 30.872 97.8532 38.012ZM102.975 27.268C102.155 21.692 99.6287 16.592 98.3312 15.708C97.785 15.368 97.3752 15.3 96.9655 15.3C96.0778 15.3 94.7804 15.232 90.7515 12.24C87.2689 9.65605 83.9911 8.56805 79.2794 8.56805C76.9576 8.56805 74.3628 8.84005 71.3582 9.11205L70.4022 9.18005C69.4462 9.24805 68.4219 9.31605 67.3976 9.31605C59.4081 9.31605 52.1014 6.18805 47.3897 3.53605C44.1802 1.76805 38.9905 0.748047 33.1179 0.748047C27.3818 0.748047 21.5092 1.70005 16.5926 3.53605C5.80334 7.54805 1.56959 19.448 0.750158 25.84C-0.137564 32.776 1.29645 38.352 4.84733 42.432C7.5105 45.424 11.3345 47.6 16.2511 48.96C20.1435 49.98 24.6504 50.524 29.7718 50.524C32.6398 50.524 35.6444 50.388 38.649 50.048C42.5414 49.64 51.3503 49.3 59.9544 48.96C67.1244 48.688 73.8165 48.416 77.7088 48.144C78.0502 48.144 78.3917 48.076 78.7331 48.076C86.7226 47.464 94.9852 46.852 100.721 39.44C103.589 35.768 103.521 30.804 102.975 27.268Z" fill="white"/>
  <path d="M48.9616 43.792C48.9616 43.792 48.8934 43.792 48.8251 43.792C48.7568 43.792 48.6885 43.792 48.6202 43.792C48.5519 43.792 48.4836 43.792 48.4154 43.86C48.2105 43.928 48.0056 43.928 47.8008 43.996C47.5276 44.064 47.2545 44.2 46.9814 44.268C46.7082 44.404 46.3668 44.54 46.0253 44.676C45.6839 44.812 45.2742 44.948 44.8645 45.084C44.7279 45.084 44.6596 45.152 44.523 45.152C44.3865 45.152 44.3182 45.22 44.1816 45.22C43.9768 45.22 43.7036 45.288 43.4987 45.288C43.0207 45.288 42.5427 45.22 42.0647 45.152C41.7916 45.152 41.5867 45.084 41.3136 45.084C41.1087 45.084 40.8356 45.084 40.6307 45.084C40.1527 45.084 39.743 45.152 39.265 45.152C38.3773 45.22 37.6261 45.356 37.0116 45.424C36.397 45.56 35.8507 45.628 35.5093 45.764C35.441 45.764 35.3727 45.832 35.3044 45.832C35.2361 45.832 35.1678 45.9 35.1678 45.9C35.0995 45.9 35.0312 45.968 35.0312 45.968C35.0312 45.968 35.0995 45.968 35.1678 45.9C35.2361 45.9 35.2361 45.832 35.3044 45.832C35.3727 45.832 35.441 45.764 35.5093 45.764C35.8507 45.628 36.3287 45.492 37.0116 45.356C37.6261 45.22 38.4456 45.084 39.265 44.948C39.6747 44.88 40.1527 44.88 40.6307 44.812C40.8356 44.812 41.1087 44.812 41.3819 44.812C41.655 44.812 41.8599 44.88 42.133 44.88C42.611 44.948 43.089 45.016 43.567 45.016C43.7719 45.016 44.045 45.016 44.2499 45.016C44.3865 45.016 44.4548 45.016 44.5913 44.948C44.7279 44.948 44.7962 44.88 44.9328 44.88C45.7522 44.676 46.5033 44.404 47.1179 44.2C47.4594 44.064 47.7325 43.996 47.9374 43.928C48.2105 43.86 48.4154 43.86 48.6202 43.792C48.6885 43.792 48.8251 43.792 48.8934 43.792C48.9616 43.792 49.0299 43.792 49.0982 43.792C48.8934 43.792 48.9616 43.792 48.9616 43.792Z" fill="white"/>
  <path d="M9.28607 41.14C9.28607 41.14 9.21778 41.072 9.01292 40.936C8.94463 40.936 8.94463 40.868 8.87635 40.868C8.80806 40.8 8.80806 40.8 8.73978 40.732C8.6032 40.664 8.53492 40.528 8.39834 40.392C8.33006 40.324 8.26177 40.256 8.19349 40.188C8.1252 40.12 8.05691 40.052 7.98863 39.984C7.85205 39.848 7.71548 39.644 7.57891 39.44C7.30576 39.032 7.10091 38.624 6.89605 38.08C6.69119 37.604 6.6229 37.06 6.55461 36.584C6.55461 36.38 6.48633 36.108 6.48633 35.904C6.48633 35.768 6.48633 35.7 6.48633 35.632C6.48633 35.564 6.48633 35.428 6.48633 35.36C6.48633 35.156 6.55461 35.02 6.55461 34.884C6.55461 34.816 6.55461 34.748 6.55461 34.68C6.55461 34.612 6.55461 34.544 6.6229 34.544C6.69119 34.34 6.69119 34.272 6.69119 34.272C6.69119 34.272 6.69119 34.408 6.6229 34.544C6.6229 34.612 6.6229 34.68 6.6229 34.68C6.6229 34.748 6.6229 34.816 6.6229 34.884C6.6229 35.02 6.6229 35.156 6.6229 35.36C6.6229 35.428 6.6229 35.564 6.6229 35.632C6.6229 35.7 6.6229 35.836 6.6229 35.904C6.6229 36.108 6.69119 36.312 6.69119 36.584C6.75947 37.06 6.89605 37.536 7.1009 38.012C7.30576 38.488 7.51062 38.964 7.78377 39.372C7.92034 39.576 8.05691 39.712 8.19349 39.916C8.26177 39.984 8.33006 40.052 8.39834 40.12C8.46663 40.188 8.53492 40.256 8.6032 40.324C8.73978 40.46 8.80806 40.528 8.94463 40.664C9.01292 40.732 9.01292 40.732 9.08121 40.8C9.14949 40.868 9.14949 40.868 9.21778 40.936C9.14949 41.072 9.28607 41.14 9.28607 41.14Z" fill="white"/>
  <path d="M3.89258 27.0641C3.89258 27.0641 3.89258 26.9281 3.89258 26.7241C3.89258 26.6561 3.89258 26.5881 3.89258 26.5201C3.89258 26.4521 3.89258 26.3841 3.89258 26.3161C3.89258 26.1801 3.89258 25.9761 3.96086 25.7721C3.96086 25.7041 3.96086 25.5681 4.02915 25.4321C4.02915 25.2961 4.09744 25.2281 4.09744 25.0921C4.16572 24.8881 4.23401 24.6161 4.3023 24.3441C4.43887 23.8681 4.71201 23.3241 4.98516 22.7801C5.32659 22.2361 5.66802 21.7601 6.00945 21.3521C6.21431 21.1481 6.35089 20.9441 6.55574 20.8081C6.62403 20.7401 6.7606 20.6721 6.82889 20.6041C6.89718 20.5361 7.03375 20.4681 7.10203 20.4001C7.23861 20.2641 7.44347 20.1961 7.58004 20.1281C7.64833 20.0601 7.71661 20.0601 7.7849 19.9921C7.85318 19.9921 7.92147 19.9241 7.92147 19.9241C8.12633 19.7881 8.2629 19.7881 8.2629 19.7881C8.2629 19.7881 8.12633 19.8561 7.98976 19.9921C7.92147 19.9921 7.92147 20.0601 7.85318 20.0601C7.7849 20.1281 7.71661 20.1281 7.64832 20.1961C7.51175 20.2641 7.37518 20.4001 7.23861 20.5361C7.17032 20.6041 7.10203 20.6721 6.96546 20.7401C6.89718 20.8081 6.82889 20.8761 6.69232 20.9441C6.48746 21.0801 6.35089 21.2841 6.14603 21.4881C5.80459 21.8961 5.46316 22.3721 5.12173 22.8481C4.84859 23.3921 4.57544 23.8681 4.43887 24.4121C4.37058 24.6841 4.3023 24.8881 4.23401 25.0921C4.23401 25.2281 4.16572 25.2961 4.16572 25.4321C4.16572 25.5681 4.09744 25.6361 4.09744 25.7721C4.02915 25.9761 4.02915 26.1801 4.02915 26.3161C4.02915 26.3841 4.02915 26.4521 4.02915 26.5201C4.02915 26.5881 4.02915 26.6561 4.02915 26.7241C3.89258 26.9281 3.89258 27.0641 3.89258 27.0641Z" fill="white"/>
  <path d="M33.1184 0.543945C27.3141 0.543945 21.3732 1.56395 16.4565 3.33195C13.7934 4.28395 11.4034 5.77995 9.28649 7.75195C7.44276 9.45195 5.87217 11.4919 4.43816 13.8719C1.36528 19.2439 0.545843 24.3439 0.340984 25.7719C-0.546738 32.8439 0.887274 38.4879 4.57473 42.636C7.2379 45.628 11.1302 47.8719 16.1151 49.2319C20.0074 50.32 24.5826 50.7959 29.7041 50.7959C32.5721 50.7959 35.5767 50.6599 38.6496 50.3199C42.5419 49.9119 51.3508 49.5719 59.8866 49.2319C67.0567 48.9599 73.7487 48.6879 77.641 48.4159C77.9825 48.4159 78.3239 48.3479 78.6653 48.3479C86.7231 47.7359 95.1223 47.124 100.927 39.576C103.863 35.8359 103.795 30.7359 103.248 27.1999C102.839 24.6839 102.088 21.9639 101.063 19.5839C100.176 17.4759 99.1512 15.9119 98.4684 15.3679C97.8538 14.9599 97.3758 14.9599 96.8978 14.8919C96.0783 14.8919 94.8492 14.8239 90.8886 11.8999C87.3377 9.24795 83.9917 8.15995 79.2116 8.15995C76.8216 8.15995 74.2267 8.43195 71.2221 8.70395C70.8807 8.70395 70.6076 8.77195 70.2661 8.77195C69.3101 8.83995 68.2858 8.90795 67.2615 8.90795C63.7789 8.90795 60.1598 8.29595 56.4723 7.13995C53.4677 6.18795 50.3948 4.82795 47.3902 3.19595C44.3856 1.56395 39.1276 0.543945 33.1184 0.543945ZM33.1184 1.22395C38.9227 1.22395 44.1125 2.24395 47.2537 3.94395C52.58 6.93595 59.6818 9.72395 67.3981 9.72395C68.4224 9.72395 69.4467 9.65595 70.471 9.58795C73.8853 9.24795 76.7533 8.90795 79.3482 8.90795C83.5137 8.90795 86.8597 9.72395 90.5472 12.5119C96.5563 16.9999 96.6929 15.0279 98.1269 15.9799C100.176 17.4079 106.321 31.5519 100.449 39.1679C94.576 46.784 86.1085 47.1239 77.641 47.7359C69.037 48.4159 45.6831 48.8239 38.5813 49.5719C36.123 49.8439 33.0501 50.0479 29.7724 50.0479C16.2517 50.0479 -1.50275 46.308 1.09213 25.7719C1.84328 19.9239 5.87217 7.81995 16.7297 3.87595C21.9194 2.03995 27.7921 1.22395 33.1184 1.22395Z" fill="#B63829"/>
  <path d="M73.1333 39.984H72.6553V39.1H73.1333C73.2699 39.1 73.4065 39.168 73.5431 39.236C73.6113 39.304 73.6796 39.44 73.6796 39.576C73.6796 39.712 73.6113 39.848 73.5431 39.916C73.4065 39.916 73.2699 39.984 73.1333 39.984ZM73.2016 38.1479H71.4262V41.82H72.6553V40.936H73.2016C73.5431 40.936 73.8162 40.868 74.0893 40.8C74.3625 40.664 74.5673 40.528 74.7039 40.324C74.8405 40.12 74.9088 39.848 74.9088 39.576C74.9088 39.304 74.8405 39.0319 74.7039 38.8279C74.5673 38.6239 74.3625 38.488 74.0893 38.352C73.8162 38.216 73.5431 38.1479 73.2016 38.1479ZM66.9876 40.256L67.329 39.304L67.6704 40.256H66.9876ZM68.285 41.82H69.5825L67.9436 38.1479H66.7144L65.0756 41.82H66.3047L66.5779 41.208H68.0119L68.285 41.82ZM61.2515 40.936V40.324H61.8661C62.1392 40.324 62.2758 40.392 62.2758 40.596C62.2758 40.664 62.2075 40.8 62.1392 40.8C62.071 40.868 62.0027 40.868 61.8661 40.868H61.2515V40.936ZM60.0224 41.82H61.9344C62.4124 41.82 62.8221 41.684 63.0953 41.48C63.3684 41.276 63.505 41.004 63.505 40.596C63.505 40.256 63.3684 39.984 63.1635 39.78C62.8904 39.576 62.549 39.5079 62.1392 39.5079H61.2515V39.1H63.2318V38.1479H60.0224V41.82ZM53.3303 40.936H52.784V40.12H53.3303C53.6035 40.12 53.74 40.256 53.74 40.46C53.74 40.596 53.6718 40.732 53.6035 40.8C53.5352 40.936 53.3986 40.936 53.3303 40.936ZM53.5352 39.304H52.784V38.1479H51.5549V41.82H53.3986C53.8766 41.82 54.2863 41.684 54.5595 41.48C54.8326 41.276 54.9692 40.936 54.9692 40.46C54.9692 40.052 54.8326 39.78 54.6278 39.576C54.3546 39.372 54.0132 39.304 53.5352 39.304ZM46.2968 38.1479L46.2285 39.576C46.2285 39.848 46.2285 40.12 46.1603 40.256C46.1603 40.46 46.092 40.596 46.0237 40.664C45.9554 40.8 45.8871 40.8 45.7505 40.8C45.6823 40.8 45.6823 40.8 45.614 40.8L45.5457 41.82C45.7505 41.888 45.8871 41.888 46.092 41.888C46.4334 41.888 46.6383 41.82 46.8431 41.616C47.048 41.412 47.1163 41.14 47.1846 40.8C47.2528 40.46 47.3211 40.052 47.3211 39.5079V39.1H48.1406V41.82H49.3697V38.1479H46.2968ZM39.9462 41.82H41.1071L42.3362 39.916V41.82H43.5654V38.1479H42.4045L41.1071 40.052V38.1479H39.8779V41.82H39.9462ZM36.327 39.984H35.849V39.1H36.327C36.4636 39.1 36.6002 39.168 36.7368 39.236C36.805 39.304 36.8733 39.44 36.8733 39.576C36.8733 39.712 36.805 39.848 36.7368 39.916C36.6002 39.916 36.4636 39.984 36.327 39.984ZM36.3953 38.1479H34.6199V41.82H35.849V40.936H36.3953C36.7368 40.936 37.0099 40.868 37.283 40.8C37.5562 40.664 37.7611 40.528 37.8976 40.324C38.0342 40.12 38.1025 39.848 38.1025 39.576C38.1025 39.304 38.0342 39.0319 37.8976 38.8279C37.7611 38.6239 37.5562 38.488 37.283 38.352C37.0099 38.216 36.7368 38.1479 36.3953 38.1479ZM32.6396 38.1479H29.8398V41.82H31.069V39.1H32.6396V38.1479Z" fill="#7A1713"/>
  <path d="M72.7936 39.6441H72.3838V38.7601H72.8618C72.9984 38.7601 73.135 38.8281 73.2716 38.8961C73.3398 38.9641 73.4081 39.1001 73.4081 39.2361C73.4081 39.3721 73.3398 39.5081 73.2716 39.5761C73.135 39.6441 72.9984 39.6441 72.7936 39.6441ZM72.8618 37.8081H71.0864V41.4801H72.3156V40.5961H72.8618C73.2033 40.5961 73.4764 40.5281 73.7496 40.4601C74.0227 40.3241 74.2276 40.1881 74.3641 39.9841C74.5007 39.7801 74.569 39.5081 74.569 39.2361C74.569 38.9641 74.5007 38.6921 74.3641 38.4881C74.2276 38.2841 74.0227 38.1481 73.7496 38.0121C73.5447 37.8761 73.2033 37.8081 72.8618 37.8081ZM66.6478 39.9841L66.9892 39.0321L67.3307 39.9841H66.6478ZM67.9452 41.4801H69.2427L67.6038 37.8081H66.3746L64.8041 41.4801H66.0332L66.3064 40.8681H67.7404L67.9452 41.4801ZM60.98 40.6641V40.0521H61.5946C61.8678 40.0521 62.0043 40.1201 62.0043 40.3241C62.0043 40.3921 61.936 40.5281 61.8678 40.5281C61.7995 40.5961 61.7312 40.5961 61.5946 40.5961H60.98V40.6641ZM59.7509 41.4801H61.6629C62.1409 41.4801 62.5506 41.3441 62.8238 41.1401C63.0969 40.9361 63.2335 40.6641 63.2335 40.2561C63.2335 39.9161 63.0969 39.6441 62.892 39.4401C62.6189 39.2361 62.2775 39.1681 61.8678 39.1681H60.98V38.7601H62.9603V37.8081H59.7509V41.4801ZM52.9905 40.6641H52.4443V39.8481H52.9905C53.2637 39.8481 53.4003 39.9841 53.4003 40.1881C53.4003 40.3241 53.332 40.4601 53.2637 40.5281C53.1954 40.5961 53.1271 40.6641 52.9905 40.6641ZM53.2637 38.9641H52.5125V37.8081H51.2834V41.4801H53.1271C53.6051 41.4801 54.0148 41.3441 54.288 41.1401C54.5611 40.9361 54.6977 40.5961 54.6977 40.1201C54.6977 39.7121 54.5611 39.4401 54.3563 39.2361C54.0831 39.1001 53.6734 38.9641 53.2637 38.9641ZM45.9571 37.8081L45.8888 39.2361C45.8888 39.5081 45.8888 39.7801 45.8205 39.9161C45.8205 40.1201 45.7522 40.2561 45.6839 40.3241C45.6156 40.4601 45.5473 40.4601 45.4108 40.4601C45.3425 40.4601 45.3425 40.4601 45.2742 40.4601L45.2059 41.4801C45.4108 41.5481 45.5473 41.5481 45.7522 41.5481C46.0936 41.5481 46.2985 41.4801 46.5033 41.2761C46.7082 41.0721 46.7765 40.8001 46.8448 40.4601C46.9131 40.1201 46.9814 39.7121 46.9814 39.1681V38.7601H47.8008V41.4801H49.0299V37.8081H45.9571ZM39.6747 41.4801H40.8356L42.0647 39.5761V41.4801H43.2939V37.8081H42.133L40.8356 39.7121V37.8081H39.6064V41.4801H39.6747ZM35.9873 39.6441H35.5093V38.7601H35.9873C36.1238 38.7601 36.2604 38.8281 36.397 38.8961C36.4653 38.9641 36.5336 39.1001 36.5336 39.2361C36.5336 39.3721 36.4653 39.5081 36.397 39.5761C36.2604 39.6441 36.1238 39.6441 35.9873 39.6441ZM36.0556 37.8081H34.2801V41.4801H35.5093V40.5961H36.0556C36.397 40.5961 36.6701 40.5281 36.9433 40.4601C37.2164 40.3241 37.4213 40.1881 37.5579 39.9841C37.6944 39.7801 37.7627 39.5081 37.7627 39.2361C37.7627 38.9641 37.6944 38.6921 37.5579 38.4881C37.4213 38.2841 37.2164 38.1481 36.9433 38.0121C36.6701 37.8761 36.397 37.8081 36.0556 37.8081ZM32.3681 37.8081H29.5684V41.4801H30.7975V38.7601H32.3681V37.8081Z" fill="white"/>
</svg>
