<svg width="20" height="28" viewBox="0 0 20 28" fill="none" xmlns="http://www.w3.org/2000/svg">
    <path d="M10 0C4.48597 0 0 4.46779 0 9.95942C0 16.7747 8.94902 26.7799 9.33003 27.2025C9.68791 27.5995 10.3127 27.5988 10.67 27.2025C11.051 26.7799 20 16.7747 20 9.95942C19.9999 4.46779 15.514 0 10 0ZM10 25.2296C6.98819 21.6665 1.80082 14.6369 1.80082 9.95952C1.80082 5.45672 5.47892 1.79352 10 1.79352C14.5211 1.79352 18.1992 5.45672 18.1992 9.95947C18.1991 14.6371 13.0126 21.6654 10 25.2296Z" fill="#E84437"/>
    <path d="M10.0032 4.99988C7.24614 4.99988 5.00317 7.24287 5.00317 9.99988C5.00317 12.7569 7.2462 14.9999 10.0032 14.9999C12.7602 14.9999 15.0032 12.7569 15.0032 9.99988C15.0032 7.24287 12.7602 4.99988 10.0032 4.99988ZM10.0032 13.2102C8.23294 13.2102 6.79283 11.7701 6.79283 9.99988C6.79283 8.22965 8.233 6.78951 10.0032 6.78951C11.7734 6.78951 13.2136 8.22965 13.2136 9.99988C13.2136 11.7701 11.7734 13.2102 10.0032 13.2102Z" fill="#E84437"/>
</svg>
