<svg width="21" height="21" viewBox="0 0 21 21" fill="none" xmlns="http://www.w3.org/2000/svg">
  <path d="M19.4629 1.90911H3.81817C3.77105 1.90911 3.72805 1.92683 3.68389 1.94011L3.29936 0.67649C3.17707 0.274641 2.80641 0 2.38635 0H0.477288C0.213699 0 0 0.213699 0 0.477288V1.43182C0 1.69541 0.213699 1.90911 0.477288 1.90911H1.67935L4.66138 11.7086L3.54765 13.0079C3.10745 13.5214 2.90923 14.229 3.11184 14.8743C3.37095 15.6996 4.09934 16.2273 4.93915 16.2273H18.6136C18.8772 16.2273 19.0909 16.0136 19.0909 15.75V14.7954C19.0909 14.5318 18.8772 14.3181 18.6136 14.3181H4.93911L6.45205 12.5531C6.49008 12.5087 6.51804 12.4586 6.5469 12.409H15.7957C16.5355 12.409 17.2086 11.9818 17.5236 11.3125L20.8541 4.23528C20.9497 4.0316 21 3.80555 21 3.58134V3.44616C21 2.59732 20.3118 1.90911 19.4629 1.90911Z" fill="white"/>
  <path d="M5.72747 21.0001C6.78184 21.0001 7.63658 20.1453 7.63658 19.0909C7.63658 18.0366 6.78184 17.1818 5.72747 17.1818C4.6731 17.1818 3.81836 18.0366 3.81836 19.0909C3.81836 20.1453 4.6731 21.0001 5.72747 21.0001Z" fill="white"/>
  <path d="M17.1825 21.0001C18.2369 21.0001 19.0916 20.1453 19.0916 19.0909C19.0916 18.0366 18.2369 17.1818 17.1825 17.1818C16.1282 17.1818 15.2734 18.0366 15.2734 19.0909C15.2734 20.1453 16.1282 21.0001 17.1825 21.0001Z" fill="white"/>
</svg>
