<svg width="21" height="21" viewBox="0 0 21 21" fill="none" xmlns="http://www.w3.org/2000/svg">
  <path d="M20.0945 1.39608C17.1999 2.6344 14.6375 4.52209 12.5742 6.87556H14.17C16.0196 4.98055 18.2381 3.46397 20.69 2.41507C21.3878 2.11664 20.786 1.10038 20.0945 1.39608Z" fill="white"/>
  <path d="M12.0747 7.46557H0C0 13.2332 4.67561 17.9088 10.4432 17.9088C16.2108 17.9088 20.8865 13.2331 20.8865 7.46557H13.6177H12.0747Z" fill="white"/>
  <path d="M20.8865 19.0889H0V20.8589H20.8865V19.0889Z" fill="white"/>
  <path d="M7.12296 4.57792C7.13402 4.55222 7.14053 4.52801 7.14891 4.50406C7.15797 4.48023 7.17427 4.45802 7.18584 4.43632C7.20095 4.41496 7.20414 4.3936 7.22243 4.37462C7.23894 4.35548 7.25226 4.3371 7.26536 4.31952C7.27609 4.30182 7.29251 4.28485 7.3108 4.26889C7.32804 4.25298 7.34255 4.23715 7.35565 4.22145C7.39058 4.19031 7.43117 4.1601 7.45917 4.12801C7.50589 4.09649 7.54567 4.06287 7.58256 4.02866C7.626 4.00543 7.66319 3.98016 7.6954 3.95008C7.69867 3.94536 7.72229 3.92919 7.74165 3.9154L7.80053 3.87349C7.84019 3.84588 7.87874 3.81673 7.91737 3.78759L8.00387 3.72317L8.15466 3.60672C8.35157 3.4395 8.53534 3.23629 8.68153 3.00092C8.82832 2.76643 8.93231 2.49842 8.97792 2.23267C9.0249 1.96683 9.01439 1.70733 8.96639 1.48174C8.91942 1.25504 8.83305 1.062 8.73957 0.901974C8.54772 0.581842 8.31571 0.392461 8.14156 0.282346C8.05561 0.22631 7.97668 0.193846 7.92724 0.170743C7.8758 0.14866 7.84546 0.141087 7.84546 0.141087C7.84546 0.141087 7.84453 0.170743 7.84287 0.226396C7.84346 0.279283 7.83555 0.360082 7.83176 0.452837C7.82079 0.63975 7.80062 0.89321 7.7468 1.1402C7.72156 1.26329 7.68285 1.38447 7.63766 1.49182C7.59188 1.59993 7.5375 1.69362 7.47776 1.77608C7.41769 1.8588 7.35276 1.93219 7.27834 2.0095C7.20367 2.08634 7.11713 2.16599 7.01778 2.24998L6.93928 2.31308L6.91979 2.32917L6.91494 2.33317L6.87069 2.36776L6.86728 2.37082L6.85371 2.38299L6.79946 2.43128C6.76321 2.46336 6.72713 2.49544 6.69233 2.52884L6.63969 2.57828C6.62199 2.59505 6.60702 2.60769 6.57928 2.63964C6.48014 2.74831 6.38692 2.86089 6.30148 2.97381C6.22915 3.09171 6.16367 3.21042 6.10525 3.32768C6.07929 3.39283 6.05674 3.45916 6.03564 3.52404C6.0153 3.59012 5.99186 3.65054 5.98101 3.71921C5.96969 3.78767 5.95999 3.85515 5.95339 3.92149C5.9502 3.95429 5.94705 3.98701 5.94386 4.01943C5.94208 4.05198 5.94552 4.08572 5.94671 4.11819C5.95271 4.24881 5.96382 4.37203 6.00062 4.48555C6.01764 4.54205 6.03134 4.59779 6.05219 4.64863C6.07474 4.69905 6.09525 4.74798 6.12006 4.79381C6.16452 4.88763 6.22451 4.96289 6.27697 5.03467C6.33382 5.10369 6.39228 5.16142 6.44772 5.21346C6.50826 5.26133 6.56111 5.30549 6.616 5.33996C6.67216 5.37323 6.72066 5.40344 6.7693 5.42539C6.86358 5.47164 6.94664 5.493 6.99927 5.50849C7.05403 5.5224 7.08504 5.52474 7.08504 5.52474C7.08504 5.52474 7.08143 5.49526 7.07454 5.44003C7.06637 5.38774 7.06356 5.30681 7.05696 5.21618C7.05577 5.17159 7.05445 5.12202 7.05296 5.0682C7.05471 5.01804 7.05658 4.96375 7.05858 4.90584C7.07032 4.79406 7.08509 4.68029 7.12296 4.57792Z" fill="white"/>
  <path d="M10.5057 4.57792C10.5168 4.55222 10.5233 4.52801 10.5316 4.50406C10.5409 4.48023 10.557 4.45802 10.5687 4.43632C10.5837 4.41496 10.5869 4.3936 10.6052 4.37462C10.6217 4.35548 10.6349 4.3371 10.6481 4.31952C10.6589 4.30182 10.6753 4.28485 10.6934 4.26889C10.7107 4.25298 10.7253 4.23715 10.7384 4.22145C10.7733 4.19031 10.8139 4.1601 10.8419 4.12801C10.8886 4.09649 10.9283 4.06287 10.9653 4.02866C11.0087 4.00543 11.0459 3.98016 11.0781 3.95008C11.0814 3.94536 11.105 3.92919 11.1243 3.9154L11.1832 3.87349C11.2229 3.84588 11.2615 3.81673 11.3 3.78759L11.3865 3.72317L11.5373 3.60672C11.7343 3.4395 11.918 3.23629 12.0642 3.00092C12.2111 2.76643 12.315 2.49842 12.3607 2.23267C12.4077 1.96683 12.3971 1.70733 12.3491 1.48174C12.3022 1.25504 12.2158 1.062 12.1223 0.901974C11.9305 0.581842 11.6985 0.392461 11.5244 0.282346C11.4385 0.22631 11.3596 0.193846 11.3101 0.170743C11.2587 0.14866 11.2283 0.141087 11.2283 0.141087C11.2283 0.141087 11.2274 0.170743 11.2257 0.226396C11.2263 0.279283 11.2184 0.360082 11.2146 0.452837C11.2036 0.63975 11.1835 0.89321 11.1297 1.1402C11.1044 1.26329 11.0657 1.38447 11.0205 1.49182C10.9748 1.59993 10.9204 1.69362 10.8606 1.77608C10.8005 1.8588 10.7356 1.93219 10.6612 2.0095C10.5864 2.08634 10.4999 2.16599 10.4006 2.24998L10.3221 2.31308L10.3026 2.32917L10.2978 2.33317L10.2535 2.36776L10.2501 2.37082L10.2366 2.38299L10.1823 2.43128C10.146 2.46336 10.1099 2.49544 10.0751 2.52884L10.0225 2.57828C10.0048 2.59505 9.98983 2.60769 9.96213 2.63964C9.863 2.74831 9.76977 2.86089 9.68434 2.97381C9.612 3.09171 9.54652 3.21042 9.4881 3.32768C9.46215 3.39283 9.4396 3.45916 9.4185 3.52404C9.3982 3.59012 9.37471 3.65054 9.36386 3.71921C9.35255 3.78767 9.34284 3.85515 9.33625 3.92149C9.33306 3.95429 9.32991 3.98701 9.32668 4.01943C9.32489 4.05198 9.32834 4.08572 9.32948 4.11819C9.33553 4.24881 9.34659 4.37203 9.38344 4.48555C9.40041 4.54205 9.41411 4.59779 9.435 4.64863C9.45755 4.69905 9.47806 4.74798 9.50287 4.79381C9.54746 4.88763 9.60732 4.96289 9.65979 5.03467C9.71667 5.10369 9.77509 5.16142 9.83053 5.21346C9.89103 5.26133 9.94392 5.30549 9.99881 5.33996C10.055 5.37323 10.1035 5.40344 10.1521 5.42539C10.2464 5.47164 10.3295 5.493 10.3821 5.50849C10.4368 5.5224 10.4679 5.52474 10.4679 5.52474C10.4679 5.52474 10.4642 5.49526 10.4574 5.44003C10.4492 5.38774 10.4464 5.30681 10.4398 5.21618C10.4386 5.17159 10.4373 5.12202 10.4357 5.0682C10.4375 5.01804 10.4394 4.96375 10.4414 4.90584C10.4531 4.79406 10.4677 4.68029 10.5057 4.57792Z" fill="white"/>
</svg>
