<?xml version="1.0" encoding="utf-8"?>
<!-- Generator: Adobe Illustrator 21.0.2, SVG Export Plug-In . SVG Version: 6.00 Build 0)  -->
<svg version="1.1" id="Слой_1" xmlns="http://www.w3.org/2000/svg" xmlns:xlink="http://www.w3.org/1999/xlink" x="0px" y="0px"
	 viewBox="0 0 155.9 76.3" style="enable-background:new 0 0 155.9 76.3;" xml:space="preserve">
<style type="text/css">
	.st0{fill:#E84437;}
	.st1{fill:#CD3D2E;}
	.st2{fill:#EC6653;}
	.st3{fill:#E55C44;}
	.st4{fill:#FFFFFF;}
	.st5{fill:#7A1713;}
	.st6{fill:#6D150F;}
	.st7{fill:#7A1916;}
	.st8{fill:#882919;}
	.st9{fill:#B63829;}
</style>
<g>
	<path class="st0" d="M145,27c-2.1-1.2-2.3,0.6-10.8-5.8c-8.5-6.4-16.9-5.4-29.4-4.2c-12.6,1.2-24.5-2.9-33-7.7
		c-8.5-4.8-27.9-5.6-43.3,0C13,15,6.3,30.2,5.2,38.5C0.7,74.9,46.5,72.6,56.5,71c10-1.7,50.4-2.7,62.6-2.9
		c12.2-0.2,19.8-0.3,28.1-11.1C155.5,46.1,147.1,28.3,145,27"/>
	<path class="st1" d="M126.8,42.5c0.5-1.5-5-11,1-12.1c2.4-0.4,10.1,1.5,12.6,3.1c8.6,5.8,5.4,23-6.7,25.1
		C121.5,60.6,123.3,51.8,126.8,42.5"/>
	<path class="st1" d="M35.1,10.8c-2.7,0.7-15.2,5.3-22.2,14.7c-7,9.4-3.3,20.6-1.3,21.7c2,1.1-4,18.5,20.4,18.7
		C43.7,66,48.8,52.1,49,38.2C49.3,23.3,43.9,8.4,35.1,10.8"/>
	<path class="st1" d="M50.7,13.4c1.7,4,3,8.2,3.8,12.5c1.9,9.5,5,11.4,8.1,11.6c4.4,0.4,18-13.4,13.7-20.7c-3.1-5.2-15.4-8.3-22.8-9
		c-2.4-0.2-4.2,2.3-3.2,4.5L50.7,13.4z"/>
	<path class="st1" d="M89.8,23.8c4-4.5,16.2-3.3,24.2-0.6c7.9,2.6,5,36.9-14.4,40.7C80.3,67.6,74.8,40.6,89.8,23.8"/>
	<path class="st2" d="M49.7,30.3c0,0-0.2,1.9-0.8,4.2c0,0.3,0,0.7,0,1C50.5,30.7,49.7,30.3,49.7,30.3 M27.3,65.6
		c-1.3,0.8-2.6,1.4-3.6,1.6c-0.7,0.2-1.3,0.3-2,0.4c0.7,0.2,3.3,0.7,6.6,0.9c2.7-0.8,5.2-2.5,5.2-2.5c-1.1,0.3-2,0.5-2.7,0.5
		c-0.7,0-1.1-0.2-1.1-0.6c0-0.1,0-0.1,0-0.1C28.9,65.8,28.1,65.7,27.3,65.6"/>
	<path class="st3" d="M49,34.5c-0.3,1-0.7,2.1-1.1,3.2c-0.2,0.4-0.4,0.7-0.6,1.1c0.2,0,0.4,0,0.7,0c0.1-0.3,0.2-0.6,0.3-1
		c0.3-0.9,0.5-1.6,0.8-2.3C49,35.2,49,34.8,49,34.5 M46.7,42.1c-0.4,0-0.8,0.1-1.3,0.1c-1,2-1.8,3.7-1.7,4.6
		c0.1,0.9-0.5,1.4-1.4,2.1c0,0,0,0,0,0v0c0,2.1-0.7,3.1-1.9,3.1c0,0-0.1,0-0.1,0c-0.4,0-0.7-0.1-1-0.3c-1.6,2.1-2.2,4.2-4.5,7.3
		c-1.7,2.3-4.8,4.9-7.6,6.5c0.8,0.1,1.6,0.2,2.5,0.2c0.2-0.7,1.5-0.7,2.3-1.2c0.6-0.5,3.6-5.5,6.2-6.4c1.8-0.7,1-2.6,3.1-3.1
		c2.1-0.5,2.1-3.4,2.4-4.2c0.3-0.8,2.5-1.4,2.2-2.8c-0.2-1-0.2-2.4,0.9-6C46.8,42.1,46.8,42.1,46.7,42.1"/>
	<path class="st2" d="M12.2,50c-0.1,0.3-0.1,0.6-0.1,0.9c-0.1,2.4-0.3,4.3,0.9,5.6c0.3,0.4,0.6,0.9,0.9,1.3
		C12.4,55,12.3,52.1,12.2,50 M14.2,58.7c0.2,0.4,0.4,0.6,0.5,0.8C14.6,59.2,14.4,58.9,14.2,58.7"/>
	<path class="st3" d="M20.6,35.9c-0.1,0-0.2,0-0.4,0l-1.1,1c0,0,0.1,0,0.2,0c0.2,0,0.6,0.1,0.5,0.4c-0.1,0.5-1.2,2.1-1.2,2.8
		c0,0.4-0.2,1.2-0.8,2c-0.4,0.5-0.9,1.1-1.6,1.7c-1.6,1.4-3.6,3.9-4,6.2c0.1,2.1,0.3,5,1.6,7.8c0.2,0.3,0.3,0.6,0.5,0.8
		c0.2,0.3,0.3,0.5,0.5,0.8c0,0,0.1,0.1,0.1,0.1c0,0,0,0,0.1,0c0.4-0.2,0-1.1,1.2-1.5c0,0-1.1-0.2-1-1.5c0.1-1.3-0.1-2.3-0.8-2.8
		c-0.7-0.5-1.6-2.4-0.2-5.5c1.4-3.1,2.8-4,3.3-4.9c0.5-0.9,1.2-2,1.4-3c0.2-0.9,0.9-2.3,1.1-2.3c0,0,0,0,0.1,0.1
		c0.1,0.3-0.2,1.5,0.1,1.9c0,0,0.1-1.5,0.6-2.6C21.3,36.5,21.6,35.9,20.6,35.9"/>
	<path class="st2" d="M124.9,58.2c-0.3,0-0.6,0.1-0.9,0.2c-0.1,0-0.2,0-0.3,0c-0.3,0-0.4-0.2-0.4-0.2c-0.1,0.7,0.3,0.6,0.9,0.7
		c0.2,0.1,0.4,0.1,0.5,0.1c0.2,0,0.3-0.1,0.3-0.1s0.8,0.6,1.2,1.3c0.5,0.7,0.8,0.2,1,0.5c0.2,0.3-0.3,0.7-1,1.4
		c-0.5,0.5-1.2,0.9-1.1,0.9c0,0,0.1,0,0.3-0.1c0.2-0.1,0.4-0.1,0.5-0.1c0.5,0,0.7,0.4,1.3,0.7c0.2,0.1,0.4,0.2,0.6,0.2
		c0.6,0,1.1-0.4,1.8-0.8c1-0.4,1-0.6,1.3-1.1c0.3-0.5,0.4-0.6,0-0.7c-0.4,0-0.4-0.4-0.8-0.4c-0.1,0-0.1,0-0.2,0c-0.1,0-0.2,0-0.3,0
		c-0.1,0-0.3,0-0.4-0.1c-0.1,0-0.3-0.1-0.4-0.1c-0.1,0-0.2,0-0.4,0c-0.1,0-0.3,0-0.4,0c-0.4,0-0.6-0.2-0.6-0.4
		c0-0.1-0.1-0.5-0.5-0.5c-0.1,0-0.1,0-0.2,0c0,0-0.1,0-0.1,0c-0.5,0-1.1-1.2-1.4-1.6C125.3,58.3,125.1,58.2,124.9,58.2"/>
	<path class="st4" d="M87.2,68.9c-7.7,0.3-15.3,0.7-21.3,1.1h0C71.9,69.6,79.5,69.2,87.2,68.9"/>
	<path class="st2" d="M78.7,48.1c0,0-0.1,1.6,0.3,3c0.2,0.6,0.7,1.2,1,1.6c0.3,0.4,1,0.9,1.3,2.9c0.1,0.4-0.1,0.9-0.1,1.5h1
		c0.1-1.9-0.3-3.3-1.3-4.7c-0.4-0.7-0.8-0.9-1.1-1.5C78.9,49.3,78.7,48.1,78.7,48.1 M80.9,61.7c-0.9,1.8-3,0.8-4,2.8
		c-1.5,2.9-12.2,5.5-12.2,5.5l1.2,0c6-0.4,13.6-0.8,21.3-1.1c-3.7-0.5-7-1.9-6.2-5.2c0.1-0.5,0.2-0.9,0.3-1.4h-0.4V61.7z"/>
	<path class="st1" d="M77.3,50.8c-2.9-2.2-13.7-8.2-22.2,1.5c-8.6,9.6-14.2,15.2-5.2,16.5C58.8,70,88.9,59.7,77.3,50.8"/>
	<path class="st2" d="M102,19c0,0,0,0.1,0.1,0.2C102.1,19.1,102.1,19,102,19 M102.1,19.2c0.1,0.2-0.1,0.4-0.2,0.5
		c0,0-0.1,0.1-0.1,0.1c-0.3,0.1-1.8,0.7-2.8,0.7c-0.2,0-0.4,0-0.6-0.1c-0.8-0.2-1.6-0.6-2.3-0.6c-0.3,0-0.6,0.1-0.8,0.3
		c-0.5,0.5-1.2,0.8-2,0.8c-0.2,0-0.4,0-0.6-0.1c-0.3-0.1-0.7-0.2-1.1-0.2c-0.7,0-1.8,0.2-3.3,0.6c-1,0.3-1.9,0.4-2.7,0.4
		c-1.2,0-2.1-0.2-2.8-0.5c-0.3-0.1-0.6-0.1-0.8-0.2c-0.2,0.3-0.4,0.6-0.6,0.9c0.4-0.1,0.7-0.2,1.1-0.2c0.9,0,1.7,0.3,2.4,0.5
		c0.3,0.1,0.6,0.1,0.8,0.1c0.1,0,0.1,0,0.2,0c0.1,0,0.1,0,0.1,0c0.2,0,0.5,0,0.9,0.4c0.3,0.2,0.5,0.3,0.8,0.4c0,0,0.1,0,0.1,0
		c0.2,0,0.4-0.2,0.4-0.4c0-0.1,0-0.2,0-0.3c0-0.2,0.2-0.3,0.3-0.3c0.2-0.1,0.3-0.2,0.2-0.4c0,0,0-0.1,0-0.1c0.1-0.3,1.2-0.4,2-0.4
		c0.3,0,0.6,0,0.8,0.1c0.7,0.1,1.2,0.3,1.5,0.5c0.4-0.1,0.7-0.3,1.1-0.4c0,0,0.1-0.1,0.1-0.1c0.4-0.2,0.9-0.4,1.2-0.6
		c0.4-0.3,0.8-0.3,1.1-0.3c0.7,0,1.2,0.3,1.4,0.4c0,0,0.1,0,0.2,0.1c0.6,0,1.2,0,1.7,0c0.2,0,0.3,0,0.5,0c0-0.1,0.1-0.3,0.2-0.3
		c0.5-0.2,1.1-0.4,1.6-0.6c0.3-0.1,0.3-0.5,0.1-0.6C102.2,19.3,102.1,19.2,102.1,19.2"/>
	<path class="st3" d="M99.8,20.8c-0.6,0-1.2,0-1.7,0c0.4,0.2,1.4,0.7,2.3,0.7c0.2,0,0.3,0,0.5-0.1c0.4-0.1,0.7-0.1,1-0.1
		c0.7,0,1.3,0.2,1.3,0.2c-0.1-0.2-0.9-0.4-1.8-0.4c-0.2,0-0.4,0-0.6,0c0,0,0,0-0.1,0c0,0,0,0,0,0c-0.2,0-0.3-0.2-0.3-0.4
		C100.2,20.8,100,20.8,99.8,20.8 M94,21.5c-0.4,0.1-0.8,0.2-1.1,0.4c0.9,0.4,1.2,1,1.2,1.3c0,0.2,0.2,0.3,0.4,0.3c0,0,0,0,0,0
		c0.1,0,0.2,0,0.3,0c1.1,0,1.4,0.3,1.4,0.3s0,0,0.1,0c0.1,0,0.3,0,0.7-0.2c0.2-0.1,0.3-0.1,0.4-0.1c0.3,0,0.4,0.2,0.5,0.5
		c0,0.2,0.2,0.3,0.3,0.3c0,0,0,0,0.1,0c0.1,0,0.1,0,0.2,0c0.3,0,0.7,0.1,0.9,0.2c0,0,0.1,0,0.1,0c0,0,0.1,0,0.1,0
		c0.9-0.4,2-0.5,2-0.5c-0.1,0-0.2,0-0.4,0c-0.6,0-1.4,0.2-1.9,0.3c-0.1,0-0.1,0-0.2,0c-0.3,0-0.6-0.1-0.7-0.2
		c-0.1,0-0.1-0.1-0.1-0.2c0-0.2-0.2-0.3-0.3-0.5C98.1,23.1,98,23,97.9,23c0,0,0,0-0.1,0c-0.3,0.1-0.6,0.1-0.8,0.1
		c-0.5,0-0.8-0.1-1.3-0.2c-0.2-0.1-0.4-0.1-0.6-0.1c-0.1,0-0.3,0-0.4,0c0,0,0,0-0.1,0c-0.1,0-0.2-0.1-0.3-0.2l0,0c0,0,0-0.1,0-0.1
		c-0.1-0.2-0.2-0.4-0.4-0.6C93.9,21.8,93.9,21.6,94,21.5"/>
	<path class="st5" d="M85.2,30.3c-2.3,0.5-4.1,2.8-4.2,4.8c0,0.3,0,0.5,0,0.7c0,0.4,0,0.8,0,1.2c0.1,2.2,0.1,3.6,0.2,5.6
		C81.8,38.6,83.1,34.4,85.2,30.3"/>
	<path class="st6" d="M86.1,30.3c-0.3,0-0.6,0-0.8,0.1c-2.2,4-3.4,8.3-3.9,12.4c0,0.9,0.1,1.9,0.1,3.2c0.1,2.3,1,4.7,3.7,4.9
		c2,0.1,4.1,0.3,6.1,0.4c0.3,0,0.5,0,0.8,0c1.8,0,2.8-0.5,2.9-1.7c-0.1-1.4-1.3-1.2-3.7-1.4c-1.5-0.1-3.4-0.3-4.5-1.3
		c-0.6-0.6-0.9-1.5-0.8-2.3c-0.1-0.8,0.2-1.6,0.6-2.1c0.6-0.6,1.7-0.8,2.7-0.8c0.3,0,0.6,0,0.9,0c1,0.1,1.7,0.2,2.3,0.2
		c0.8,0,1.2-0.2,1.3-0.8c-0.1-1.4-1.4-2.2-3.8-2.4c-2.5-0.2-4.1-0.7-4.9-1.3c-0.4-0.3-0.5-0.6-0.5-0.9c0-0.1,0-0.2,0-0.2
		c0,0,0-0.1,0-0.1c0,0,0-0.1,0-0.1c0-1.4,1-1.7,2.7-1.7c0.9,0,1.9,0.1,3.1,0.2c0.3,0,0.5,0,0.8,0c1.8,0,2.7-0.5,2.8-1.7
		c-0.1-1.4-1.4-2.2-3.8-2.4c-2-0.1-2-0.1-4-0.3C86.3,30.3,86.2,30.3,86.1,30.3"/>
	<path class="st5" d="M118.1,33.9c0,0.9,0,1.9-0.1,2.9c0,0,0.1,0,0.1,0c2.7,0,5.5,3,5.9,6.3c0.4,3.4-0.7,6.5-4.5,7.1
		c-0.3,0.1-0.7,0.1-1,0.1c-1.3,0-2.4-0.5-3.3-1.2c-0.4,1-0.8,2-1.3,2.9c1.5,1,3.3,1.6,5.3,1.6c0,0,0.1,0,0.1,0c2.1,0,3.8-0.8,5-2
		c0.3-2.6,1.2-5.6,2.4-8.6c-0.1-0.4-0.1-0.9-0.2-1.3c-0.1-0.5-0.2-1-0.4-1.4C124.8,36.4,122,34,118.1,33.9"/>
	<path class="st6" d="M126.7,42.8c-1.1,3.1-2.1,6.1-2.4,8.6c1.6-1.7,2.5-4.2,2.5-7.1c0-0.3,0-0.7-0.1-1
		C126.7,43.2,126.7,43,126.7,42.8"/>
	<path class="st6" d="M117.7,33.9c0,0-0.1,0-0.1,0c-3.3,0-5.9,1.9-7.1,4.8c-0.2,0.4-0.3,0.8-0.5,1.3c-0.3,1-0.4,2-0.4,3.1
		c0,0.3,0,0.6,0,0.8c0.3,3.5,1.9,6.4,4.3,8.1c0.5-0.9,0.9-1.9,1.3-2.9c-1.3-1.1-2.1-2.9-2.3-4.7c-0.4-3.4,2.3-7.5,5.1-7.6
		c0,0,0,0,0,0c0.1-1,0.1-1.9,0.1-2.9C117.9,33.9,117.8,33.9,117.7,33.9"/>
	<path class="st5" d="M126.2,30.9c-1.8,0-2.7,0.6-2.8,1.7c0.1,0.9,0.6,1.6,1.6,1.9c-0.1-1.5,0.2-2.8,1.4-3.6
		C126.3,30.9,126.3,30.9,126.2,30.9 M134.6,31.3c1.1,0.3,2.3,0.7,3.3,1c-0.6-0.6-1.5-0.9-3-1C134.8,31.3,134.7,31.3,134.6,31.3"/>
	<path class="st6" d="M126.3,30.9c-1.1,0.8-1.5,2.1-1.4,3.6c0.5,0.2,1.2,0.3,1.9,0.3c0.6,0,0.8,0.2,1.4,0.4c0.8,0.2,1,1.7,1,3.8
		c0,0.4,0,0.9,0,1.4c0,0.5,0,0.9-0.1,1.4c-0.1,2.1-0.3,4.6-0.3,7c0,0.1,0,0.3,0,0.4c0,1.2,0.8,1.7,1.6,1.7c1,0,2.1-0.8,2.2-2
		c0.1-1.2,0.1-2.7,0.1-4.3c0-0.2,0-0.3,0-0.5l0,0c0-0.1,0-0.3,0-0.4l0-1.5l0-1.4l0-0.4c0-0.8,0-1.5,0-2.2c0-0.9,0-1.7,0-2.3
		c0-0.6,0.5-0.8,1-0.8c0.5,0,1,0.1,1.3,0.1c0.1,0,0.3,0,0.4,0c1.8,0,2.7-0.5,2.8-1.6c0-0.5-0.2-0.9-0.5-1.3c-1-0.4-2.1-0.7-3.3-1
		c-2.7-0.1-5.3-0.2-8-0.3C126.5,30.9,126.4,30.9,126.3,30.9"/>
	<path class="st6" d="M29.3,29.1c-1.2,0-2.2,0.5-3,1.7c-0.2,0.3-0.4,0.6-0.6,0.9c0,0.1-0.1,0.1-0.1,0.2l-0.7,1.3L24,34.8
		c-0.2,0.6-0.7,1.2-1,1.9l-5.3,9.9c-0.2,0.4-0.3,0.5-0.5,1.4c0.1,0.9,0.9,2.1,2,2.3c0.1,0,0.2,0,0.3,0c1,0,1.8-0.8,2.4-2
		c0.4-0.7,0.3-2,1.1-2.1c0.6-0.1,1.2-0.1,1.8-0.1c2.1,0,4.2,0.4,6.2,1.1c0.4,0.1,0.4,0.5,0.3,1c0,0.3,0,0.7,0,1l0,0
		c0.3,1.7,0.9,2.6,2.2,2.8c0.1,0,0.2,0,0.2,0c1.2,0,2.4-1.2,2.5-2c0-0.2,0-0.3,0.1-0.5c0-0.2-0.1-0.4-0.1-0.7
		C35,43.4,34,37.9,33,32.4c0,0,0-0.1,0-0.1c-0.1-0.4-0.2-0.7-0.3-1c-0.5-1.3-1.5-2.1-2.8-2.2C29.6,29.1,29.5,29.1,29.3,29.1
		 M28.2,42.8c-1.6,0-3.4-0.7-3-1.6c-0.1-0.2-0.1-0.3,0-0.5c1.4-3.1,2.2-6.7,3.5-6.7c0.1,0,0.1,0,0.2,0c1,0.3,1.5,1.9,1.5,4.7
		c0,0.9,0,2-0.1,3.2C30.1,42.6,29.2,42.8,28.2,42.8"/>
	<path class="st5" d="M52.5,26.7c-1.6,0-2.5,0.6-2.6,1.8c0.1,1.5,1.1,1.7,3.3,2.2c1.8,0.4,3.1,0.4,3.3,2.8c0,0,0,0.1,0,0.1
		c0,0.4,0.1,0.7,0.1,1.1c0.3,3.6,0.4,7.5,0.4,9.1c0.1,2.5,1.1,4.2,2.9,4.4c0.1,0,0.1,0,0.2,0c0.2-0.1,0.5-0.2,0.7-0.3
		c0.2-0.2,0.2-0.6,0.2-1c0-0.8-0.2-1.8-0.2-2.9c-0.1-3-0.1-4.8-0.2-6.8c-2.4-0.8-4.6-3.3-6.1-10.3c-0.4,0-0.7-0.1-1.1-0.1
		C53.2,26.8,52.8,26.7,52.5,26.7"/>
	<path class="st6" d="M54.7,26.9c1.5,7,3.8,9.5,6.1,10.3c0-0.7-0.1-1.4-0.2-2.2c0-0.4-0.1-0.7-0.1-1.1c0-0.3-0.1-0.6-0.1-1
		c0-0.1,0-0.2,0-0.3c0-0.1,0-0.1,0-0.2c-0.1-0.7,0.6-0.9,1.4-0.9c0.6,0,1.2,0.1,1.5,0.1c0.7,0.1,1.3,0.1,1.7,0.1
		c1,0,1.4-0.3,1.4-1.2c-0.1-1.6-1.3-2.5-3.8-2.8C60,27.6,57.4,27.3,54.7,26.9"/>
	<path class="st6" d="M61,47.9c-0.2,0.1-0.5,0.2-0.7,0.3h0C60.6,48.2,60.9,48.1,61,47.9"/>
	<path class="st5" d="M68.1,34.9c-1.5,1.2-2.9,2.1-4,2.5c0.2,3.9,0.7,6.3,1,9.6c0.4,0,0.8,0,1.2,0c2.4,0,4.7,0.6,6.6,1.3
		c0.7,0,1.4,0,2.1-0.1c3.3-0.4,4.9-2.4,5-4.7c-0.1-2.5-1.9-5.2-5.1-7c-0.8-0.4-1.7-0.8-2.6-1.1C70.8,35,69.4,35,68.1,34.9
		 M71.1,45.4c-1.3,0-2.4-0.2-2.5-0.4c-0.3-1.3-0.5-2.4-0.5-3.4c-0.1-2,0.6-3.2,2.6-3.2c0.2,0,0.5,0,0.8,0.1c2.4,0.3,3.6,2.2,3.7,4.1
		c0,0.1,0,0.2,0,0.3c0,0,0,0.1,0,0.1C75.4,44.9,73.1,45.4,71.1,45.4"/>
	<path class="st6" d="M66.4,34.7c-1,0-1.6,0.2-2,0.7C64.1,35.8,64,36.4,64,37c0,0.1,0,0.1,0,0.2c0,0,0,0.1,0,0.1
		c1.2-0.4,2.6-1.3,4-2.5c-0.2,0-0.4,0-0.6-0.1C67.1,34.7,66.7,34.7,66.4,34.7"/>
	<path class="st6" d="M66.2,46.9c-0.4,0-0.8,0-1.2,0c0.1,0.8,0.1,1.6,0.2,2.5c0.1,2.3,0.5,4.1,2.3,4.3c0.1,0,0.3,0,0.4,0
		c1.1,0,1.3-0.7,1.3-2c0-0.3,0-0.5,0-0.8c0-0.1,0-0.2,0-0.3c0-0.1,0-0.1,0-0.2c-0.1-2.1,1.6-2.3,3.6-2.3
		C70.9,47.5,68.6,46.9,66.2,46.9"/>
	<path class="st6" d="M97.5,29.5c-1.3,0-1.8,0.8-1.8,2.5c0,0.1,0,0.1,0,0.2c0.1,1.8,0.1,3.5,0.2,5c0,0.4,0,0.9,0,1.3
		c0.1,2.2,0.1,4.3,0.2,6.8c0.1,2.2,0.7,4.3,2.3,4.3c0.1,0,0.1,0,0.2,0c0.8,0,1.1-0.3,1.1-1c0-0.4-0.1-0.9-0.1-1.5
		c0-1.1-0.3-2.2-0.3-3c0-0.8,0.1-1.3,0.7-1.3c0.1,0,0.3,0,0.5,0.1c3.4,0.9,2.4,5.9,4.8,8.5c0.9,1,1.6,1.7,2.6,1.7c0,0,0,0,0.1,0
		c0.9,0,1.9-0.7,2-1.7c-0.1-0.6-0.5-1.4-1.3-2.2c-2.2-2.3-3.6-4.5-4-7.6c0-0.2,0-0.4,0-0.5c-0.1-0.7,0.2-1.2,0.6-1.7
		c0.4-0.4,0.8-0.8,1.4-1.2c1-0.7,2.2-1.3,3-2.1c0.6-0.7,1-1.3,1.1-1.9c-0.1-1.1-1.1-2-2.2-2.1c0,0,0,0-0.1,0c-0.8,0-1.5,0.6-2.3,1.5
		c-1.1,1.2-1.9,2.9-2.8,4.3c-0.3,0.4-0.7,0.9-1,1.2c-0.5,0.5-1.1,0.9-1.9,1c-0.1,0-0.1,0-0.2,0c-0.5,0-0.8-0.6-0.9-1.3
		c-0.1-0.4-0.1-0.8-0.2-1.3c0-0.6,0-1.1,0-1.7c0-0.5,0-1,0-1.4c0-0.1,0-0.3,0-0.4c-0.1-2.2,0.1-4.6-1.5-4.6
		C97.6,29.5,97.5,29.5,97.5,29.5"/>
	<path class="st5" d="M51.8,32.7c-0.4,0-0.8,0.1-1,0.3c-0.3,0.2-0.5,0.6-0.7,1c-0.2,0.5-0.2,1.1-0.2,1.8l0,0c0,0.5,0,0.9,0,1.2
		c0,1,0,1.5-0.8,1.6c0,1.3-0.1,2.6-0.2,3.9c0.1,0,0.1,0.1,0.2,0.1c1.1,0.5,1.2,2.4,1.2,4.2c0,0.7,0,1.3,0,1.9c0,0,0,0.1,0,0.1
		c0.1,2.4,0.8,3.7,2.2,3.7c0,0,0.1,0,0.1,0c1.3,0,1.9-1,1.9-3.1v0c-0.1-5.3-0.2-7.7-0.3-13c0-0.8-0.1-1.5-0.3-2
		c-0.1-0.5-0.4-0.9-0.6-1.2C52.8,32.9,52.4,32.7,51.8,32.7C51.8,32.7,51.8,32.7,51.8,32.7"/>
	<path class="st6" d="M39.7,29.3c-1.1,0-1.8,0.8-1.9,2.5c0,0.2,0,0.4,0,0.7l0,0c0,0.1,0,0.2,0,0.3c0.1,5.2,0.3,10.4,0.4,15.6
		c0,1.8,0.4,2.9,1.2,3.4c0.2-0.3,0.4-0.5,0.7-0.8c0.9-1,1.8-1.6,2.4-2.1c0-1-0.2-2.4-0.2-3.6c0-1.3,0.1-2.4,0.9-2.6
		c1-0.3,1.7-0.5,2.4-0.6c0.6-1.2,1.2-2.4,1.8-3.5c-0.9,0-2-0.1-4.2-0.2c-1,0-1.1-1.6-1.1-3.3c0-0.7,0-1.4,0-2c0-0.1,0-0.1,0-0.2
		c0-0.3,0-0.6-0.1-0.9C41.7,30.3,41,29.4,39.7,29.3C39.7,29.3,39.7,29.3,39.7,29.3 M49,38.7c-0.1,0-0.3,0-0.5,0c-0.1,0-0.2,0-0.3,0
		c-0.1,0-0.2,0-0.3,0c-0.4,1.3-0.8,2.4-1.1,3.4c0.6,0,1.2,0.2,1.9,0.5C48.9,41.3,49,40,49,38.7"/>
	<path class="st7" d="M47.3,38.7c-0.6,1.1-1.2,2.4-1.8,3.5c0.5-0.1,0.9-0.1,1.3-0.1c0,0,0.1,0,0.1,0c0.3-1,0.6-2.1,1.1-3.4
		C47.7,38.7,47.5,38.7,47.3,38.7 M42.4,49c-0.6,0.5-1.5,1.1-2.4,2.1c-0.2,0.3-0.5,0.5-0.7,0.8c0.3,0.2,0.6,0.3,1,0.3
		c0,0,0.1,0,0.1,0C41.7,52.2,42.4,51.2,42.4,49L42.4,49C42.4,49,42.4,49,42.4,49"/>
	<path class="st5" d="M118.1,36.7c0,0-0.1,0-0.1,0c-0.1,0.8-0.1,1.6-0.2,2.4c0.1,0,0.2,0,0.3,0c0,0,0,0,0.1,0c1.7,0,3.5,2,3.7,4.3
		c0.2,2.3-1.1,4.7-2.8,4.8c0,0,0,0-0.1,0c-1,0-2.1-0.6-2.9-1.5c-0.3,0.8-0.5,1.5-0.8,2.3c0.9,0.8,2,1.2,3.3,1.2c0.3,0,0.7,0,1-0.1
		c3.9-0.7,4.9-3.8,4.5-7.1C123.6,39.7,120.8,36.7,118.1,36.7"/>
	<path class="st6" d="M118,36.7C118,36.7,118,36.7,118,36.7c-2.8,0.1-5.5,4.2-5.1,7.6c0.2,1.8,1,3.6,2.3,4.7
		c0.3-0.8,0.6-1.5,0.8-2.3c-0.6-0.7-1.1-1.5-1.2-2.5c-0.2-2.2,1.3-4.8,2.9-5.1C117.8,38.3,117.9,37.5,118,36.7"/>
	<path class="st5" d="M118.1,39.1C118,39.1,118,39.1,118.1,39.1c-0.1,0-0.2,0-0.3,0c-0.3,2.5-0.9,5.1-1.7,7.6
		c0.8,0.9,1.9,1.5,2.9,1.5c0,0,0,0,0.1,0c1.7,0,3.1-2.5,2.8-4.8C121.5,41.1,119.7,39.1,118.1,39.1"/>
	<path class="st6" d="M117.7,39.1c-1.6,0.3-3.1,2.9-2.9,5.1c0.1,1,0.6,1.8,1.2,2.5C116.8,44.2,117.4,41.6,117.7,39.1"/>
	<path class="st4" d="M91.2,47.7c-1.5-0.1-3.4-0.3-4.5-1.3c-0.6-0.6-0.9-1.5-0.8-2.3c-0.1-0.8,0.2-1.6,0.6-2.1
		c0.8-0.8,2.4-0.8,3.6-0.7c2.3,0.2,3.5,0.5,3.7-0.7c-0.1-1.4-1.4-2.2-3.8-2.4c-2.5-0.2-4.1-0.7-4.9-1.3c-0.4-0.3-0.5-0.6-0.5-0.9
		c0-0.1,0-0.2,0-0.2c0,0,0-0.1,0-0.1c0,0,0-0.1,0-0.1c0-2.1,2.1-1.8,5.8-1.6c2.3,0.2,3.5-0.3,3.6-1.6c-0.1-1.4-1.4-2.2-3.8-2.4
		c-2-0.1-2-0.1-4-0.3c-2.8-0.2-5.2,2.5-5.3,4.9c0,0.3,0,0.5,0,0.7c0,0.4,0,0.8,0,1.2c0.1,3.2,0.2,4.8,0.3,8.9c0.1,2.3,1,4.7,3.7,4.9
		c2,0.1,4.1,0.3,6.1,0.4c2.3,0.2,3.5-0.4,3.6-1.7C94.8,47.7,93.6,47.8,91.2,47.7"/>
	<path class="st4" d="M126.7,42.7c-0.1-0.6-0.1-1.2-0.3-1.8c-0.1-0.5-0.2-1-0.4-1.4c-1.3-3.9-4.3-6.3-8.5-6.2
		c-3.3,0-5.9,1.9-7.1,4.8c-0.2,0.4-0.3,0.8-0.5,1.3c-0.3,1-0.4,2-0.4,3.1c0,0.3,0,0.6,0,0.8c0.5,5.7,4.4,9.7,9.8,9.7
		c4.9,0,7.4-4.1,7.5-9.1C126.8,43.4,126.7,43.1,126.7,42.7"/>
	<path class="st4" d="M134.8,30.7c-2.7-0.1-5.5-0.2-8.2-0.3c-2-0.1-3.1,0.5-3.2,1.7c0.1,1.4,1.3,2.1,3.5,2.2c0.6,0,0.8,0.2,1.4,0.4
		c0.8,0.2,1,1.7,1,3.8c0,0.4,0,0.9,0,1.4c0,0.5,0,0.9-0.1,1.4c-0.1,2.1-0.3,4.6-0.3,7c0,0.1,0,0.3,0,0.4c0,2.5,3.5,2,3.8-0.4
		c0.1-1.2,0.1-2.7,0.1-4.3c0-0.2,0-0.3,0-0.5l0,0c0-0.1,0-0.3,0-0.4l0-1.5l0-1.4l0-0.4c0-0.8,0-1.5,0-2.2c0-0.9,0-1.7,0-2.3
		c0-1.2,1.7-0.7,2.3-0.6c2,0.1,3.1-0.4,3.2-1.6C138.2,31.5,137.1,30.8,134.8,30.7"/>
	<path class="st4" d="M30.3,38.1c0,0.9,0,2-0.1,3.2c-0.2,1.7-5.6,1-5.1-0.6c-0.1-0.2-0.1-0.3,0-0.5c1.5-3.3,2.3-7.1,3.7-6.7
		C29.8,33.7,30.4,35.4,30.3,38.1 M36.1,48.3C35,42.8,34,37.3,33,31.9c0,0,0-0.1,0-0.1c-0.1-0.4-0.2-0.7-0.3-1
		c-0.5-1.3-1.5-2-2.8-2.2c-1.4-0.2-2.6,0.4-3.5,1.6c-0.2,0.3-0.4,0.6-0.6,0.9c0,0.1-0.1,0.1-0.1,0.2l-0.7,1.3L24,34.2
		c-0.2,0.6-0.7,1.2-1,1.9l-5.3,9.9c-0.2,0.4-0.3,0.5-0.5,1.4c0.1,0.9,0.9,2.1,2,2.3c1.2,0.2,2-0.6,2.7-1.9c0.4-0.7,0.3-2,1.1-2.1
		c2.7-0.3,5.5,0.1,8,1c0.4,0.1,0.4,0.5,0.3,1c0,0.3,0,0.7,0,1l0,0c0.3,1.7,0.9,2.6,2.2,2.8c1.3,0.2,2.6-1.1,2.8-2
		c0-0.2,0-0.3,0.1-0.5C36.2,48.7,36.1,48.6,36.1,48.3"/>
	<path class="st4" d="M62.7,27.3c-3-0.4-6.1-0.7-9.1-1.1c-2.3-0.3-3.5,0.3-3.7,1.7c0.1,1.5,1.1,1.7,3.3,2.2c1.8,0.4,3.1,0.4,3.3,2.8
		c0,0,0,0.1,0,0.1c0,0.4,0.1,0.7,0.1,1.1c0.3,3.6,0.4,7.5,0.4,9.1c0.1,2.5,1.1,4.2,2.9,4.4c0.9,0.1,1.1-0.4,1.2-1.3
		c0-0.8-0.2-1.8-0.2-2.9c-0.1-4,0-5.8-0.4-9c0-0.4-0.1-0.7-0.1-1.1c0-0.3-0.1-0.6-0.1-1c0-0.1,0-0.2,0-0.3c0-0.1,0-0.1,0-0.2
		c-0.2-1.3,2.3-0.8,2.9-0.7c2.4,0.3,3.1,0.2,3.2-1C66.4,28.6,65.2,27.6,62.7,27.3"/>
	<path class="st4" d="M75.3,42.3c0.2,3.3-6.5,2.5-6.6,2c-0.3-1.3-0.5-2.4-0.5-3.4c-0.1-2.2,0.8-3.5,3.4-3.2c2.4,0.3,3.6,2.2,3.7,4.1
		c0,0.1,0,0.2,0,0.3C75.3,42.3,75.3,42.3,75.3,42.3 M74.8,35.9c-0.8-0.4-1.7-0.8-2.6-1.1c-1.6-0.5-3.1-0.4-4.7-0.6
		c-1.7-0.2-2.6,0-3,0.7c-0.3,0.4-0.4,0.9-0.4,1.6c0,0.1,0,0.1,0,0.2c0.3,4.9,0.9,7.4,1.2,12.2c0.1,2.3,0.5,4.1,2.3,4.3
		c1.4,0.2,1.7-0.5,1.8-2c0-0.3,0-0.5,0-0.8c0-0.1,0-0.2,0-0.3c0-0.1,0-0.1,0-0.2c-0.2-2.9,3.2-2.1,5.6-2.4c3.3-0.4,4.9-2.4,5-4.7
		C79.8,40.4,78,37.6,74.8,35.9"/>
	<path class="st4" d="M106.7,37.7c1-0.7,2.2-1.3,3-2.1c0.6-0.7,1-1.3,1.1-1.9c-0.1-1.1-1.1-2-2.2-2.1c-0.8,0-1.5,0.5-2.4,1.5
		c-1.1,1.2-1.9,2.9-2.8,4.3c-0.3,0.4-0.7,0.9-1,1.2c-0.5,0.5-1.1,0.9-1.9,1c-0.6,0.1-0.9-0.4-1.1-1.3c-0.1-0.4-0.1-0.8-0.2-1.3
		c0-0.6,0-1.1,0-1.7c0-0.5,0-1,0-1.4c0-0.1,0-0.2,0-0.4c-0.1-2.2,0.1-4.6-1.5-4.6c-1.4-0.1-2,0.8-2,2.5c0,0.1,0,0.1,0,0.2
		c0.1,1.8,0.1,3.5,0.2,5c0,0.4,0,0.9,0,1.3c0.1,2.2,0.1,4.3,0.2,6.8c0.1,2.2,0.7,4.3,2.3,4.3c1,0,1.2-0.2,1.3-1
		c0-0.4-0.1-0.9-0.1-1.5c0-1.1-0.3-2.2-0.3-3c-0.1-0.9,0.1-1.5,1.2-1.2c3.4,0.9,2.4,5.9,4.8,8.5c0.9,1,1.6,1.7,2.6,1.7
		c1,0,1.9-0.7,2.1-1.7c-0.1-0.6-0.5-1.4-1.3-2.2c-2.2-2.3-3.6-4.5-4-7.6c0-0.2,0-0.4,0-0.5c-0.1-0.7,0.2-1.2,0.6-1.7
		C105.6,38.4,106.1,38,106.7,37.7"/>
	<path class="st4" d="M53.8,33.8c-0.1-0.5-0.4-0.9-0.6-1.2c-0.3-0.3-0.8-0.5-1.3-0.5c-0.5,0-0.8,0.1-1.1,0.3c-0.3,0.2-0.5,0.6-0.7,1
		c-0.2,0.5-0.2,1.1-0.2,1.8v0c0,0.5,0,0.9,0,1.2c0,1.2-0.1,1.6-1.3,1.7c-1.3,0-2.2-0.1-5.5-0.2c-1,0-1.1-1.6-1.1-3.3
		c0-0.7,0-1.4,0-2c0-0.1,0-0.1,0-0.2c0-0.3,0-0.6-0.1-0.9c-0.2-1.9-0.9-2.8-2.2-2.8c-1.2,0-1.8,0.8-2,2.5c0,0.2,0,0.4,0,0.7v0
		c0,0.1,0,0.2,0,0.3c0.1,5.2,0.3,10.4,0.4,15.6c0.1,2.5,0.8,3.7,2.2,3.7c1.3,0,2-1,2-3.1v0c0-1-0.2-2.4-0.2-3.6
		c0-1.3,0.1-2.4,0.9-2.6c3-0.8,3.9-1.1,5.9-0.1c1.1,0.5,1.2,2.4,1.2,4.2c0,0.7,0,1.3,0,1.9c0,0,0,0.1,0,0.1c0.1,2.4,0.8,3.7,2.2,3.7
		c1.3,0,2-1,2-3.1v0c-0.1-5.3-0.2-7.7-0.3-13C54.1,35,54,34.4,53.8,33.8"/>
	<path class="st8" d="M118,36.1c2.7-0.1,5.7,2.9,6,6.3c0.4,3.4-0.7,6.5-4.5,7.1c-3.9,0.6-6.2-2.5-6.6-5.9
		C112.5,40.3,115.2,36.2,118,36.1"/>
	<path class="st4" d="M118,38.5c1.7-0.1,3.5,2,3.8,4.3c0.2,2.3-1.1,4.7-2.8,4.8c-1.7,0.1-3.9-1.7-4.1-4
		C114.6,41.3,116.3,38.6,118,38.5"/>
	<path class="st4" d="M34.4,66.8c0,0,0.1,0,0.3-0.1c0.2-0.1,0.5-0.2,0.8-0.3c0.7-0.3,1.7-0.7,2.6-1.2c1-0.6,1.8-1.2,2.4-1.7
		c0.3-0.2,0.5-0.4,0.7-0.6c0.2-0.1,0.2-0.2,0.2-0.2s-0.1,0.1-0.2,0.2c-0.1,0.2-0.4,0.4-0.6,0.6c-0.6,0.5-1.4,1.2-2.4,1.7
		c-1,0.6-2,1-2.7,1.2c-0.4,0.1-0.7,0.2-0.9,0.2C34.6,66.8,34.4,66.8,34.4,66.8"/>
	<path class="st4" d="M119.3,29.7c0,0,0-0.1,0.1-0.3c0.1-0.2,0.2-0.5,0.4-0.8c0.3-0.7,0.9-1.7,0.6-2.9c-0.1-0.6-0.3-1.1-0.5-1.6
		c-0.2-0.5-0.3-0.9-0.5-1.3c-0.2-0.4-0.3-0.6-0.4-0.8c-0.1-0.2-0.2-0.3-0.2-0.3s0.1,0.1,0.2,0.3c0.1,0.2,0.3,0.5,0.5,0.8
		c0.2,0.3,0.4,0.8,0.6,1.3c0.2,0.5,0.4,1,0.5,1.6c0,0.3,0.1,0.6,0.1,0.9c0,0.1,0,0.3-0.1,0.4c0,0.1-0.1,0.3-0.1,0.4
		c-0.2,0.5-0.4,0.9-0.6,1.2c-0.2,0.3-0.3,0.6-0.4,0.8C119.4,29.6,119.3,29.7,119.3,29.7"/>
	<path class="st4" d="M147.8,41.3c0,0,0-0.3,0-0.9c0-0.6,0-1.4,0-2.4c-0.1-1-0.2-2.2-0.6-3.5c-0.4-1.3-0.9-2.7-1.6-4.1
		c-0.2-0.3-0.4-0.7-0.5-1c-0.2-0.3-0.4-0.6-0.6-0.9c-0.2-0.2-0.5-0.5-0.8-0.6c-0.3-0.2-0.6-0.3-0.9-0.4c-0.3-0.1-0.6-0.2-1-0.3
		c-0.2-0.1-0.3-0.2-0.4-0.2c-0.1-0.1-0.3-0.1-0.4-0.2c-0.5-0.3-1-0.5-1.5-0.8c-0.9-0.5-1.6-1-2.1-1.3c-0.2-0.2-0.4-0.4-0.5-0.5
		c-0.1-0.1,0-0.2,0-0.2c0,0,0,0.1,0.1,0.2c0.1,0.1,0.2,0.3,0.5,0.4c0.5,0.3,1.2,0.7,2.1,1.2c0.5,0.2,1,0.5,1.5,0.7
		c0.1,0.1,0.3,0.1,0.4,0.2c0.1,0.1,0.3,0.1,0.4,0.2c0.3,0.1,0.6,0.2,0.9,0.3c0.7,0.2,1.4,0.5,1.9,1.1c0.5,0.6,0.9,1.3,1.2,2
		c0.7,1.4,1.3,2.8,1.6,4.2c0.3,1.3,0.4,2.6,0.4,3.6c0,1-0.1,1.9-0.1,2.4C147.9,40.9,147.8,41.3,147.8,41.3"/>
	<path class="st4" d="M58.2,8.6c0,0,0.1,0,0.2,0c0.2,0,0.4,0,0.7-0.1c0.6,0,1.5-0.1,2.7,0c1.1,0.1,2.5,0.2,3.9,0.6
		c0.7,0.2,1.5,0.4,2.2,0.9c0.4,0.2,0.7,0.5,1,0.9c0.1,0.1,0.1,0.2,0.2,0.3c0.1,0.1,0.1,0.2,0.2,0.3c0.1,0.2,0.2,0.4,0.3,0.6
		c0.1,0.2,0.2,0.4,0.3,0.5c0.1,0.2,0.2,0.3,0.4,0.4c0.3,0.2,0.6,0.4,1,0.5c0.7,0.2,1.5,0.3,2.2,0.6c0.4,0.1,0.7,0.3,1,0.5
		c0.3,0.2,0.6,0.5,0.8,0.7c0.4,0.5,0.8,1.1,1,1.6c0.5,1,0.6,2,0.5,2.6c0,0.3-0.1,0.5-0.2,0.7c0,0.1-0.1,0.1-0.1,0.2c0,0,0,0.1,0,0.1
		s0,0,0-0.1c0,0,0.1-0.1,0.1-0.2c0.1-0.1,0.1-0.4,0.2-0.7c0.1-0.6-0.1-1.5-0.6-2.5c-0.2-0.5-0.6-1-1-1.5c-0.2-0.2-0.5-0.4-0.7-0.6
		c-0.3-0.2-0.6-0.3-0.9-0.4c-0.7-0.2-1.5-0.3-2.3-0.5c-0.4-0.1-0.8-0.3-1.2-0.6c-0.2-0.2-0.3-0.3-0.5-0.5c-0.1-0.2-0.2-0.4-0.3-0.6
		c-0.1-0.2-0.2-0.4-0.2-0.6c0-0.1-0.1-0.2-0.1-0.3c-0.1-0.1-0.1-0.2-0.2-0.2c-0.2-0.3-0.5-0.6-0.8-0.8c-0.6-0.4-1.4-0.7-2.1-0.9
		c-1.4-0.4-2.7-0.6-3.8-0.7c-1.1-0.1-2-0.1-2.6-0.1c-0.3,0-0.6,0-0.7,0C58.2,8.6,58.2,8.6,58.2,8.6"/>
	<path class="st4" d="M46,22.8c0,0-0.1-0.3-0.1-0.8c-0.1-0.5-0.2-1.2-0.4-2.1c-0.2-0.9-0.5-1.9-0.9-3c-0.2-0.6-0.4-1.1-0.7-1.7
		c-0.3-0.6-0.6-1.2-0.9-1.8c-0.4-0.6-0.7-1.1-1.1-1.6c-0.4-0.5-0.8-1-1.3-1.3c-0.5-0.3-1-0.3-1.6-0.3c-0.5,0-1,0-1.5,0
		c-0.9,0.1-1.6,0.2-2.1,0.2c-0.5,0.1-0.8,0.1-0.8,0.1s0.3-0.1,0.8-0.2c0.5-0.1,1.2-0.3,2.1-0.4c0.5-0.1,1-0.1,1.5-0.1
		c0.3,0,0.6,0,0.8,0c0.1,0,0.3,0,0.5,0.1l0.1,0l0.1,0.1c0.1,0,0.2,0.1,0.2,0.1c0.5,0.3,1,0.8,1.4,1.3c0.4,0.5,0.8,1.1,1.2,1.7
		c0.4,0.6,0.7,1.2,1,1.8c0.3,0.6,0.5,1.2,0.7,1.8c0.4,1.2,0.6,2.2,0.8,3.1c0.2,0.9,0.3,1.6,0.3,2.1C46,22.5,46,22.8,46,22.8"/>
	<path class="st4" d="M51.1,20.7c0,0,0,0,0-0.1c0-0.1-0.1-0.2-0.1-0.4c-0.1-0.3-0.2-0.8-0.3-1.5c-0.1-0.6-0.1-1.4,0.1-2.2
		c0.1-0.4,0.2-0.8,0.3-1.3c0.1-0.4,0.4-0.9,0.2-1.3c-0.1-0.2-0.2-0.4-0.3-0.6c-0.1-0.2-0.2-0.4-0.3-0.6c-0.2-0.4-0.4-0.8-0.6-1.1
		c-0.1-0.1-0.1-0.2-0.2-0.3c0-0.1-0.1-0.2-0.1-0.3c0-0.1-0.1-0.2-0.1-0.3c0-0.1,0-0.2,0-0.3c0-0.4,0.1-0.7,0.2-1
		c0.3-0.6,0.6-1,0.9-1.2C50.8,8.1,50.9,8.1,51,8c0.1,0,0.1,0,0.1,0s0,0-0.1,0c-0.1,0-0.2,0.1-0.3,0.2c-0.3,0.2-0.6,0.6-0.8,1.2
		c-0.1,0.3-0.2,0.6-0.1,1c0,0.1,0,0.2,0.1,0.3c0,0.1,0.1,0.2,0.1,0.3c0,0.1,0.1,0.2,0.1,0.2c0.1,0.1,0.1,0.2,0.2,0.3
		c0.2,0.4,0.4,0.7,0.6,1.1c0.1,0.2,0.2,0.4,0.3,0.6c0.1,0.2,0.2,0.4,0.3,0.6c0,0.1,0.1,0.3,0.1,0.4c0,0.1,0,0.3,0,0.4
		c-0.1,0.2-0.2,0.5-0.2,0.7c-0.1,0.4-0.3,0.8-0.3,1.2c-0.2,0.8-0.2,1.6-0.2,2.2c0,0.6,0.1,1.1,0.2,1.5c0,0.2,0.1,0.3,0.1,0.4
		C51.1,20.7,51.1,20.7,51.1,20.7"/>
	<path class="st4" d="M118.3,28.8c0,0,0-0.1,0.1-0.2c0.1-0.1,0.1-0.3,0.2-0.5c0.2-0.4,0.4-1,0.4-1.8c0-0.4,0-0.8-0.2-1.3
		c-0.1-0.4-0.4-0.9-0.8-1.2c-0.4-0.4-0.9-0.7-1.3-1.1c-0.4-0.5-0.7-1-0.8-1.7c0-0.2-0.1-0.3-0.1-0.5c0-0.1,0-0.2,0-0.2
		c0-0.1,0-0.2,0-0.2c0-0.3-0.1-0.5-0.2-0.8c-0.1-0.3-0.2-0.5-0.3-0.8c-0.1-0.1-0.1-0.2-0.2-0.3c-0.1-0.1-0.2-0.1-0.3-0.2
		c-1-0.2-2-0.3-2.8-0.4c-0.8,0-1.5,0-1.9,0.1c-0.2,0-0.4,0.1-0.5,0.1c-0.1,0-0.2,0-0.2,0s0.1,0,0.2,0c0.1,0,0.3-0.1,0.5-0.1
		c0.4-0.1,1.1-0.2,1.9-0.2c0.8,0,1.8,0,2.9,0.3c0.1,0,0.3,0.1,0.4,0.2c0.1,0.1,0.2,0.2,0.3,0.4c0.2,0.3,0.3,0.5,0.4,0.8
		c0.1,0.3,0.2,0.6,0.3,0.9c0,0.1,0,0.2,0,0.2c0,0.1,0,0.1,0,0.2c0,0.1,0,0.3,0.1,0.4c0.1,0.6,0.4,1.1,0.8,1.5
		c0.4,0.4,0.8,0.7,1.2,1.1c0.4,0.4,0.7,0.9,0.8,1.4c0.1,0.5,0.2,0.9,0.1,1.3c-0.1,0.8-0.4,1.4-0.6,1.8c-0.1,0.2-0.2,0.3-0.3,0.4
		C118.4,28.8,118.3,28.8,118.3,28.8"/>
	<path class="st4" d="M144,32.4c0,0,0-0.1,0-0.2c0-0.1-0.1-0.3-0.1-0.5c-0.1-0.4-0.4-1-0.9-1.6c-0.5-0.6-1.2-1.3-2-1.8
		c-0.4-0.3-0.9-0.5-1.4-0.7c-0.5-0.2-1.1-0.4-1.7-0.6c-0.6-0.2-1.2-0.4-1.7-0.6c-0.5-0.2-1-0.6-1.4-0.9c-0.8-0.7-1.5-1.4-2-2
		c-0.5-0.6-1-1.1-1.3-1.4c-0.2-0.2-0.3-0.3-0.4-0.4c-0.1-0.1-0.1-0.1-0.1-0.1s0,0,0.1,0.1c0.1,0.1,0.2,0.2,0.4,0.3
		c0.3,0.3,0.8,0.8,1.4,1.3c0.6,0.6,1.2,1.2,2.1,1.9c0.4,0.3,0.9,0.6,1.4,0.8c0.5,0.2,1.1,0.4,1.7,0.6c0.6,0.2,1.2,0.4,1.7,0.6
		c0.5,0.2,1,0.5,1.5,0.8c0.9,0.6,1.6,1.3,2,2c0.5,0.7,0.7,1.3,0.8,1.7c0,0.2,0.1,0.4,0.1,0.5C144,32.3,144,32.4,144,32.4"/>
	<path class="st4" d="M104.3,18.4c0,0-0.3,0.1-0.7,0.2c-0.2,0.1-0.5,0.1-0.9,0.2c-0.2,0-0.4,0.1-0.6,0.1c-0.2,0-0.4,0.1-0.6,0.1
		c-0.9,0.1-2,0.2-3.1,0.1c-1.2,0-2.5-0.2-3.8-0.3c-1.3-0.2-2.6-0.3-3.8-0.5c-1.2-0.1-2.2-0.2-3.1-0.1c-0.9,0.2-1.4,0.7-1.7,1.1
		c-0.1,0.2-0.2,0.4-0.2,0.5c0,0.1,0,0.1,0,0.1c0,0,0,0.1,0,0.1s0,0,0-0.1c0,0,0-0.1,0-0.1c0-0.1,0.1-0.3,0.2-0.5
		c0.1-0.2,0.3-0.5,0.6-0.7c0.3-0.2,0.7-0.4,1.1-0.5c0.4-0.1,0.9-0.2,1.5-0.2c0.3,0,0.5,0,0.8,0c0.3,0,0.6,0,0.9,0.1
		c1.2,0.1,2.5,0.2,3.8,0.4c1.3,0.2,2.6,0.3,3.8,0.4c1.2,0.1,2.2,0.1,3.1,0c0.2,0,0.4,0,0.6-0.1c0.2,0,0.4,0,0.6-0.1
		c0.3-0.1,0.6-0.1,0.9-0.2C104.1,18.4,104.3,18.4,104.3,18.4"/>
	<path class="st4" d="M72.3,17.5C72.3,17.5,72.3,17.5,72.3,17.5c0-0.1,0-0.2-0.1-0.2c0,0,0-0.1-0.1-0.1c-0.1-0.2-0.4-0.5-0.7-0.6
		c-0.2-0.1-0.4-0.2-0.7-0.2c-0.2-0.1-0.5-0.1-0.8-0.1c-0.3,0-0.6,0-0.9-0.1c-0.3-0.1-0.6-0.2-0.9-0.3c-0.3-0.2-0.5-0.4-0.7-0.7
		c-0.2-0.3-0.3-0.6-0.4-0.8c-0.2-0.6-0.3-1-0.4-1.5c-0.2-0.8-0.3-1.4-0.3-1.4s0.2,0.5,0.4,1.3c0.1,0.4,0.2,0.9,0.4,1.4
		c0.2,0.5,0.4,1.1,1,1.4c0.3,0.2,0.6,0.3,0.9,0.3c0.3,0.1,0.6,0.1,0.9,0.1c0.3,0,0.6,0.1,0.8,0.1c0.2,0.1,0.5,0.2,0.7,0.3
		c0.4,0.2,0.6,0.5,0.7,0.7c0,0.1,0,0.1,0.1,0.2C72.3,17.4,72.3,17.4,72.3,17.5C72.3,17.5,72.3,17.5,72.3,17.5"/>
	<path class="st4" d="M71.8,28.8c0,0,0.1-0.1,0.2-0.3c0.1-0.2,0.3-0.4,0.6-0.7c0.5-0.6,1-1.5,1.6-2.5c0.5-1,0.9-2,1.2-2.7
		c0.1-0.4,0.2-0.6,0.3-0.8c0.1-0.2,0.1-0.3,0.1-0.3s0,0.1-0.1,0.3c0,0.2-0.1,0.5-0.2,0.9c-0.2,0.7-0.6,1.7-1.1,2.7
		c-0.6,1-1.2,1.9-1.7,2.4c-0.2,0.3-0.5,0.5-0.6,0.7C71.9,28.7,71.8,28.8,71.8,28.8"/>
	<path class="st4" d="M146,54.6c0,0,0.1-0.1,0.3-0.4c0.1-0.1,0.2-0.3,0.3-0.5c0.1-0.2,0.3-0.4,0.4-0.6c0.1-0.1,0.1-0.2,0.2-0.4
		c0.1-0.1,0.1-0.3,0.2-0.4c0.1-0.3,0.3-0.6,0.4-0.9c0.3-0.7,0.5-1.4,0.7-2.3c0.2-0.8,0.3-1.6,0.3-2.3c0-0.4,0-0.7,0-1
		c0-0.2,0-0.3,0-0.5c0-0.1,0-0.3,0-0.4c0-0.3,0-0.5-0.1-0.7c0-0.2,0-0.4-0.1-0.6c0-0.3-0.1-0.5-0.1-0.5s0,0.2,0.1,0.5
		c0,0.2,0.1,0.3,0.1,0.6c0,0.2,0.1,0.5,0.1,0.7c0,0.1,0,0.3,0,0.4c0,0.2,0,0.3,0,0.5c0,0.3,0,0.7,0,1c0,0.7-0.1,1.5-0.3,2.4
		c-0.2,0.8-0.5,1.6-0.7,2.3c-0.2,0.3-0.3,0.7-0.5,0.9c-0.1,0.1-0.1,0.3-0.2,0.4c-0.1,0.1-0.2,0.3-0.2,0.4c-0.1,0.2-0.3,0.4-0.4,0.6
		c-0.1,0.2-0.2,0.3-0.3,0.5C146.1,54.5,146,54.6,146,54.6"/>
	<path class="st4" d="M138.7,58.7c0,0,0.1-0.1,0.2-0.2c0.2-0.1,0.4-0.2,0.6-0.4c0.5-0.4,1.2-0.9,1.9-1.6c0.7-0.7,1.2-1.4,1.6-1.9
		c0.2-0.3,0.3-0.5,0.4-0.6c0.1-0.2,0.1-0.2,0.1-0.2s0,0.1-0.1,0.3c-0.1,0.2-0.2,0.4-0.4,0.7c-0.3,0.6-0.9,1.3-1.6,2
		c-0.7,0.7-1.4,1.3-2,1.6c-0.3,0.2-0.5,0.3-0.7,0.4C138.8,58.7,138.7,58.7,138.7,58.7"/>
	<path class="st4" d="M123.3,24.4C123.3,24.4,123.3,24.4,123.3,24.4c-0.1-0.1-0.2-0.1-0.2-0.2c-0.1-0.1-0.3-0.4-0.4-0.7
		c-0.1-0.3-0.2-0.7-0.3-1.1c-0.1-0.4-0.2-0.9-0.1-1.5c0-0.3,0.1-0.5,0.2-0.8c0.2-0.2,0.3-0.4,0.5-0.5c0.4-0.2,0.8-0.3,1.2-0.3
		c0.3,0,0.6,0.1,0.8,0.1c0.1,0,0.2,0.1,0.2,0.1c0,0,0.1,0,0.1,0s0,0-0.1,0c0,0-0.1-0.1-0.2-0.1c-0.2-0.1-0.4-0.1-0.8-0.1
		c-0.3,0-0.7,0.1-1.1,0.3c-0.2,0.1-0.4,0.3-0.5,0.4c-0.1,0.2-0.2,0.4-0.2,0.7c0,0.5,0,1,0.1,1.4c0.1,0.4,0.2,0.8,0.3,1.1
		c0.1,0.3,0.2,0.6,0.3,0.7C123.2,24.3,123.2,24.3,123.3,24.4C123.3,24.4,123.3,24.4,123.3,24.4"/>
	<path class="st4" d="M78.5,32c0,0,0,0-0.1-0.1c0-0.1-0.1-0.2-0.1-0.4C78.2,31.1,78,30.6,78,30c0-0.6,0.1-1.4,0.5-2.1
		c0.4-0.8,1-1.4,1.7-2.1c0.7-0.6,1.5-1.2,2.1-1.7c0.6-0.5,1.1-1.1,1.4-1.6c0.3-0.5,0.5-1,0.6-1.3c0-0.1,0-0.2,0-0.2
		c0-0.1,0-0.1,0-0.2c0-0.1,0-0.1,0-0.1s0,0,0,0.1c0,0,0,0.1,0,0.2c0,0.1,0,0.1,0,0.2c0,0.3-0.2,0.8-0.5,1.4
		c-0.3,0.6-0.8,1.2-1.4,1.7c-0.6,0.6-1.3,1.1-2,1.8c-0.7,0.6-1.3,1.3-1.7,2c-0.4,0.7-0.6,1.4-0.6,2c0,0.6,0,1.1,0.1,1.5
		c0,0.2,0.1,0.3,0.1,0.4C78.4,31.9,78.5,32,78.5,32"/>
	<path class="st4" d="M126.9,51.6C126.9,51.6,126.9,51.7,126.9,51.6c-0.1,0.1-0.1,0.1-0.2,0.1c0,0-0.1,0.1-0.1,0.1
		c-0.2,0.1-0.3,0.4-0.4,0.8c-0.1,0.4-0.2,0.8-0.5,1.3c0,0.1-0.1,0.1-0.1,0.2c0,0.1-0.1,0.1-0.1,0.2c-0.1,0.1-0.2,0.2-0.3,0.3
		c-0.3,0.1-0.5,0.3-0.8,0.4c-0.6,0.2-1.1,0.4-1.5,0.7c-0.5,0.2-0.8,0.6-1,0.9c-0.2,0.3-0.3,0.6-0.3,0.9c0,0.1,0,0.2,0,0.3
		c0,0.1,0,0.1,0,0.1s0,0,0-0.1c0-0.1,0-0.1,0-0.3c0-0.2,0.1-0.6,0.3-0.9c0.2-0.3,0.5-0.7,1-1c0.5-0.3,1-0.5,1.6-0.7
		c0.5-0.2,1.1-0.4,1.3-0.9c0.3-0.4,0.4-0.9,0.5-1.3c0.1-0.4,0.3-0.6,0.5-0.8c0,0,0.1-0.1,0.1-0.1C126.8,51.7,126.8,51.7,126.9,51.6
		C126.9,51.6,126.9,51.6,126.9,51.6"/>
	<path class="st4" d="M19.3,17.3c0,0-0.1,0.1-0.4,0.2c-0.3,0.1-0.6,0.3-1,0.6c-0.8,0.6-1.9,1.5-2.8,2.8c-0.4,0.6-0.8,1.3-1.1,1.9
		c-0.3,0.6-0.6,1.1-1,1.5c-0.3,0.4-0.7,0.7-0.9,0.8c-0.1,0.1-0.2,0.1-0.3,0.2c-0.1,0-0.1,0-0.1,0s0,0,0.1-0.1c0.1,0,0.2-0.1,0.3-0.2
		c0.2-0.2,0.6-0.4,0.9-0.8c0.3-0.4,0.6-0.9,0.9-1.5c0.3-0.6,0.6-1.3,1.1-2c0.9-1.3,2-2.3,2.9-2.8c0.4-0.3,0.8-0.5,1.1-0.6
		C19.1,17.3,19.3,17.3,19.3,17.3"/>
	<path class="st4" d="M95.7,67.1c0,0,0.3,0,0.9,0c0.6,0,1.4,0,2.4,0c2,0,4.7-0.3,7.7-0.9c0.4-0.1,0.7-0.2,1.1-0.3
		c0.4-0.1,0.7-0.2,1.1-0.3c0.7-0.2,1.4-0.4,2-0.5c0.3-0.1,0.7-0.1,1-0.2c0.3,0,0.6-0.1,0.9-0.1c0.6-0.1,1.1-0.2,1.6-0.3
		c0.2-0.1,0.5-0.1,0.7-0.1c0.2,0,0.4-0.1,0.6-0.2c0.4-0.2,0.6-0.3,0.8-0.5c0.2-0.2,0.3-0.4,0.4-0.5c0-0.1,0.1-0.1,0.1-0.2
		c0,0,0-0.1,0-0.1s0,0,0,0.1c0,0,0,0.1-0.1,0.2c-0.1,0.1-0.2,0.3-0.4,0.5c-0.2,0.2-0.5,0.4-0.8,0.6c-0.2,0.1-0.4,0.2-0.6,0.2
		c-0.2,0.1-0.4,0.1-0.7,0.2c-0.5,0.1-1,0.3-1.6,0.4c-0.3,0.1-0.6,0.1-0.9,0.1c-0.3,0-0.6,0.1-0.9,0.2c-0.6,0.2-1.3,0.4-2,0.6
		c-0.3,0.1-0.7,0.2-1.1,0.3c-0.4,0.1-0.7,0.2-1.1,0.3c-3,0.7-5.8,0.8-7.8,0.7c-1,0-1.8-0.1-2.4-0.2C96,67.2,95.7,67.1,95.7,67.1"/>
	<path class="st4" d="M34.5,63c0,0-0.1,0-0.2,0c-0.1,0-0.4,0-0.6,0c-0.3,0-0.6,0.1-1,0.2c-0.4,0.1-0.8,0.3-1.2,0.6
		c-0.4,0.2-0.9,0.5-1.4,0.8c-0.5,0.3-1.1,0.6-1.8,0.7c-0.3,0.1-0.7,0.1-1.1,0.1c-0.4,0-0.8-0.1-1.1-0.3c-0.4-0.2-0.6-0.4-0.9-0.6
		c-0.3-0.2-0.6-0.3-1-0.4c-0.7-0.2-1.4-0.1-2.2-0.2c-0.7,0-1.4-0.2-2.1-0.3c-1.3-0.4-2.4-0.9-3.2-1.5c-0.8-0.6-1.4-1.2-1.8-1.6
		c-0.2-0.2-0.3-0.4-0.4-0.5c-0.1-0.1-0.1-0.2-0.1-0.2s0.1,0.1,0.2,0.2c0.1,0.1,0.2,0.3,0.4,0.5c0.4,0.4,1,0.9,1.8,1.5
		c0.8,0.5,1.9,1,3.2,1.3c0.6,0.2,1.3,0.3,2,0.3c0.7,0,1.5,0,2.3,0.2c0.2,0,0.4,0.1,0.6,0.2c0.2,0.1,0.4,0.2,0.5,0.3
		c0.3,0.2,0.6,0.5,0.9,0.6c0.6,0.3,1.3,0.3,1.9,0.2c0.6-0.1,1.2-0.4,1.7-0.6c0.5-0.3,1-0.6,1.4-0.8c0.5-0.2,0.9-0.4,1.3-0.5
		c0.4-0.1,0.7-0.2,1-0.2c0.3,0,0.5,0,0.6,0.1C34.5,63,34.5,63,34.5,63"/>
	<path class="st4" d="M24.7,60.8c0,0-0.2,0-0.6,0.1c-0.4,0.1-0.9,0.2-1.6,0.2c-0.7,0-1.5,0.1-2.4-0.1c-0.4-0.1-0.9-0.1-1.4-0.3
		c-0.5-0.2-1-0.4-1.3-0.8c-0.4-0.4-0.6-0.8-1-1.2c-0.3-0.3-0.7-0.6-1-0.9c-0.4-0.3-0.7-0.5-1-0.8c-0.3-0.3-0.5-0.6-0.7-0.9
		c-0.4-0.6-0.5-1.2-0.4-1.6c0-0.2,0.1-0.3,0.1-0.4c0-0.1,0.1-0.1,0.1-0.1s0,0.1,0,0.1c0,0.1-0.1,0.2-0.1,0.4c0,0.4,0.1,0.9,0.5,1.5
		c0.2,0.3,0.4,0.5,0.7,0.8c0.3,0.3,0.6,0.5,1,0.8c0.4,0.3,0.7,0.5,1.1,0.9c0.4,0.4,0.6,0.8,1,1.2c0.3,0.4,0.8,0.6,1.2,0.8
		c0.4,0.2,0.9,0.2,1.3,0.3c0.9,0.1,1.7,0.2,2.4,0.2c0.7,0,1.2-0.1,1.6-0.1C24.5,60.8,24.7,60.8,24.7,60.8"/>
	<path class="st4" d="M39,55.6c0,0-0.1,0-0.4,0.1c-0.2,0.1-0.6,0.2-1,0.4c-0.4,0.2-0.8,0.5-1.2,1c-0.4,0.4-0.7,1-1.1,1.6
		c-0.2,0.3-0.4,0.5-0.7,0.8c-0.2,0.2-0.5,0.4-0.7,0.6c-0.5,0.3-1,0.6-1.4,0.7c-0.4,0.2-0.8,0.3-1,0.4c-0.2,0.1-0.4,0.1-0.4,0.1
		s0.1-0.1,0.4-0.2c0.2-0.1,0.6-0.2,1-0.4c0.4-0.2,0.9-0.4,1.4-0.8c0.2-0.2,0.5-0.4,0.7-0.6c0.2-0.2,0.4-0.5,0.6-0.8
		c0.4-0.6,0.7-1.1,1.1-1.6c0.4-0.5,0.9-0.8,1.3-1c0.4-0.2,0.8-0.3,1-0.3C38.9,55.6,39,55.6,39,55.6"/>
	<path class="st4" d="M45.6,52.2c0,0,0-0.1,0.1-0.3c0.1-0.2,0.2-0.4,0.3-0.8c0.1-0.3,0.2-0.7,0.3-1.2c0.1-0.5,0.1-0.9,0.1-1.5
		c0-0.5,0-1.1,0.2-1.5c0.1-0.2,0.2-0.4,0.3-0.6c0.1-0.2,0.3-0.3,0.4-0.4c0.3-0.2,0.5-0.4,0.5-0.6c0-0.1,0.1-0.2,0.1-0.2
		c0-0.1,0-0.1,0-0.1s0,0,0,0.1c0,0.1,0,0.1-0.1,0.2c-0.1,0.2-0.3,0.4-0.5,0.7c-0.1,0.1-0.3,0.3-0.4,0.4c-0.1,0.2-0.2,0.4-0.3,0.6
		c-0.1,0.4-0.1,0.9-0.1,1.5c0,0.5,0,1-0.1,1.5c-0.1,0.5-0.2,0.9-0.3,1.2c-0.1,0.3-0.3,0.6-0.3,0.8C45.6,52.1,45.6,52.2,45.6,52.2"/>
	<path class="st4" d="M13.8,43.5C13.8,43.5,13.8,43.5,13.8,43.5c0-0.2,0-0.3,0-0.4c0-0.2,0-0.6,0.2-1c0.1-0.4,0.4-0.9,0.7-1.4
		c0.3-0.5,0.7-1,1.2-1.5c0.5-0.5,0.9-0.9,1.3-1.3c0.4-0.4,0.7-0.8,0.9-1.2c0.2-0.4,0.4-0.7,0.5-0.9c0-0.1,0.1-0.2,0.1-0.3
		c0-0.1,0-0.1,0-0.1s0,0,0,0.1c0,0.1,0,0.2-0.1,0.3c-0.1,0.2-0.2,0.6-0.4,1c-0.2,0.4-0.5,0.8-0.9,1.3c-0.4,0.4-0.8,0.9-1.3,1.4
		c-0.5,0.5-0.9,0.9-1.2,1.4c-0.3,0.5-0.6,0.9-0.7,1.3c-0.1,0.4-0.2,0.8-0.2,1C13.8,43.2,13.9,43.3,13.8,43.5
		C13.8,43.5,13.8,43.5,13.8,43.5"/>
	<path class="st4" d="M145.5,53.9c0,0,0,0.1-0.1,0.3c0,0.1-0.1,0.2-0.1,0.3c-0.1,0.1-0.1,0.3-0.2,0.4c-0.1,0.3-0.3,0.7-0.6,1.1
		c-0.3,0.4-0.6,0.9-1,1.4c-0.8,1-1.8,2-3,3.1c-0.6,0.5-1.3,1.1-2,1.6c-0.7,0.5-1.6,1-2.5,1.2c-0.9,0.3-1.9,0.3-2.7,0.3
		c-0.4,0-0.9,0.1-1.3,0.1c-0.4,0.1-0.8,0.2-1.2,0.3c-0.8,0.2-1.5,0.4-2.3,0.5c-0.7,0.1-1.4,0-2-0.1c-0.6-0.2-1.1-0.4-1.5-0.7
		c-0.4-0.3-0.7-0.6-0.9-0.8c-0.2-0.3-0.4-0.5-0.5-0.6c-0.1-0.2-0.1-0.2-0.1-0.2s0.1,0.1,0.2,0.2c0.1,0.1,0.3,0.4,0.5,0.6
		c0.5,0.5,1.3,1.1,2.5,1.3c0.6,0.1,1.2,0.2,1.9,0c0.7-0.1,1.4-0.3,2.2-0.6c0.4-0.1,0.8-0.2,1.2-0.3c0.4-0.1,0.9-0.1,1.3-0.2
		c0.9-0.1,1.8-0.1,2.6-0.3c0.9-0.2,1.6-0.7,2.4-1.1c0.7-0.5,1.4-1,2-1.5c1.3-1,2.3-2,3.1-2.9c0.4-0.5,0.7-0.9,1-1.3
		c0.3-0.4,0.5-0.7,0.7-1c0.1-0.1,0.2-0.3,0.2-0.4c0.1-0.1,0.1-0.2,0.1-0.3C145.5,54,145.5,53.9,145.5,53.9"/>
	<path class="st4" d="M90.3,67.8c0,0-0.6,0-1.5,0c-0.5,0-1,0-1.6,0c-0.6,0-1.3,0-2-0.2c-0.7-0.2-1.3-0.4-1.9-0.8
		c-0.3-0.2-0.5-0.4-0.6-0.6c-0.2-0.2-0.3-0.4-0.4-0.7c-0.2-0.4-0.2-0.8-0.1-1.1c0-0.1,0.1-0.2,0.1-0.3c0-0.1,0.1-0.1,0.1-0.1
		s0,0,0,0.1c0,0.1-0.1,0.2-0.1,0.3c-0.1,0.2,0,0.6,0.1,1.1c0.1,0.2,0.2,0.4,0.4,0.6c0.2,0.2,0.4,0.4,0.6,0.6
		c0.5,0.3,1.1,0.6,1.8,0.8c0.7,0.2,1.3,0.2,2,0.2c0.6,0,1.2,0,1.6,0c0.5,0,0.8,0,1.1,0.1C90.2,67.8,90.3,67.8,90.3,67.8"/>
	<path class="st4" d="M113.5,62.9c0,0,0.1,0,0.3,0c0.1,0,0.2,0,0.3,0c0.1,0,0.3,0,0.4,0c0.3,0,0.7-0.1,1-0.3c0.4-0.2,0.7-0.4,1-0.8
		c0.1-0.1,0.1-0.2,0.2-0.3c0,0,0.1-0.1,0.1-0.1c0-0.1,0-0.1,0.1-0.2c0.1-0.2,0.1-0.4,0.1-0.6c0-0.4,0.1-0.8,0.1-1.1
		c0-0.6,0.1-1,0.1-1s0,0.4,0,1c0,0.3,0,0.7,0,1.1c0,0.2,0,0.4-0.1,0.6c0,0.1,0,0.1-0.1,0.2c0,0.1-0.1,0.1-0.1,0.2
		c-0.1,0.1-0.1,0.2-0.2,0.3c-0.3,0.4-0.7,0.6-1.1,0.8c-0.4,0.2-0.7,0.2-1.1,0.3c-0.2,0-0.3,0-0.4,0c-0.1,0-0.2,0-0.3,0
		C113.6,62.9,113.5,62.9,113.5,62.9"/>
	<path class="st4" d="M105.9,67.8c0,0,0.3,0,0.8-0.1c0.5-0.1,1.2-0.2,2.1-0.4c0.9-0.2,2-0.4,3.1-0.8c0.6-0.2,1.2-0.4,1.8-0.5
		c0.3-0.1,0.6-0.2,1-0.3c0.3-0.1,0.6-0.2,0.9-0.3c0.3-0.1,0.5-0.4,0.8-0.6c0.2-0.1,0.3-0.2,0.5-0.2c0.2-0.1,0.4-0.1,0.5-0.1
		c0.3,0,0.7,0,0.9-0.1c0.1,0,0.3-0.1,0.4-0.2c0,0,0,0,0.1-0.1c0,0,0,0,0.1-0.1c0-0.1,0.1-0.1,0.1-0.2c0.1-0.1,0.1-0.2,0.2-0.3
		c0-0.1,0-0.2-0.1-0.3c-0.1-0.2-0.3-0.5-0.5-0.7c-0.1-0.1-0.2-0.2-0.2-0.3c0-0.1-0.1-0.1-0.1-0.2c0-0.1-0.1-0.1-0.1-0.2
		c-0.1-0.2-0.2-0.5-0.2-0.7c-0.2-0.9-0.2-1.7-0.2-2.2c0-0.3,0.1-0.5,0.1-0.6c0-0.1,0.1-0.2,0.1-0.2s0,0.1-0.1,0.2
		c0,0.1-0.1,0.3,0,0.6c0,0.5,0.1,1.3,0.3,2.1c0.1,0.2,0.1,0.4,0.2,0.7c0,0.1,0.1,0.1,0.1,0.2c0,0,0.1,0.1,0.1,0.2
		c0.1,0.1,0.2,0.2,0.2,0.3c0.2,0.2,0.4,0.4,0.5,0.7c0.1,0.1,0.1,0.3,0.1,0.5c0,0.2-0.1,0.3-0.2,0.5c0,0.1-0.1,0.1-0.1,0.2
		c0,0-0.1,0.1-0.1,0.1c0,0-0.1,0.1-0.1,0.1c-0.1,0.1-0.3,0.2-0.5,0.3c-0.3,0.1-0.7,0.1-1,0.1c-0.3,0-0.6,0.1-0.9,0.3
		c-0.3,0.2-0.5,0.4-0.9,0.6c-0.3,0.2-0.7,0.3-1,0.3c-0.3,0.1-0.7,0.2-1,0.2c-0.6,0.2-1.3,0.3-1.8,0.5c-1.2,0.3-2.3,0.5-3.2,0.6
		c-0.9,0.1-1.7,0.2-2.2,0.2C106.2,67.8,105.9,67.8,105.9,67.8"/>
	<path class="st4" d="M147.2,56.9c-0.8,1.1-1.7,2.1-2.5,3c0,0-7.4,5.9-13.3,6.1c-1.7,0.1-3.6,0-5.4-0.1c-0.2,0-0.4,0-0.6,0
		c-1.2-0.2-3.8-1.7-6.4-9.5c0,0-0.1,4.3,1.4,5.8c1.2,1.2,0.6,3-1.9,3.8c-0.6,0.1-1.2,0.2-1.7,0.3l0,0c-1.7,0.2-2.2,1.4-5.4,1.9
		c-16.5,0.4-46.5,1.4-54.9,2.8c-3.9,0.6-13.2,1.4-22.9-0.1c-0.2-0.2-0.4-0.5-0.1-0.9c0,0,0.1-0.1,0.1-0.1c0.2-0.2,0.6-0.5,1.1-0.7
		c0,0,0.1,0,0.1-0.1c0,0,0.1,0,0.1-0.1c0.6-0.2,1.4-0.4,2.3-0.4c0.9,0,1.8,0.1,2.9,0.2c1,0.1,2,0.3,2.9,0.4c0.9,0.1,1.7,0.1,2.4,0
		c0.7-0.1,1.2-0.2,1.6-0.3c0.2-0.1,0.3-0.1,0.4-0.2c0.1,0,0.1-0.1,0.1-0.1s0,0-0.1,0c-0.1,0-0.2,0.1-0.4,0.1
		C46.5,68.9,46,69,45.3,69c-0.7,0-1.5,0-2.3-0.1c-0.9-0.1-1.8-0.3-2.9-0.4c-1-0.1-2-0.2-2.9-0.2c-0.4,0-0.8,0.1-1.2,0.1
		c0,0,0.1,0,0.1-0.1c2.3-0.9,4.1-2,5-3.3c0,0-2.1,2.2-6.2,3.1c-6.1,1.3-13.3-0.6-13.3-0.6C17.1,65.7,13,63,10,59.3
		c-1.5-2.2-2.4-5-1.8-7.6c0.1-0.4,0.2-0.8,0.2-1.1c0,0,1-9.4,8.2-16.4c7.2-7,7.6-9.7,6.8-12.6c0,0,0.6,4.4-3.9,8.5
		c-5.2,4.7-8.2,4.5-9.2,9.4c-0.5,2.3-1.2,2.7-2.1,3.8c-1,1.2-2.3,1.8-2.8,0C5.1,42.3,5,41.5,5,40.8C5,40,5.1,39.3,5.2,38.5
		c0.3-2.1,0.9-4.6,1.9-7.2c0.4-0.5,1-1,1.7-1.4c0.7-0.5,1.6-0.8,2.5-1.2c0.9-0.4,1.8-0.8,2.5-1.3c0.7-0.5,1.3-1.1,1.7-1.6
		c0.4-0.5,0.7-1,0.9-1.3c0.1-0.2,0.2-0.3,0.2-0.4c0-0.1,0.1-0.1,0.1-0.1s0,0-0.1,0.1c0,0.1-0.1,0.2-0.2,0.4
		c-0.2,0.3-0.5,0.7-0.9,1.2c-0.4,0.5-1,1-1.7,1.5c-0.7,0.5-1.6,0.9-2.5,1.3c-0.9,0.4-1.8,0.8-2.5,1.3c-0.5,0.4-1,0.8-1.4,1.2
		c3.1-8,9.8-17.3,21.2-21.5c1.1-0.4,2.2-0.8,3.4-1.1c1-0.3,3.8-0.9,8-0.8c1.3,0.1,2,0.3,2.4,0.4c1.4,0.6,2.8,1.9,3.8,4.4
		c2.4,6,1.7,7.8,3.9,9.9c0,0-1.6-3.4-1.9-7c-0.2-1.8-0.6-3.4-1-4.6c-0.6-1.8,1.1-4.2,3-4.8c0.1,0,0.2-0.1,0.3-0.1
		c0.4-0.1,0.9-0.2,1.4-0.3h0c3.8,0,7.3,0.3,10.6,0.9c1,0.2,1.8,0.4,2.4,0.5c2.8,0.6,5.2,1.5,7.1,2.6c1.7,0.9,3.5,1.9,5.4,2.7h0
		c0,0,3.9,1.7,3.1,7.1c-0.2,1-0.2,1.9-1.4,4.2c0,0-2.6,5.2-2.9,5.8c-0.2,0.5-0.6,1.4-0.4,2.2c-0.1-0.3-0.1-1.9,2.8-5.8
		c0.1-0.2,0.2-0.3,0.3-0.5h0l1.1-1.4c1.5-1.7,3.2-3.8,2.8-5.5c-0.3-1.7,1.5-3.1,6.6-2.1l0,0c4.9,1.1,10.1,1.5,15.4,1
		c1.9-0.2,3.8-0.4,5.5-0.5c0,0,5.5-0.2,7.6,1.5c0.3,0.3,0.6,0.6,0.9,0.9c0.7,0.8,1.1,2.7,1.6,3.9c0.5,1.3,1.4,3.5,0.5,5.8
		c0,0,1.8-1.2,1-4.7c-1-4.3-0.6-4.7,2.2-5.9l0,0c0.3-0.1,2.5-0.9,5.4,0.3c1.6,0.7,3.2,1.7,4.8,2.9c8.5,6.4,8.7,4.6,10.8,5.8
		C147.1,28.3,155.5,46.1,147.2,56.9 M155,40.7c-1.3-8.4-5.1-16.1-7-17.5c-0.8-0.6-1.4-0.6-2-0.6c-1.3,0-3.3-0.1-9.3-4.7
		c-5.2-3.9-10.2-5.5-17.2-5.5c-3.5,0-7.5,0.4-12,0.8l-1.4,0.1c-1.5,0.1-3,0.2-4.5,0.2c-12.1,0-23-4.7-30.1-8.7
		c-4.8-2.7-12.6-4.2-21.5-4.2c-8.7,0-17.5,1.5-24.9,4.2C8.5,10.8,2.1,28.8,0.9,38.5C-0.4,49,1.7,57.4,7.1,63.6
		c4,4.5,9.7,7.8,17.2,9.8c5.8,1.6,12.7,2.4,20.3,2.4c4.3,0,8.8-0.3,13.4-0.8c5.9-0.6,19.2-1.1,32.1-1.6c10.8-0.4,20.9-0.8,26.8-1.2
		c0.5,0,1-0.1,1.5-0.1c12.1-0.9,24.5-1.8,33.2-13.1C155.8,53.5,155.8,46,155,40.7"/>
	<path class="st4" d="M75.6,31.3C75.6,31.4,75.6,31.4,75.6,31.3C75.6,31.4,75.6,31.4,75.6,31.3"/>
	<path class="st4" d="M73.5,65.7c0,0-0.1,0-0.2,0c-0.1,0-0.2,0-0.3,0c-0.1,0-0.2,0-0.4,0.1c-0.3,0.1-0.6,0.1-1,0.2
		c-0.4,0.1-0.8,0.3-1.2,0.5c-0.5,0.2-1,0.4-1.5,0.6c-0.5,0.2-1.1,0.4-1.8,0.6c-0.2,0-0.3,0.1-0.5,0.1c-0.2,0-0.3,0.1-0.5,0.1
		c-0.3,0-0.7,0.1-1.1,0.1c-0.7,0-1.5-0.1-2.2-0.2c-0.4,0-0.7-0.1-1.1-0.1c-0.4,0-0.7,0-1.1,0c-0.7,0-1.4,0.1-2,0.1
		c-1.3,0.1-2.4,0.3-3.4,0.4c-1,0.2-1.7,0.4-2.3,0.5c-0.1,0-0.2,0.1-0.4,0.1c-0.1,0-0.2,0.1-0.3,0.1c-0.1,0-0.2,0.1-0.2,0.1
		s0.1,0,0.2-0.1c0.1,0,0.1-0.1,0.2-0.1c0.1,0,0.2-0.1,0.3-0.1c0.5-0.2,1.3-0.4,2.2-0.7c1-0.2,2.1-0.4,3.4-0.6
		c0.6-0.1,1.3-0.1,2.1-0.2c0.4,0,0.7,0,1.1,0c0.4,0,0.7,0.1,1.1,0.1c0.7,0.1,1.5,0.2,2.2,0.2c0.3,0,0.7,0,1,0c0.2,0,0.3,0,0.5-0.1
		c0.2,0,0.3-0.1,0.5-0.1c1.2-0.3,2.3-0.8,3.3-1.1c0.5-0.2,0.9-0.3,1.3-0.4c0.4-0.1,0.7-0.1,1-0.2c0.1,0,0.3,0,0.4,0
		c0.1,0,0.2,0,0.3,0C73.5,65.7,73.5,65.7,73.5,65.7"/>
	<path class="st4" d="M13.7,61.7c0,0-0.1-0.1-0.4-0.3c-0.1,0-0.1-0.1-0.2-0.1c-0.1-0.1-0.1-0.1-0.2-0.2c-0.2-0.1-0.4-0.3-0.5-0.5
		c-0.1-0.1-0.2-0.2-0.3-0.3c-0.1-0.1-0.2-0.2-0.3-0.3c-0.2-0.2-0.4-0.5-0.6-0.8c-0.4-0.6-0.8-1.3-1.1-2c-0.3-0.8-0.5-1.5-0.6-2.2
		c0-0.4-0.1-0.7-0.1-1c0-0.2,0-0.3,0-0.5c0-0.1,0-0.3,0-0.4c0-0.3,0.1-0.5,0.1-0.7c0-0.1,0-0.2,0-0.3c0-0.1,0-0.2,0.1-0.2
		c0.1-0.3,0.1-0.4,0.1-0.4s0,0.2-0.1,0.5c0,0.1,0,0.2,0,0.2c0,0.1,0,0.2,0,0.3c0,0.2,0,0.4,0,0.7c0,0.1,0,0.3,0,0.4
		c0,0.1,0,0.3,0,0.4c0,0.3,0.1,0.6,0.1,1c0.1,0.7,0.3,1.4,0.6,2.2c0.3,0.7,0.6,1.4,1,2c0.2,0.3,0.4,0.6,0.6,0.8
		c0.1,0.1,0.2,0.2,0.3,0.4c0.1,0.1,0.2,0.2,0.3,0.3c0.2,0.2,0.3,0.4,0.5,0.5c0.1,0.1,0.1,0.1,0.2,0.2c0.1,0.1,0.1,0.1,0.2,0.2
		C13.6,61.6,13.7,61.7,13.7,61.7"/>
	<path class="st4" d="M5.7,40.4c0,0,0-0.2,0-0.5c0-0.1,0-0.2,0-0.3c0-0.1,0-0.2,0-0.3c0-0.2,0-0.5,0.1-0.8c0-0.2,0-0.3,0.1-0.5
		c0-0.2,0.1-0.3,0.1-0.5c0.1-0.4,0.2-0.7,0.3-1.1c0.2-0.8,0.6-1.6,1.1-2.4c0.5-0.8,1-1.5,1.6-2.1c0.3-0.3,0.5-0.6,0.8-0.8
		c0.1-0.1,0.3-0.2,0.4-0.3c0.1-0.1,0.3-0.2,0.4-0.3c0.2-0.2,0.5-0.3,0.7-0.5c0.1-0.1,0.2-0.1,0.3-0.2c0.1,0,0.2-0.1,0.2-0.1
		c0.3-0.2,0.5-0.2,0.5-0.2s-0.2,0.1-0.4,0.3c-0.1,0-0.2,0.1-0.2,0.2c-0.1,0.1-0.2,0.1-0.3,0.2c-0.2,0.1-0.4,0.3-0.6,0.5
		c-0.1,0.1-0.2,0.2-0.4,0.3C10,30.9,9.9,31,9.7,31.1c-0.3,0.2-0.5,0.5-0.8,0.8c-0.5,0.6-1,1.3-1.5,2.1c-0.5,0.8-0.8,1.6-1.1,2.3
		c-0.1,0.4-0.2,0.7-0.3,1.1C6,37.6,6,37.8,6,37.9c0,0.2-0.1,0.3-0.1,0.5c-0.1,0.3-0.1,0.6-0.1,0.8c0,0.1,0,0.2,0,0.3
		c0,0.1,0,0.2,0,0.3C5.7,40.2,5.7,40.4,5.7,40.4"/>
	<path class="st9" d="M49.7,0.2c-8.7,0-17.7,1.5-25.1,4.2c-4,1.4-7.6,3.7-10.8,6.7c-2.7,2.6-5.2,5.7-7.3,9.3
		c-4.6,8.1-5.9,15.9-6.2,18.1c-1.3,10.6,0.8,19.2,6.3,25.5c4,4.6,9.9,7.9,17.4,10c5.9,1.6,12.8,2.4,20.5,2.4c4.3,0,8.8-0.3,13.4-0.8
		c5.9-0.6,19.2-1.1,32-1.6c10.8-0.4,20.9-0.8,26.8-1.2c0.5,0,1-0.1,1.5-0.1c12.2-0.9,24.8-1.9,33.5-13.3c4.4-5.7,4.3-13.3,3.5-18.7
		c-0.6-3.8-1.7-7.9-3.3-11.5c-1.4-3.2-2.9-5.6-4-6.3c-0.9-0.6-1.6-0.7-2.3-0.7c-1.2,0-3.1-0.1-9-4.6c-5.3-4-10.4-5.6-17.5-5.6
		c-3.6,0-7.5,0.4-12,0.8c-0.5,0-0.9,0.1-1.4,0.1c-1.5,0.1-3,0.2-4.5,0.2c-5.2,0-10.7-0.9-16.2-2.6C80.6,9,76,7,71.5,4.5
		C66.7,1.8,58.7,0.2,49.7,0.2 M49.7,1.2c8.7,0,16.6,1.5,21.3,4.2c8,4.5,18.7,8.8,30.4,8.8c1.5,0,3-0.1,4.6-0.2c5.1-0.5,9.5-1,13.4-1
		c6.2,0,11.3,1.2,16.9,5.4c9.1,6.8,9.3,3.8,11.4,5.3c3.1,2.2,12.4,23.6,3.5,35.1c-8.9,11.5-21.6,12-34.3,13c-13,1-48.1,1.7-58.8,2.8
		c-3.7,0.4-8.3,0.7-13.3,0.7c-20.3,0-47.1-5.7-43.2-36.7C2.5,29.7,8.6,11.4,25,5.4C32.8,2.5,41.7,1.2,49.7,1.2"/>
	<path class="st5" d="M110,59.9h-0.7v-1.3h0.7c0.3,0,0.4,0.1,0.6,0.2c0.1,0.1,0.2,0.3,0.2,0.5c0,0.2-0.1,0.4-0.2,0.5
		C110.4,59.8,110.2,59.9,110,59.9 M110.1,57.1h-2.7v5.5h1.9v-1.4h0.8c0.5,0,1-0.1,1.3-0.3c0.4-0.2,0.7-0.4,0.9-0.7
		c0.2-0.3,0.3-0.7,0.3-1.1c0-0.4-0.1-0.8-0.3-1.1c-0.2-0.3-0.5-0.6-0.9-0.7C111,57.2,110.6,57.1,110.1,57.1 M100.7,60.4l0.5-1.4
		l0.5,1.4H100.7z M102.7,62.7h1.9l-2.4-5.5h-1.8l-2.4,5.5h1.9l0.4-1h2.1L102.7,62.7z M92.1,61.4v-0.9h1c0.4,0,0.6,0.1,0.6,0.4
		c0,0.1-0.1,0.3-0.2,0.3c-0.1,0.1-0.2,0.1-0.4,0.1H92.1z M90.2,62.7h2.9c0.7,0,1.3-0.2,1.7-0.5c0.4-0.3,0.6-0.8,0.6-1.3
		c0-0.5-0.2-1-0.5-1.2c-0.4-0.3-0.9-0.4-1.6-0.4h-1.3v-0.6h3v-1.4h-4.8V62.7z M80.1,61.4h-0.8v-1.2h0.8c0.4,0,0.6,0.2,0.6,0.6
		c0,0.2-0.1,0.4-0.2,0.5C80.4,61.3,80.3,61.4,80.1,61.4 M80.5,58.8h-1.1v-1.7h-1.8v5.5h2.8c0.7,0,1.3-0.2,1.8-0.5
		c0.4-0.3,0.6-0.8,0.6-1.5c0-0.6-0.2-1.1-0.6-1.4C81.7,59,81.1,58.8,80.5,58.8 M69.5,57.1l-0.1,2.2c0,0.4,0,0.8-0.1,1
		c0,0.3-0.1,0.5-0.2,0.6c-0.1,0.2-0.3,0.2-0.4,0.2c-0.1,0-0.1,0-0.2,0l-0.1,1.5c0.3,0.1,0.5,0.1,0.8,0.1c0.5,0,0.9-0.1,1.1-0.4
		c0.3-0.3,0.5-0.7,0.6-1.2c0.1-0.5,0.2-1.2,0.2-1.9l0-0.6h1.3v4.1h1.8v-5.5H69.5z M60,62.7h1.8l1.9-2.9v2.9h1.8v-5.5h-1.8L61.8,60
		v-2.9H60V62.7z M54.5,59.9h-0.7v-1.3h0.7c0.3,0,0.4,0.1,0.6,0.2c0.1,0.1,0.2,0.3,0.2,0.5c0,0.2-0.1,0.4-0.2,0.5
		C54.9,59.8,54.7,59.9,54.5,59.9 M54.6,57.1h-2.7v5.5h1.9v-1.4h0.8c0.5,0,1-0.1,1.3-0.3c0.4-0.2,0.7-0.4,0.9-0.7
		c0.2-0.3,0.3-0.7,0.3-1.1c0-0.4-0.1-0.8-0.3-1.1c-0.2-0.3-0.5-0.6-0.9-0.7C55.5,57.2,55.1,57.1,54.6,57.1 M49,57.1h-4.2v5.5h1.8
		v-4.1H49V57.1z"/>
	<path class="st4" d="M109.5,59.4h-0.7v-1.3h0.7c0.3,0,0.4,0.1,0.6,0.2c0.1,0.1,0.2,0.3,0.2,0.5c0,0.2-0.1,0.4-0.2,0.5
		C109.9,59.4,109.7,59.4,109.5,59.4 M109.6,56.7h-2.7v5.5h1.9v-1.4h0.8c0.5,0,1-0.1,1.3-0.3c0.4-0.2,0.7-0.4,0.9-0.7
		c0.2-0.3,0.3-0.7,0.3-1.1c0-0.4-0.1-0.8-0.3-1.1c-0.2-0.3-0.5-0.6-0.9-0.7C110.6,56.7,110.1,56.7,109.6,56.7 M100.2,59.9l0.5-1.4
		l0.5,1.4H100.2z M102.2,62.2h1.9l-2.4-5.5h-1.8l-2.4,5.5h1.9l0.4-1h2.1L102.2,62.2z M91.6,60.9V60h1c0.4,0,0.6,0.1,0.6,0.4
		c0,0.1-0.1,0.3-0.2,0.3c-0.1,0.1-0.2,0.1-0.4,0.1H91.6z M89.8,62.2h2.9c0.7,0,1.3-0.2,1.7-0.5c0.4-0.3,0.6-0.8,0.6-1.3
		c0-0.5-0.2-1-0.5-1.2c-0.4-0.3-0.9-0.4-1.6-0.4h-1.3v-0.6h3v-1.4h-4.8V62.2z M79.6,60.9h-0.8v-1.2h0.8c0.4,0,0.6,0.2,0.6,0.6
		c0,0.2-0.1,0.4-0.2,0.5C80,60.8,79.8,60.9,79.6,60.9 M80,58.4h-1.1v-1.7H77v5.5h2.8c0.7,0,1.3-0.2,1.8-0.5c0.4-0.3,0.6-0.8,0.6-1.5
		c0-0.6-0.2-1.1-0.6-1.4C81.2,58.5,80.7,58.4,80,58.4 M69,56.7L69,58.8c0,0.4,0,0.8-0.1,1c0,0.3-0.1,0.5-0.2,0.6
		c-0.1,0.2-0.3,0.2-0.4,0.2c-0.1,0-0.1,0-0.2,0l-0.1,1.5c0.3,0.1,0.5,0.1,0.8,0.1c0.5,0,0.9-0.1,1.1-0.4c0.3-0.3,0.4-0.7,0.6-1.2
		c0.1-0.5,0.2-1.2,0.2-2l0-0.6h1.3v4.1h1.8v-5.5H69z M59.5,62.2h1.8l1.9-2.9v2.9H65v-5.5h-1.8l-1.9,2.9v-2.9h-1.8V62.2z M54,59.4
		h-0.7v-1.3H54c0.3,0,0.4,0.1,0.6,0.2c0.1,0.1,0.2,0.3,0.2,0.5c0,0.2-0.1,0.4-0.2,0.5C54.4,59.4,54.3,59.4,54,59.4 M54.1,56.7h-2.7
		v5.5h1.9v-1.4h0.8c0.5,0,1-0.1,1.3-0.3c0.4-0.2,0.7-0.4,0.9-0.7c0.2-0.3,0.3-0.7,0.3-1.1c0-0.4-0.1-0.8-0.3-1.1
		c-0.2-0.3-0.5-0.6-0.9-0.7C55.1,56.7,54.6,56.7,54.1,56.7 M48.5,56.7h-4.2v5.5h1.8v-4.1h2.4V56.7z"/>
</g>
</svg>
