<svg width="23" height="22" viewBox="0 0 23 22" fill="none" xmlns="http://www.w3.org/2000/svg">
  <path d="M19.8013 15.0309C20.5702 14.7702 21.1903 14.2446 21.5951 13.5359C22.4994 11.9528 21.9433 9.91549 20.3602 9.01123C20.0737 8.8476 19.7614 8.7292 19.462 8.65819C19.6601 8.45139 19.8281 8.22738 19.9659 7.98614C20.9649 6.23714 20.3571 4.01032 18.6081 3.01133C17.5527 2.40849 16.2562 2.36781 15.1837 2.91505C14.9553 1.98469 14.3542 1.18147 13.525 0.707805C11.9267 -0.20507 9.90881 0.28204 8.91408 1.81351C7.65411 1.53376 6.33184 2.09828 5.68594 3.22909C5.49647 3.5608 5.37593 3.91187 5.3157 4.2974C3.85755 3.80447 2.20577 4.42073 1.42208 5.79279C0.517814 7.37593 1.06738 9.38954 2.65052 10.2938L2.6656 10.3024C2.21353 11.444 2.64669 12.8912 3.79259 13.5457C4.72739 14.0796 5.84515 13.9782 6.65698 13.3621C7.1398 15.4576 6.0741 17.5684 4.83397 19.7395C4.7823 19.83 4.80816 19.9248 4.89863 19.9764L7.62766 21.5352C7.67289 21.5611 7.71166 21.5632 7.75904 21.5503C7.80642 21.5373 7.84733 21.5007 7.86455 21.4706C7.88178 21.4404 9.61277 18.2698 11.4928 17.464C11.6781 17.6298 11.8719 17.7805 12.083 17.9011C12.9123 18.3748 13.9095 18.4844 14.8355 18.1935C15.0983 18.6436 15.4667 19.0139 15.919 19.2723C17.3212 20.0732 19.1216 19.5818 19.9225 18.1796C20.5146 17.178 20.4498 15.9612 19.8013 15.0309ZM8.78325 16.3963C8.99198 15.4357 9.14891 13.8656 8.91613 12.8728C9.48261 13.1763 10.1438 13.3141 10.7856 13.2407C10.4648 13.8374 10.3357 14.4835 10.3854 15.1317C9.84915 15.4054 9.20314 15.9762 8.78325 16.3963Z" fill="white"/>
</svg>
