<svg width="31" height="31" viewBox="0 0 31 31" fill="none" xmlns="http://www.w3.org/2000/svg">
<path d="M23.8013 19.0312C24.5702 18.7704 25.1903 18.2448 25.5951 17.5362C26.4994 15.953 25.9433 13.9157 24.3602 13.0115C24.0737 12.8478 23.7614 12.7294 23.462 12.6584C23.6601 12.4516 23.8281 12.2276 23.9659 11.9864C24.9649 10.2374 24.3571 8.01057 22.6081 7.01157C21.5527 6.40873 20.2562 6.36805 19.1837 6.91529C18.9553 5.98493 18.3542 5.18171 17.525 4.70805C15.9267 3.79517 13.9088 4.28228 12.9141 5.81375C11.6541 5.534 10.3318 6.09852 9.68594 7.22933C9.49647 7.56104 9.37593 7.91212 9.3157 8.29764C7.85755 7.80471 6.20577 8.42098 5.42208 9.79303C4.51781 11.3762 5.06738 13.3898 6.65052 14.294L6.6656 14.3027C6.21353 15.4442 6.64669 16.8914 7.79259 17.5459C8.72739 18.0799 9.84515 17.9784 10.657 17.3623C11.1398 19.4578 10.0741 21.5686 8.83397 23.7398C8.7823 23.8303 8.80816 23.925 8.89863 23.9767L11.6277 25.5355C11.6729 25.5613 11.7117 25.5634 11.759 25.5505C11.8064 25.5376 11.8473 25.501 11.8646 25.4708C11.8818 25.4407 13.6128 22.2701 15.4928 21.4642C15.6781 21.63 15.8719 21.7808 16.083 21.9013C16.9123 22.375 17.9095 22.4847 18.8355 22.1937C19.0983 22.6438 19.4667 23.0142 19.919 23.2725C21.3212 24.0735 23.1216 23.5821 23.9225 22.1799C24.5146 21.1783 24.4498 19.9615 23.8013 19.0312ZM12.7832 20.3965C12.992 19.4359 13.1489 17.8658 12.9161 16.873C13.4826 17.1766 14.1438 17.3143 14.7856 17.241C14.4648 17.8376 14.3357 18.4837 14.3854 19.132C13.8491 19.4056 13.2031 19.9765 12.7832 20.3965Z" fill="white"/>
</svg>

