<svg width="27" height="20" viewBox="0 0 27 20" fill="none" xmlns="http://www.w3.org/2000/svg">
  <path d="M20.5177 2.72162H14.7506C15.2717 2.72162 15.6955 2.29786 15.6955 1.77603C15.6955 1.25419 15.2709 0.833496 14.7506 0.833496H12.392C11.8709 0.833496 11.4479 1.25419 11.4479 1.77603C11.4479 2.29786 11.8717 2.72162 12.392 2.72162H6.62419C5.01959 2.72162 3.69085 4.15993 3.43262 5.69097H23.7115C23.4518 4.15917 22.123 2.72162 20.5177 2.72162Z" fill="white"/>
  <path d="M23.7586 7.31172V7.04199H3.43218H3.38467H0V8.39218H3.38467V16.7585C3.38467 18.55 4.83602 19.9991 6.62452 19.9991H20.5188C22.3088 19.9991 23.7594 18.55 23.7594 16.7585V8.66191H27V7.31172H23.7586Z" fill="white"/>
</svg>
