<svg width="24" height="24" viewBox="0 0 24 24" fill="none" xmlns="http://www.w3.org/2000/svg">
<path d="M23.4794 10.9238C23.9518 10.4634 24.1186 9.78768 23.9148 9.15957C23.7106 8.53145 23.1786 8.08307 22.525 7.98792L16.7139 7.14355C16.4664 7.1075 16.2525 6.95228 16.142 6.72785L13.544 1.46265C13.2523 0.871059 12.6602 0.503418 12.0004 0.503418C11.341 0.503418 10.749 0.871059 10.4572 1.46265L7.85877 6.72833C7.74824 6.95276 7.5339 7.10798 7.2864 7.14403L1.47527 7.9884C0.822167 8.08307 0.289688 8.53193 0.0854429 9.16005C-0.118322 9.78816 0.0484385 10.4639 0.520845 10.9242L4.72541 15.0226C4.90467 15.1975 4.98684 15.4494 4.94455 15.6954L3.95264 21.4825C3.8647 21.9919 3.9983 22.4874 4.32797 22.8781C4.84027 23.487 5.73462 23.6725 6.44972 23.2967L11.6467 20.5641C11.8639 20.4502 12.1373 20.4512 12.3541 20.5641L17.5515 23.2967C17.8043 23.4298 18.0739 23.4971 18.3522 23.4971C18.8601 23.4971 19.3417 23.2712 19.6728 22.8781C20.0029 22.4874 20.1361 21.991 20.0481 21.4825L19.0557 15.6954C19.0134 15.4489 19.0956 15.1975 19.2749 15.0226L23.4794 10.9238Z" fill="#F2C94C"/>
</svg>
