<svg width="24" height="23" viewBox="0 0 24 23" fill="none" xmlns="http://www.w3.org/2000/svg">
<path d="M23.4794 10.4203C23.9518 9.95995 24.1186 9.28426 23.9148 8.65615C23.7106 8.02803 23.1786 7.57966 22.525 7.4845L16.7139 6.64013C16.4664 6.60409 16.2525 6.44886 16.142 6.22443L13.544 0.959231C13.2523 0.367641 12.6602 0 12.0004 0C11.341 0 10.749 0.367641 10.4572 0.959231L7.85877 6.22491C7.74824 6.44934 7.5339 6.60457 7.2864 6.64061L1.47527 7.48498C0.822167 7.57966 0.289688 8.02851 0.0854429 8.65663C-0.118322 9.28474 0.0484385 9.96043 0.520845 10.4208L4.72541 14.5192C4.90467 14.6941 4.98684 14.9459 4.94455 15.192L3.95264 20.9791C3.8647 21.4885 3.9983 21.984 4.32797 22.3747C4.84027 22.9836 5.73462 23.1691 6.44972 22.7933L11.6467 20.0607C11.8639 19.9468 12.1373 19.9478 12.3541 20.0607L17.5515 22.7933C17.8043 22.9264 18.0739 22.9937 18.3522 22.9937C18.8601 22.9937 19.3417 22.7678 19.6728 22.3747C20.0029 21.984 20.1361 21.4875 20.0481 20.9791L19.0557 15.192C19.0134 14.9455 19.0956 14.6941 19.2749 14.5192L23.4794 10.4203Z" fill="#4a4a4a"/>
</svg>
